<?xml version="1.0" encoding="iso-8859-1"?>
<!-- Generator: Adobe Illustrator 15.0.0, SVG Export Plug-In . SVG Version: 6.00 Build 0)  -->
<!DOCTYPE svg PUBLIC "-//W3C//DTD SVG 1.1//EN" "http://www.w3.org/Graphics/SVG/1.1/DTD/svg11.dtd">
<svg version="1.1" id="Aka" xmlns="http://www.w3.org/2000/svg" xmlns:xlink="http://www.w3.org/1999/xlink" x="0px" y="0px"
	 width="54.224px" height="74.065px" viewBox="0 0 54.224 74.065" style="enable-background:new 0 0 54.224 74.065;"
	 xml:space="preserve">
<g id="_x35_pin_1_">
	
		<rect x="0.183" y="0.183" style="fill:#F6F5F1;stroke:#010202;stroke-width:0.3649;stroke-miterlimit:10;" width="53.858" height="73.7"/>
	<g id="Point_46_">
		<g>
			<path style="fill:#801927;" d="M27.117,27.242c-5.407,0-9.791,4.383-9.791,9.79s4.384,9.791,9.791,9.791s9.79-4.384,9.79-9.791
				S32.524,27.242,27.117,27.242z M27.117,44.393c-4.065,0-7.36-3.295-7.36-7.36c0-4.064,3.295-7.359,7.36-7.359
				c4.064,0,7.36,3.295,7.36,7.359C34.478,41.098,31.182,44.393,27.117,44.393z"/>
			<path style="fill:#801927;" d="M33.363,35.003c-1.121-3.45-4.826-5.337-8.275-4.217c-3.45,1.121-5.339,4.826-4.217,8.275
				c1.12,3.451,4.825,5.338,8.275,4.217C32.596,42.157,34.484,38.453,33.363,35.003z M27.117,31.581
				c0.709,0,1.386,0.136,2.007,0.382l-0.731,1.846c-0.395-0.156-0.825-0.242-1.275-0.242s-0.881,0.086-1.275,0.242l-0.73-1.846
				C25.732,31.717,26.408,31.581,27.117,31.581z M21.933,35.349c0.219-0.675,0.557-1.276,0.982-1.791l1.53,1.265
				c-0.271,0.328-0.485,0.711-0.625,1.139c-0.139,0.429-0.19,0.864-0.164,1.288l-1.98,0.125
				C21.633,36.707,21.714,36.021,21.933,35.349z M25.76,42.313c-0.647-0.166-1.273-0.454-1.847-0.871
				c-0.574-0.416-1.042-0.924-1.399-1.487l1.676-1.064c0.228,0.358,0.525,0.681,0.891,0.946c0.363,0.265,0.763,0.448,1.173,0.554
				L25.76,42.313z M27.117,39.222c-1.209,0-2.189-0.98-2.189-2.189s0.98-2.188,2.189-2.188s2.189,0.979,2.189,2.188
				S28.326,39.222,27.117,39.222z M30.321,41.442c-0.573,0.417-1.2,0.705-1.849,0.871l-0.493-1.923
				c0.411-0.105,0.81-0.289,1.175-0.554c0.364-0.265,0.662-0.587,0.89-0.945l1.676,1.063C31.361,40.52,30.894,41.026,30.321,41.442z
				 M32.559,37.375l-1.981-0.125c0.026-0.424-0.024-0.86-0.163-1.289c-0.14-0.428-0.354-0.811-0.625-1.138l1.53-1.266
				c0.426,0.515,0.763,1.116,0.981,1.791C32.521,36.022,32.602,36.708,32.559,37.375z"/>
		</g>
		<circle style="fill:#801927;" cx="27.117" cy="37.033" r="0.851"/>
	</g>
	<g id="Point_45_">
		<g>
			<path style="fill:#801927;" d="M13.989,45.171c-5.407,0-9.79,4.383-9.79,9.791c0,5.407,4.383,9.79,9.79,9.79
				s9.791-4.383,9.791-9.79C23.78,49.554,19.396,45.171,13.989,45.171z M13.989,62.321c-4.064,0-7.36-3.295-7.36-7.359
				c0-4.065,3.296-7.36,7.36-7.36c4.065,0,7.36,3.295,7.36,7.36C21.35,59.026,18.055,62.321,13.989,62.321z"/>
			<path style="fill:#801927;" d="M20.235,52.932c-1.12-3.449-4.826-5.337-8.275-4.217c-3.45,1.121-5.338,4.826-4.217,8.276
				c1.12,3.45,4.825,5.337,8.276,4.217C19.469,60.087,21.356,56.382,20.235,52.932z M13.989,49.51
				c0.709,0.001,1.386,0.136,2.007,0.382l-0.73,1.846c-0.395-0.156-0.825-0.242-1.276-0.242c-0.45,0-0.88,0.086-1.275,0.242
				l-0.73-1.846C12.604,49.646,13.281,49.51,13.989,49.51z M8.805,53.277c0.22-0.675,0.557-1.276,0.983-1.791l1.529,1.266
				c-0.271,0.327-0.485,0.71-0.625,1.138c-0.139,0.429-0.19,0.864-0.163,1.288l-1.981,0.124C8.506,54.636,8.586,53.95,8.805,53.277z
				 M12.632,60.242c-0.646-0.166-1.273-0.454-1.847-0.871c-0.573-0.416-1.042-0.923-1.399-1.487l1.676-1.064
				c0.228,0.358,0.525,0.682,0.891,0.946c0.364,0.265,0.763,0.448,1.174,0.554L12.632,60.242z M13.989,57.15
				c-1.209,0-2.189-0.979-2.189-2.188c0-1.21,0.98-2.189,2.189-2.189s2.189,0.979,2.189,2.189
				C16.179,56.171,15.198,57.15,13.989,57.15z M17.193,59.371c-0.573,0.417-1.2,0.705-1.848,0.871l-0.494-1.923
				c0.412-0.105,0.811-0.288,1.176-0.554c0.363-0.265,0.661-0.587,0.889-0.945l1.676,1.063
				C18.234,58.448,17.767,58.955,17.193,59.371z M19.432,55.304l-1.982-0.125c0.027-0.424-0.023-0.859-0.163-1.289
				c-0.14-0.428-0.354-0.811-0.624-1.137l1.529-1.266c0.426,0.515,0.764,1.116,0.982,1.79S19.474,54.637,19.432,55.304z"/>
		</g>
		<circle style="fill:#801927;" cx="13.989" cy="54.961" r="0.851"/>
	</g>
	<g id="Point_44_">
		<g>
			<path style="fill:#801927;" d="M40.184,45.171c-5.406,0-9.79,4.383-9.79,9.791c0,5.407,4.384,9.79,9.79,9.79
				c5.407,0,9.791-4.383,9.791-9.79C49.975,49.554,45.591,45.171,40.184,45.171z M40.184,62.321c-4.064,0-7.359-3.295-7.359-7.359
				c0-4.065,3.295-7.36,7.359-7.36c4.065,0,7.36,3.295,7.36,7.36C47.544,59.026,44.249,62.321,40.184,62.321z"/>
			<path style="fill:#801927;" d="M46.431,52.932c-1.121-3.449-4.827-5.337-8.276-4.217c-3.45,1.121-5.338,4.826-4.217,8.276
				s4.826,5.337,8.276,4.217C45.663,60.087,47.551,56.382,46.431,52.932z M40.184,49.51c0.709,0.001,1.386,0.136,2.007,0.382
				l-0.73,1.846c-0.395-0.156-0.825-0.242-1.276-0.242c-0.45,0-0.88,0.086-1.275,0.242l-0.729-1.846
				C38.799,49.646,39.476,49.51,40.184,49.51z M35,53.277c0.219-0.675,0.556-1.276,0.982-1.791l1.53,1.266
				c-0.271,0.327-0.486,0.71-0.625,1.138c-0.14,0.429-0.19,0.864-0.164,1.288l-1.981,0.124C34.7,54.636,34.781,53.95,35,53.277z
				 M38.826,60.242c-0.646-0.166-1.273-0.454-1.846-0.871c-0.574-0.416-1.042-0.923-1.4-1.487l1.677-1.064
				c0.228,0.358,0.524,0.682,0.89,0.946c0.364,0.265,0.763,0.448,1.174,0.554L38.826,60.242z M40.184,57.15
				c-1.209,0-2.188-0.979-2.188-2.188c0-1.21,0.979-2.189,2.188-2.189s2.189,0.979,2.189,2.189
				C42.373,56.171,41.393,57.15,40.184,57.15z M43.388,59.371c-0.573,0.417-1.2,0.705-1.848,0.871l-0.493-1.923
				c0.411-0.105,0.81-0.288,1.175-0.554c0.364-0.265,0.661-0.587,0.89-0.945l1.676,1.063C44.429,58.448,43.961,58.955,43.388,59.371
				z M45.626,55.304l-1.981-0.125c0.026-0.424-0.024-0.859-0.164-1.289c-0.139-0.428-0.354-0.811-0.624-1.137l1.529-1.266
				c0.426,0.515,0.764,1.116,0.982,1.79C45.588,53.951,45.668,54.637,45.626,55.304z"/>
		</g>
		<circle style="fill:#801927;" cx="40.184" cy="54.961" r="0.851"/>
	</g>
	<g id="Point_43_">
		<g>
			<path style="fill:#801927;" d="M40.184,9.146c-5.406,0-9.79,4.384-9.79,9.791c0,5.408,4.384,9.791,9.79,9.791
				c5.407,0,9.791-4.383,9.791-9.791C49.975,13.529,45.591,9.146,40.184,9.146z M40.184,26.297c-4.064,0-7.359-3.295-7.359-7.36
				c0-4.064,3.295-7.359,7.359-7.359c4.065,0,7.36,3.295,7.36,7.359C47.544,23.002,44.249,26.297,40.184,26.297z"/>
			<path style="fill:#801927;" d="M46.431,16.907c-1.121-3.45-4.827-5.337-8.276-4.217c-3.45,1.121-5.338,4.826-4.217,8.276
				c1.121,3.449,4.826,5.337,8.276,4.216C45.663,24.062,47.551,20.357,46.431,16.907z M40.184,13.485
				c0.709,0,1.386,0.135,2.007,0.381l-0.73,1.847c-0.395-0.156-0.825-0.242-1.276-0.242c-0.45,0-0.88,0.086-1.275,0.242
				l-0.729-1.847C38.799,13.62,39.476,13.485,40.184,13.485z M35,17.252c0.219-0.674,0.556-1.276,0.982-1.791l1.53,1.266
				c-0.271,0.327-0.486,0.71-0.625,1.14c-0.14,0.428-0.19,0.863-0.164,1.287l-1.981,0.124C34.7,18.611,34.781,17.926,35,17.252z
				 M38.826,24.218c-0.646-0.166-1.273-0.455-1.846-0.871c-0.574-0.416-1.042-0.924-1.4-1.488l1.677-1.063
				c0.228,0.358,0.524,0.681,0.89,0.946c0.364,0.265,0.763,0.448,1.174,0.554L38.826,24.218z M40.184,21.126
				c-1.209,0-2.188-0.979-2.188-2.189c0-1.209,0.979-2.189,2.188-2.189s2.189,0.98,2.189,2.189
				C42.373,20.146,41.393,21.126,40.184,21.126z M43.388,23.347c-0.573,0.417-1.2,0.705-1.848,0.871l-0.493-1.923
				c0.411-0.105,0.81-0.289,1.175-0.554c0.364-0.265,0.661-0.587,0.89-0.945l1.676,1.063C44.429,22.424,43.961,22.931,43.388,23.347
				z M45.626,19.279l-1.981-0.125c0.026-0.424-0.024-0.859-0.164-1.288c-0.139-0.429-0.354-0.812-0.624-1.139l1.529-1.265
				c0.426,0.515,0.764,1.116,0.982,1.789C45.588,17.927,45.668,18.612,45.626,19.279z"/>
		</g>
		<circle style="fill:#801927;" cx="40.184" cy="18.937" r="0.851"/>
	</g>
	<g id="Point_42_">
		<g>
			<path style="fill:#801927;" d="M13.989,9.146c-5.407,0-9.79,4.384-9.79,9.791c0,5.408,4.383,9.791,9.79,9.791
				s9.791-4.383,9.791-9.791C23.78,13.529,19.396,9.146,13.989,9.146z M13.989,26.297c-4.064,0-7.36-3.295-7.36-7.36
				c0-4.064,3.296-7.359,7.36-7.359c4.065,0,7.36,3.295,7.36,7.359C21.35,23.002,18.055,26.297,13.989,26.297z"/>
			<path style="fill:#801927;" d="M20.235,16.907c-1.12-3.45-4.826-5.337-8.275-4.217c-3.45,1.121-5.338,4.826-4.217,8.276
				c1.12,3.449,4.825,5.337,8.276,4.216C19.469,24.062,21.356,20.357,20.235,16.907z M13.989,13.485
				c0.709,0,1.386,0.135,2.007,0.381l-0.73,1.847c-0.395-0.156-0.825-0.242-1.276-0.242c-0.45,0-0.88,0.086-1.275,0.242l-0.73-1.847
				C12.604,13.62,13.281,13.485,13.989,13.485z M8.805,17.252c0.22-0.674,0.557-1.276,0.983-1.791l1.529,1.266
				c-0.271,0.327-0.485,0.71-0.625,1.14c-0.139,0.428-0.19,0.863-0.163,1.287l-1.981,0.124C8.506,18.611,8.586,17.926,8.805,17.252z
				 M12.632,24.218c-0.646-0.166-1.273-0.455-1.847-0.871s-1.042-0.924-1.399-1.488l1.676-1.063
				c0.228,0.358,0.525,0.681,0.891,0.946c0.364,0.265,0.763,0.448,1.174,0.554L12.632,24.218z M13.989,21.126
				c-1.209,0-2.189-0.979-2.189-2.189c0-1.209,0.98-2.189,2.189-2.189s2.189,0.98,2.189,2.189
				C16.179,20.146,15.198,21.126,13.989,21.126z M17.193,23.347c-0.573,0.417-1.2,0.705-1.848,0.871l-0.494-1.923
				c0.412-0.105,0.811-0.289,1.176-0.554c0.363-0.265,0.661-0.587,0.889-0.945l1.676,1.063
				C18.234,22.424,17.767,22.931,17.193,23.347z M19.432,19.279l-1.982-0.125c0.027-0.424-0.023-0.859-0.163-1.288
				s-0.354-0.812-0.624-1.139l1.529-1.265c0.426,0.515,0.764,1.116,0.982,1.789C19.393,17.927,19.474,18.612,19.432,19.279z"/>
		</g>
		<circle style="fill:#801927;" cx="13.989" cy="18.937" r="0.851"/>
	</g>
</g>
</svg>
