<?xml version="1.0" encoding="iso-8859-1"?>
<!-- Generator: Adobe Illustrator 15.0.0, SVG Export Plug-In . SVG Version: 6.00 Build 0)  -->
<!DOCTYPE svg PUBLIC "-//W3C//DTD SVG 1.1//EN" "http://www.w3.org/Graphics/SVG/1.1/DTD/svg11.dtd">
<svg version="1.1" id="Aka" xmlns="http://www.w3.org/2000/svg" xmlns:xlink="http://www.w3.org/1999/xlink" x="0px" y="0px"
	 width="54.224px" height="74.065px" viewBox="0 0 54.224 74.065" style="enable-background:new 0 0 54.224 74.065;"
	 xml:space="preserve">
<g id="_x35_sou_1_">
	
		<rect x="0.183" y="0.183" style="fill:#F6F5F1;stroke:#010202;stroke-width:0.3649;stroke-miterlimit:10;" width="53.858" height="73.7"/>
	<path id="Sou_24_" style="fill:#801927;" d="M17.953,19.733c0-1.267-0.862-2.399-2.22-3.169v-5.808
		c1.357-0.599,2.22-1.479,2.22-2.465c0-1.801-2.872-3.262-6.415-3.262c-3.544,0-6.416,1.461-6.416,3.262
		c0,0.985,0.862,1.866,2.22,2.465v5.808c-1.357,0.77-2.22,1.902-2.22,3.169c0,1.268,0.862,2.4,2.22,3.17v6.255
		c-1.357,0.599-2.22,1.479-2.22,2.465c0,1.117,1.229,2.691,2.788,2.691s2.281-1.254,3.628-1.254c1.346,0,2.066,1.254,3.627,1.254
		c1.56,0,2.788-1.574,2.788-2.691c0-0.985-0.862-1.866-2.22-2.465v-6.255C17.091,22.134,17.953,21.001,17.953,19.733z
		 M12.693,31.395h-2.312v-8.803h2.312V31.395z M11.538,21.405c-1.067,0-1.932-0.388-1.932-0.866s0.864-0.867,1.932-0.867
		c1.066,0,1.931,0.389,1.931,0.867S12.604,21.405,11.538,21.405z M11.538,18.807c-1.067,0-1.932-0.389-1.932-0.867
		s0.864-0.866,1.932-0.866c1.066,0,1.931,0.388,1.931,0.866S12.604,18.807,11.538,18.807z M12.693,10.135v5.524h-2.312v-5.524
		C9.914,9.802,9.606,9.277,9.606,8.682c0-1.008,0.864-1.825,1.932-1.825c1.066,0,1.931,0.817,1.931,1.825
		C13.469,9.277,13.161,9.802,12.693,10.135z"/>
	<path id="Sou_23_" style="fill:#801927;" d="M48.965,19.733c0-1.267-0.862-2.399-2.22-3.169v-5.808
		c1.357-0.599,2.22-1.479,2.22-2.465c0-1.801-2.873-3.262-6.416-3.262c-3.544,0-6.416,1.461-6.416,3.262
		c0,0.985,0.862,1.866,2.22,2.465v5.808c-1.357,0.77-2.22,1.902-2.22,3.169c0,1.268,0.862,2.4,2.22,3.17v6.255
		c-1.357,0.599-2.22,1.479-2.22,2.465c0,1.117,1.229,2.691,2.789,2.691s2.28-1.254,3.627-1.254c1.346,0,2.067,1.254,3.627,1.254
		s2.789-1.574,2.789-2.691c0-0.985-0.862-1.866-2.22-2.465v-6.255C48.103,22.134,48.965,21.001,48.965,19.733z M43.704,31.395
		h-2.312v-8.803h2.312V31.395z M42.549,21.405c-1.066,0-1.931-0.388-1.931-0.866s0.864-0.867,1.931-0.867s1.931,0.389,1.931,0.867
		S43.615,21.405,42.549,21.405z M42.549,18.807c-1.066,0-1.931-0.389-1.931-0.867s0.864-0.866,1.931-0.866s1.931,0.388,1.931,0.866
		S43.615,18.807,42.549,18.807z M43.704,10.135v5.524h-2.312v-5.524c-0.468-0.333-0.774-0.857-0.774-1.453
		c0-1.008,0.864-1.825,1.931-1.825s1.931,0.817,1.931,1.825C44.479,9.277,44.172,9.802,43.704,10.135z"/>
	<path id="Sou_22_" style="fill:#801927;" d="M17.953,54.454c0-1.267-0.862-2.4-2.22-3.169v-5.808
		c1.357-0.599,2.22-1.479,2.22-2.465c0-1.801-2.872-3.262-6.415-3.262c-3.544,0-6.416,1.461-6.416,3.262
		c0,0.985,0.862,1.866,2.22,2.465v5.808c-1.357,0.769-2.22,1.902-2.22,3.169c0,1.268,0.862,2.4,2.22,3.17v6.255
		c-1.357,0.599-2.22,1.479-2.22,2.464c0,1.118,1.229,2.692,2.788,2.692s2.281-1.254,3.628-1.254c1.346,0,2.066,1.254,3.627,1.254
		c1.56,0,2.788-1.574,2.788-2.692c0-0.984-0.862-1.865-2.22-2.464v-6.255C17.091,56.854,17.953,55.722,17.953,54.454z
		 M12.693,66.115h-2.312v-8.803h2.312V66.115z M11.538,56.126c-1.067,0-1.932-0.388-1.932-0.866s0.864-0.867,1.932-0.867
		c1.066,0,1.931,0.389,1.931,0.867S12.604,56.126,11.538,56.126z M11.538,53.527c-1.067,0-1.932-0.389-1.932-0.867
		s0.864-0.866,1.932-0.866c1.066,0,1.931,0.388,1.931,0.866S12.604,53.527,11.538,53.527z M12.693,44.855v5.524h-2.312v-5.524
		c-0.468-0.333-0.775-0.857-0.775-1.454c0-1.007,0.864-1.824,1.932-1.824c1.066,0,1.931,0.817,1.931,1.824
		C13.469,43.998,13.161,44.522,12.693,44.855z"/>
	<path id="Sou_21_" style="fill:#801927;" d="M48.965,54.454c0-1.267-0.862-2.4-2.22-3.169v-5.808
		c1.357-0.599,2.22-1.479,2.22-2.465c0-1.801-2.873-3.262-6.416-3.262c-3.544,0-6.416,1.461-6.416,3.262
		c0,0.985,0.862,1.866,2.22,2.465v5.808c-1.357,0.769-2.22,1.902-2.22,3.169c0,1.268,0.862,2.4,2.22,3.17v6.255
		c-1.357,0.599-2.22,1.479-2.22,2.464c0,1.118,1.229,2.692,2.789,2.692s2.28-1.254,3.627-1.254c1.346,0,2.067,1.254,3.627,1.254
		s2.789-1.574,2.789-2.692c0-0.984-0.862-1.865-2.22-2.464v-6.255C48.103,56.854,48.965,55.722,48.965,54.454z M43.704,66.115
		h-2.312v-8.803h2.312V66.115z M42.549,56.126c-1.066,0-1.931-0.388-1.931-0.866s0.864-0.867,1.931-0.867s1.931,0.389,1.931,0.867
		S43.615,56.126,42.549,56.126z M42.549,53.527c-1.066,0-1.931-0.389-1.931-0.867s0.864-0.866,1.931-0.866s1.931,0.388,1.931,0.866
		S43.615,53.527,42.549,53.527z M43.704,44.855v5.524h-2.312v-5.524c-0.468-0.333-0.774-0.857-0.774-1.454
		c0-1.007,0.864-1.824,1.931-1.824s1.931,0.817,1.931,1.824C44.479,43.998,44.172,44.522,43.704,44.855z"/>
	<path id="Sou_20_" style="fill:#801927;" d="M33.459,37.094c0-1.267-0.862-2.4-2.22-3.169v-5.808
		c1.357-0.599,2.22-1.479,2.22-2.465c0-1.802-2.873-3.262-6.416-3.262s-6.416,1.46-6.416,3.262c0,0.985,0.862,1.866,2.22,2.465
		v5.808c-1.357,0.769-2.22,1.902-2.22,3.169c0,1.268,0.862,2.4,2.22,3.17v6.255c-1.357,0.599-2.22,1.479-2.22,2.465
		c0,1.117,1.229,2.691,2.789,2.691s2.28-1.254,3.627-1.254c1.346,0,2.067,1.254,3.627,1.254s2.789-1.574,2.789-2.691
		c0-0.985-0.862-1.866-2.22-2.465v-6.255C32.597,39.494,33.459,38.361,33.459,37.094z M28.198,48.755h-2.311v-8.803h2.311V48.755z
		 M27.043,38.766c-1.066,0-1.931-0.388-1.931-0.866s0.864-0.867,1.931-0.867s1.931,0.389,1.931,0.867S28.109,38.766,27.043,38.766z
		 M27.043,36.167c-1.066,0-1.931-0.389-1.931-0.867s0.864-0.866,1.931-0.866s1.931,0.388,1.931,0.866S28.109,36.167,27.043,36.167z
		 M28.198,27.495v5.524h-2.311v-5.524c-0.469-0.333-0.775-0.857-0.775-1.453c0-1.008,0.864-1.825,1.931-1.825
		s1.931,0.817,1.931,1.825C28.974,26.638,28.667,27.162,28.198,27.495z"/>
</g>
</svg>
