<?xml version="1.0" encoding="iso-8859-1"?>
<!-- Generator: Adobe Illustrator 15.0.0, SVG Export Plug-In . SVG Version: 6.00 Build 0)  -->
<!DOCTYPE svg PUBLIC "-//W3C//DTD SVG 1.1//EN" "http://www.w3.org/Graphics/SVG/1.1/DTD/svg11.dtd">
<svg version="1.1" id="Pinzu" xmlns="http://www.w3.org/2000/svg" xmlns:xlink="http://www.w3.org/1999/xlink" x="0px" y="0px"
	 width="54.223px" height="74.066px" viewBox="0 0 54.223 74.066" style="enable-background:new 0 0 54.223 74.066;"
	 xml:space="preserve">
<g id="_x32_pin">
	
		<rect x="0.183" y="0.183" style="fill:#F6F5F1;stroke:#010202;stroke-width:0.3649;stroke-miterlimit:10;" width="53.858" height="73.701"/>
	<g id="Point_2">
		<circle style="fill:#FFFFFF;" cx="27.112" cy="53.999" r="1.399"/>
		<g>
			<path style="fill:#1F223A;" d="M27.112,42.759c-6.208,0-11.24,5.032-11.24,11.239c0,6.208,5.032,11.24,11.24,11.24
				c6.207,0,11.239-5.032,11.239-11.24C38.351,47.792,33.319,42.759,27.112,42.759z M28.485,45.965
				c0.776-1.345,2.32-1.487,3.673-0.706c1.353,0.781,2.001,2.188,1.225,3.533c-0.824,1.426-2.286,2.178-3.534,1.925
				c-0.166-0.321,0.548-1.588,1.126-1.95c0.469-0.012,0.919-0.255,1.17-0.689c0.384-0.666,0.153-1.518-0.516-1.904
				c-0.669-0.386-1.523-0.16-1.907,0.505c-0.251,0.434-0.236,0.946-0.012,1.358c-0.025,0.681-0.765,1.933-1.126,1.95
				C27.742,49.033,27.661,47.392,28.485,45.965z M22.066,45.259c1.353-0.781,2.896-0.639,3.672,0.706
				c0.824,1.426,0.743,3.068-0.1,4.023c-0.361-0.017-1.102-1.269-1.126-1.95c0.224-0.413,0.239-0.924-0.012-1.358
				c-0.384-0.666-1.238-0.892-1.906-0.505c-0.669,0.386-0.9,1.238-0.516,1.904c0.25,0.434,0.701,0.677,1.17,0.689
				c0.578,0.362,1.292,1.629,1.126,1.95c-1.249,0.253-2.71-0.498-3.534-1.925C20.065,47.448,20.714,46.04,22.066,45.259z
				 M17.021,53.998c0-1.562,0.894-2.827,2.448-2.827c1.647,0,3.029,0.89,3.434,2.098c-0.195,0.304-1.649,0.319-2.252,0
				c-0.245-0.4-0.681-0.669-1.182-0.668c-0.768,0-1.391,0.626-1.391,1.398c0,0.772,0.623,1.399,1.391,1.399
				c0.501,0,0.937-0.269,1.182-0.669c0.603-0.319,2.057-0.304,2.252,0c-0.405,1.208-1.787,2.098-3.434,2.098
				C17.916,56.826,17.021,55.56,17.021,53.998z M25.739,62.032c-0.776,1.345-2.321,1.487-3.673,0.706
				c-1.353-0.781-2.002-2.188-1.225-3.533c0.823-1.426,2.286-2.178,3.534-1.925c0.166,0.322-0.549,1.588-1.126,1.95
				c-0.47,0.013-0.92,0.256-1.17,0.689c-0.384,0.666-0.153,1.518,0.516,1.904c0.668,0.387,1.522,0.16,1.907-0.505
				c0.25-0.434,0.236-0.945,0.012-1.357c0.024-0.682,0.765-1.934,1.126-1.951C26.482,58.964,26.562,60.606,25.739,62.032z
				 M24.284,53.999c0-1.562,1.266-2.828,2.828-2.828c1.562,0,2.828,1.266,2.828,2.828c0,1.562-1.266,2.828-2.828,2.828
				C25.55,56.826,24.284,55.561,24.284,53.999z M32.157,62.738c-1.353,0.781-2.896,0.64-3.672-0.707
				c-0.823-1.426-0.743-3.068,0.1-4.023c0.361,0.018,1.101,1.27,1.126,1.95c-0.224,0.413-0.239,0.925,0.012,1.358
				c0.384,0.666,1.238,0.892,1.907,0.505c0.669-0.385,0.9-1.238,0.516-1.904c-0.25-0.434-0.701-0.677-1.17-0.689
				c-0.579-0.362-1.292-1.63-1.126-1.95c1.249-0.253,2.71,0.498,3.534,1.924C34.159,60.549,33.51,61.958,32.157,62.738z
				 M34.755,56.826c-1.647,0-3.028-0.891-3.434-2.098c0.195-0.304,1.649-0.319,2.251,0c0.245,0.4,0.681,0.669,1.182,0.669
				c0.769,0,1.391-0.626,1.391-1.399S35.524,52.6,34.755,52.6c-0.501,0-0.937,0.269-1.182,0.669c-0.602,0.319-2.056,0.304-2.251,0
				c0.405-1.208,1.787-2.098,3.434-2.098c1.553,0,2.448,1.266,2.448,2.828C37.203,55.561,36.309,56.826,34.755,56.826z"/>
			<path style="fill:#1F223A;" d="M27.112,39.495c-8.01,0-14.504,6.494-14.504,14.503c0,8.01,6.494,14.504,14.504,14.504
				c8.01,0,14.503-6.494,14.503-14.504C41.615,45.989,35.122,39.495,27.112,39.495z M33.178,64.505
				c-5.803,3.351-13.223,1.362-16.573-4.44c-3.35-5.802-1.362-13.223,4.441-16.573s13.223-1.362,16.573,4.44
				C40.969,53.735,38.98,61.155,33.178,64.505z"/>
		</g>
	</g>
	<g id="Point_2_1_">
		<circle style="fill:#FFFFFF;" cx="27.112" cy="20.067" r="1.399"/>
		<g>
			<path style="fill:#1F223A;" d="M27.112,8.828c-6.208,0-11.24,5.032-11.24,11.239c0,6.207,5.032,11.239,11.24,11.239
				c6.207,0,11.239-5.032,11.239-11.239C38.351,13.86,33.319,8.828,27.112,8.828z M28.485,12.034
				c0.776-1.345,2.32-1.486,3.673-0.706s2.001,2.188,1.225,3.534c-0.824,1.426-2.286,2.177-3.534,1.925
				c-0.166-0.321,0.548-1.588,1.126-1.95c0.469-0.012,0.919-0.255,1.17-0.689c0.384-0.665,0.153-1.518-0.516-1.904
				c-0.669-0.386-1.523-0.16-1.907,0.505c-0.251,0.434-0.236,0.946-0.012,1.358c-0.025,0.681-0.765,1.934-1.126,1.95
				C27.742,15.102,27.661,13.46,28.485,12.034z M22.066,11.328c1.353-0.781,2.896-0.64,3.672,0.706
				c0.824,1.426,0.743,3.068-0.1,4.023c-0.361-0.017-1.102-1.269-1.126-1.95c0.224-0.413,0.239-0.924-0.012-1.358
				c-0.384-0.665-1.238-0.892-1.906-0.505c-0.669,0.386-0.9,1.239-0.516,1.904c0.25,0.435,0.701,0.677,1.17,0.689
				c0.578,0.362,1.292,1.629,1.126,1.951c-1.249,0.252-2.71-0.499-3.534-1.925C20.065,13.517,20.714,12.109,22.066,11.328z
				 M17.021,20.067c0-1.562,0.894-2.827,2.448-2.827c1.647,0,3.029,0.891,3.434,2.098c-0.195,0.304-1.649,0.319-2.252,0
				c-0.245-0.4-0.681-0.669-1.182-0.669c-0.768,0-1.391,0.626-1.391,1.398c0,0.772,0.623,1.398,1.391,1.398
				c0.501,0,0.937-0.268,1.182-0.668c0.603-0.32,2.057-0.304,2.252,0c-0.405,1.207-1.787,2.098-3.434,2.098
				C17.916,22.895,17.021,21.629,17.021,20.067z M25.739,28.101c-0.776,1.345-2.321,1.486-3.673,0.706
				c-1.353-0.781-2.002-2.188-1.225-3.534c0.823-1.426,2.286-2.177,3.534-1.925c0.166,0.322-0.549,1.588-1.126,1.95
				c-0.47,0.013-0.92,0.256-1.17,0.69c-0.384,0.666-0.153,1.518,0.516,1.904c0.668,0.387,1.522,0.16,1.907-0.505
				c0.25-0.434,0.236-0.946,0.012-1.358c0.024-0.682,0.765-1.934,1.126-1.95C26.482,25.033,26.562,26.675,25.739,28.101z
				 M24.284,20.067c0-1.562,1.266-2.828,2.828-2.828c1.562,0,2.828,1.266,2.828,2.828c0,1.562-1.266,2.828-2.828,2.828
				C25.55,22.895,24.284,21.629,24.284,20.067z M32.157,28.807c-1.353,0.781-2.896,0.639-3.672-0.707
				c-0.823-1.426-0.743-3.068,0.1-4.023c0.361,0.018,1.101,1.27,1.126,1.951c-0.224,0.413-0.239,0.924,0.012,1.358
				c0.384,0.666,1.238,0.891,1.907,0.505s0.9-1.239,0.516-1.904c-0.25-0.434-0.701-0.678-1.17-0.689
				c-0.579-0.362-1.292-1.63-1.126-1.951c1.249-0.252,2.71,0.499,3.534,1.925C34.159,26.618,33.51,28.026,32.157,28.807z
				 M34.755,22.895c-1.647,0-3.028-0.891-3.434-2.098c0.195-0.304,1.649-0.319,2.251,0c0.245,0.4,0.681,0.669,1.182,0.669
				c0.769,0,1.391-0.626,1.391-1.398s-0.623-1.399-1.391-1.399c-0.501,0-0.937,0.269-1.182,0.669c-0.602,0.319-2.056,0.304-2.251,0
				c0.405-1.207,1.787-2.098,3.434-2.098c1.553,0,2.448,1.266,2.448,2.828C37.203,21.629,36.309,22.895,34.755,22.895z"/>
			<path style="fill:#1F223A;" d="M27.112,5.563c-8.01,0-14.504,6.494-14.504,14.504c0,8.01,6.494,14.503,14.504,14.503
				c8.01,0,14.503-6.494,14.503-14.503C41.615,12.057,35.122,5.563,27.112,5.563z M33.178,30.574
				c-5.803,3.35-13.223,1.362-16.573-4.44c-3.35-5.802-1.362-13.223,4.441-16.573s13.223-1.362,16.573,4.44
				C40.969,19.804,38.98,27.224,33.178,30.574z"/>
		</g>
	</g>
</g>
</svg>
