<?xml version="1.0" encoding="iso-8859-1"?>
<!-- Generator: Adobe Illustrator 15.0.0, SVG Export Plug-In . SVG Version: 6.00 Build 0)  -->
<!DOCTYPE svg PUBLIC "-//W3C//DTD SVG 1.1//EN" "http://www.w3.org/Graphics/SVG/1.1/DTD/svg11.dtd">
<svg version="1.1" id="Pinzu" xmlns="http://www.w3.org/2000/svg" xmlns:xlink="http://www.w3.org/1999/xlink" x="0px" y="0px"
	 width="54.224px" height="74.066px" viewBox="0 0 54.224 74.066" style="enable-background:new 0 0 54.224 74.066;"
	 xml:space="preserve">
<g id="_x33_pin">
	
		<rect x="0.183" y="0.183" style="fill:#F6F5F1;stroke:#010202;stroke-width:0.3649;stroke-miterlimit:10;" width="53.858" height="73.701"/>
	<g id="Point_14_">
		<g>
			<path style="fill:#801927;" d="M27.117,27.242c-5.407,0-9.791,4.384-9.791,9.791s4.384,9.791,9.791,9.791
				s9.791-4.384,9.791-9.791S32.524,27.242,27.117,27.242z M27.117,44.393c-4.064,0-7.36-3.295-7.36-7.36s3.296-7.36,7.36-7.36
				c4.065,0,7.36,3.295,7.36,7.36S31.183,44.393,27.117,44.393z"/>
			<path style="fill:#801927;" d="M33.363,35.003c-1.121-3.45-4.826-5.337-8.275-4.217c-3.45,1.121-5.338,4.826-4.217,8.276
				c1.12,3.45,4.825,5.338,8.275,4.217S34.484,38.454,33.363,35.003z M27.117,31.582c0.709,0,1.386,0.135,2.007,0.381l-0.73,1.846
				c-0.396-0.156-0.825-0.242-1.276-0.242c-0.45,0-0.881,0.086-1.275,0.242l-0.73-1.846C25.732,31.717,26.409,31.582,27.117,31.582z
				 M21.933,35.349c0.22-0.674,0.557-1.276,0.983-1.791l1.529,1.266c-0.271,0.327-0.485,0.71-0.625,1.139
				c-0.139,0.428-0.19,0.864-0.164,1.288l-1.98,0.125C21.634,36.708,21.714,36.022,21.933,35.349z M25.76,42.314
				c-0.646-0.166-1.273-0.455-1.847-0.871c-0.573-0.417-1.042-0.924-1.399-1.488l1.676-1.064c0.228,0.358,0.525,0.681,0.891,0.946
				c0.364,0.265,0.763,0.448,1.174,0.554L25.76,42.314z M27.117,39.223c-1.209,0-2.189-0.98-2.189-2.189s0.98-2.189,2.189-2.189
				s2.189,0.98,2.189,2.189S28.326,39.223,27.117,39.223z M30.321,41.443c-0.573,0.417-1.2,0.706-1.848,0.872l-0.494-1.923
				c0.411-0.105,0.811-0.289,1.175-0.554c0.364-0.265,0.662-0.587,0.89-0.945l1.676,1.064C31.362,40.52,30.895,41.027,30.321,41.443
				z M32.559,37.375l-1.981-0.125c0.027-0.424-0.023-0.859-0.163-1.289c-0.14-0.428-0.354-0.811-0.624-1.138l1.529-1.266
				c0.426,0.515,0.764,1.116,0.982,1.79S32.602,36.708,32.559,37.375z"/>
		</g>
		<circle style="fill:#FFFFFF;" cx="27.117" cy="37.033" r="0.851"/>
	</g>
	<g id="Point_12_">
		<g>
			<path style="fill:#1F233B;" d="M40.185,45.171c-5.407,0-9.791,4.383-9.791,9.791s4.384,9.791,9.791,9.791s9.79-4.384,9.79-9.791
				S45.592,45.171,40.185,45.171z M40.185,62.322c-4.065,0-7.36-3.295-7.36-7.36s3.295-7.36,7.36-7.36c4.064,0,7.36,3.295,7.36,7.36
				S44.249,62.322,40.185,62.322z"/>
			<path style="fill:#1F233B;" d="M46.431,52.932c-1.121-3.45-4.826-5.337-8.276-4.217c-3.449,1.122-5.338,4.826-4.217,8.276
				c1.121,3.45,4.826,5.338,8.276,4.217C45.663,60.087,47.552,56.382,46.431,52.932z M40.185,49.511
				c0.708,0,1.386,0.135,2.007,0.381l-0.731,1.846c-0.395-0.156-0.825-0.242-1.275-0.242c-0.451,0-0.881,0.086-1.275,0.242
				l-0.73-1.846C38.799,49.646,39.476,49.511,40.185,49.511z M35,53.277c0.219-0.674,0.557-1.276,0.982-1.791l1.53,1.265
				c-0.271,0.327-0.485,0.71-0.625,1.139c-0.139,0.428-0.19,0.864-0.164,1.288l-1.981,0.124C34.7,54.636,34.781,53.951,35,53.277z
				 M38.826,60.243c-0.646-0.166-1.273-0.455-1.846-0.871c-0.574-0.417-1.042-0.924-1.399-1.488l1.676-1.064
				c0.228,0.359,0.525,0.681,0.89,0.946c0.364,0.265,0.764,0.448,1.174,0.554L38.826,60.243z M40.185,57.151
				c-1.209,0-2.189-0.98-2.189-2.189s0.98-2.189,2.189-2.189s2.188,0.98,2.188,2.189S41.394,57.151,40.185,57.151z M43.389,59.372
				c-0.573,0.417-1.201,0.705-1.849,0.871l-0.493-1.923c0.411-0.105,0.81-0.289,1.175-0.554c0.364-0.265,0.662-0.587,0.89-0.945
				l1.676,1.064C44.429,58.449,43.961,58.956,43.389,59.372z M45.626,55.304l-1.981-0.125c0.026-0.424-0.024-0.859-0.164-1.289
				c-0.139-0.428-0.354-0.811-0.624-1.138l1.53-1.265c0.426,0.514,0.763,1.116,0.981,1.79
				C45.588,53.952,45.668,54.637,45.626,55.304z"/>
		</g>
		<circle style="fill:#FFFFFF;" cx="40.185" cy="54.962" r="0.851"/>
	</g>
	<g id="Point_10_">
		<g>
			<path style="fill:#1F223A;" d="M13.989,9.146c-5.407,0-9.79,4.384-9.79,9.791s4.383,9.791,9.79,9.791s9.791-4.383,9.791-9.791
				S19.396,9.146,13.989,9.146z M13.989,26.297c-4.064,0-7.359-3.295-7.359-7.36s3.295-7.36,7.359-7.36
				c4.065,0,7.36,3.295,7.36,7.36S18.055,26.297,13.989,26.297z"/>
			<path style="fill:#1F223A;" d="M20.236,16.908c-1.121-3.45-4.827-5.337-8.276-4.217c-3.45,1.121-5.338,4.826-4.217,8.276
				s4.826,5.338,8.276,4.217C19.469,24.062,21.357,20.358,20.236,16.908z M13.989,13.486c0.709,0,1.386,0.135,2.007,0.381
				l-0.73,1.846c-0.395-0.156-0.825-0.242-1.276-0.242c-0.45,0-0.88,0.086-1.274,0.242l-0.73-1.846
				C12.604,13.621,13.281,13.486,13.989,13.486z M8.806,17.253c0.219-0.674,0.556-1.276,0.982-1.791l1.53,1.266
				c-0.271,0.327-0.486,0.71-0.625,1.139c-0.14,0.428-0.19,0.864-0.164,1.288l-1.981,0.125C8.506,18.612,8.586,17.926,8.806,17.253z
				 M12.632,24.218c-0.646-0.166-1.273-0.455-1.847-0.871c-0.573-0.417-1.041-0.924-1.399-1.488l1.677-1.064
				c0.228,0.358,0.524,0.681,0.89,0.946c0.364,0.265,0.763,0.449,1.174,0.554L12.632,24.218z M13.989,21.126
				c-1.209,0-2.188-0.98-2.188-2.189c0-1.209,0.979-2.189,2.188-2.189s2.189,0.98,2.189,2.189
				C16.179,20.146,15.198,21.126,13.989,21.126z M17.193,23.347c-0.573,0.417-1.2,0.706-1.848,0.872l-0.493-1.923
				c0.411-0.105,0.81-0.289,1.175-0.554c0.364-0.264,0.661-0.587,0.889-0.945l1.676,1.064
				C18.234,22.424,17.767,22.931,17.193,23.347z M19.432,19.279l-1.981-0.125c0.026-0.424-0.024-0.86-0.164-1.289
				c-0.139-0.428-0.354-0.811-0.624-1.138l1.529-1.265c0.426,0.515,0.764,1.116,0.982,1.79
				C19.394,17.927,19.474,18.612,19.432,19.279z"/>
		</g>
		<circle style="fill:#FFFFFF;" cx="13.989" cy="18.937" r="0.851"/>
	</g>
</g>
</svg>
