<?xml version="1.0" encoding="iso-8859-1"?>
<!-- Generator: Adobe Illustrator 15.0.0, SVG Export Plug-In . SVG Version: 6.00 Build 0)  -->
<!DOCTYPE svg PUBLIC "-//W3C//DTD SVG 1.1//EN" "http://www.w3.org/Graphics/SVG/1.1/DTD/svg11.dtd">
<svg version="1.1" id="Manzu" xmlns="http://www.w3.org/2000/svg" xmlns:xlink="http://www.w3.org/1999/xlink" x="0px" y="0px"
	 width="54.224px" height="74.065px" viewBox="0 0 54.224 74.065" style="enable-background:new 0 0 54.224 74.065;"
	 xml:space="preserve">
<g id="_x34_man_1_">
	
		<rect x="0.183" y="0.183" style="fill:#F6F5F1;stroke:#010202;stroke-width:0.3649;stroke-miterlimit:10;" width="53.858" height="73.7"/>
	<g id="_x34_man">
		<g id="MAN_3_">
			<g>
				<path style="fill:#9E1915;" d="M13.259,39.778c2.946,0.352,5.696,1.117,8.096,0.986c1.323-0.04,2.837-0.058,4.229-0.386
					c1.403-0.325,2.738-0.885,4.067-1.511c1.326-0.638,2.699-1.195,4.153-1.551c1.446-0.386,2.959-0.649,4.446-0.688
					c2.976-0.028,5.92,0.381,8.718,1.496l-0.029,0.254c-2.932,0.525-5.764,0.714-8.543,0.974c-1.389,0.115-2.749,0.154-4.128,0.333
					c-1.374,0.199-2.79,0.376-4.233,0.527c-1.441,0.165-2.858,0.46-4.217,0.956c-1.369,0.478-2.625,1.291-4.149,1.703
					c-0.785,0.214-1.666,0.234-2.445,0.1c-0.79-0.115-1.533-0.331-2.244-0.602c-1.409-0.57-2.723-1.298-3.832-2.361L13.259,39.778z"
					/>
			</g>
			<g>
				<path style="fill:#9E1915;" d="M25.122,37.217c0.045-0.309,0.104-0.604,0.173-0.887c0.075-0.277,0.142-0.563,0.24-0.818
					c0.208-0.14,0.364-0.334,0.548-0.5l0.532-0.517l2.633-2.557l-1.134,3.506c-0.118,0.366-0.231,0.823-0.317,1.247
					c-0.089,0.433-0.159,0.871-0.212,1.311c-0.053,0.439-0.086,0.88-0.102,1.321c0.001,0.11-0.015,0.22,0.001,0.331
					c0.041,0.055-0.013,0.11-0.069,0.165l-0.153,0.167c-0.197,0.226-0.426,0.46-0.673,0.709c-0.271-0.218-0.521-0.451-0.722-0.693
					l-0.155-0.184c-0.057-0.062-0.109-0.125-0.067-0.186c0.017-0.124,0.009-0.247,0.016-0.371c0.018-0.494,0.055-0.987,0.113-1.477
					s0.137-0.976,0.235-1.46c0.104-0.492,0.21-0.947,0.379-1.471l1.499,0.949l-0.532,0.517c-0.171,0.179-0.37,0.329-0.517,0.534
					c-0.257,0.09-0.545,0.148-0.824,0.216C25.729,37.131,25.433,37.181,25.122,37.217z"/>
			</g>
			<g>
				<path style="fill:#9E1915;" d="M32.965,28.83c0.149,0.237,0.399,0.406,0.974,0.794c0.269,0.194,0.653,0.486,0.924,0.97
					c0.275,0.487,0.31,1.012,0.269,1.395c-0.095,0.761-0.379,1.298-0.632,1.786c-0.261,0.484-0.538,0.932-0.82,1.375
					c-1.137,1.757-2.354,3.412-3.6,5.052c0.823-1.881,1.619-3.784,2.287-5.691c0.308-0.92,0.68-2.004,0.576-2.58
					c-0.031-0.124-0.08-0.126-0.086-0.072c-0.002,0.048-0.043,0.029-0.213-0.033c-0.309-0.116-1.021-0.343-1.62-0.816L32.965,28.83z
					"/>
			</g>
			<path style="fill:none;stroke:#9E1915;stroke-width:2.5541;stroke-miterlimit:10;" d="M21.899,44.879
				c0,0-0.607,8.392,0.486,9.852"/>
			<g>
				<path style="fill:#9E1915;" d="M20.657,44.814c1.341-0.314,2.678-0.465,3.828-0.784c0.27-0.066,0.566-0.159,0.68-0.247
					c0.187-0.071,0.19-0.108,0.353-0.185l0.402-0.218l1.746-0.859c0.596-0.303,1.216-0.559,1.867-0.802
					c0.659-0.244,1.31-0.485,2.153-0.668c0.216-0.041,0.451-0.069,0.728-0.086c0.3-0.004,0.586-0.035,1.17,0.112l0.208,0.062
					c0.079,0.027,0.19,0.076,0.282,0.121c0.19,0.095,0.36,0.182,0.608,0.404c0.223,0.198,0.412,0.42,0.569,0.728
					c0.076,0.146,0.141,0.301,0.189,0.453c0.034,0.126,0.062,0.258,0.08,0.39c0.018,0.133,0.027,0.267,0.029,0.398l-0.002,0.115
					l-0.003,0.135l-0.017,0.325c-0.053,0.742-0.104,1.389-0.196,2.049c-0.217,1.301-0.396,2.583-0.645,3.841
					c-0.256,1.26-0.525,2.512-0.624,3.48c-0.124,2.452-0.166,5.135-0.631,7.82l-0.252,0.043c-0.462-2.561-0.91-5.118-1.128-7.728
					c-0.116-1.338,0.121-2.633,0.255-3.923l0.499-3.865c0.081-0.642,0.172-1.285,0.229-1.922c0.011-0.14,0.031-0.352,0.021-0.433
					c-0.005-0.052-0.026-0.078-0.147-0.118c-0.233-0.066-0.565-0.033-0.867,0.007c-1.245,0.201-2.484,0.623-3.713,1.022
					l-1.851,0.616c-0.309,0.098-0.628,0.2-0.954,0.272c-0.346,0.07-0.675,0.087-1.008,0.094c-1.323-0.003-2.614-0.183-3.902-0.398
					L20.657,44.814z"/>
			</g>
			<g>
				<path style="fill:#9E1915;" d="M21.022,48.434c1.161-0.013,2.324-0.028,3.46-0.142c0.563-0.061,1.133-0.124,1.631-0.264
					c0.483-0.163,1.104-0.364,1.646-0.527c1.126-0.309,2.212-0.816,3.38-0.949c1.166-0.107,2.37-0.171,3.615,0.29l-0.002,0.183
					c-1.072,0.597-2.144,1.039-3.257,1.349c-1.108,0.313-2.293,0.287-3.43,0.487l-1.742,0.268c-0.644,0.069-1.238,0.051-1.834,0.004
					c-1.185-0.103-2.341-0.269-3.486-0.516L21.022,48.434z"/>
			</g>
			<g>
				<path style="fill:#9E1915;" d="M21.002,52.909c1.065-0.091,2.129-0.179,3.186-0.296c1.046-0.128,2.132-0.245,3.077-0.496
					l1.498-0.542c0.51-0.179,1.006-0.422,1.527-0.573c0.521-0.153,1.074-0.172,1.637-0.143c0.559,0.044,1.154,0.121,1.722,0.457
					L33.646,51.5c-0.98,0.669-1.906,1.146-2.948,1.343c-0.52,0.08-1.062,0.082-1.589,0.155l-1.606,0.231
					c-1.151,0.152-2.207,0.112-3.29,0.077c-1.075-0.043-2.145-0.107-3.213-0.214L21.002,52.909z"/>
			</g>
			<g>
				<path style="fill:#9E1915;" d="M16.67,51.408c0.721,1.112,1.2,2.256,1.618,3.405c0.409,1.146,0.728,2.319,1.01,3.432
					c0.073,0.297,0.125,0.496,0.222,0.81l0.228,0.9c0.134,0.6,0.249,1.202,0.329,1.814c0.157,1.225,0.234,2.47,0.06,3.786
					c-0.848-1.02-1.452-2.108-1.985-3.214c-0.267-0.552-0.499-1.115-0.721-1.677l-0.313-0.841c-0.094-0.263-0.214-0.648-0.29-0.939
					c-0.312-1.244-0.459-2.458-0.505-3.7C16.289,53.944,16.348,52.694,16.67,51.408z"/>
			</g>
			<g>
				<path style="fill:#9E1915;" d="M11.196,57.467c0.908,0.681,1.951,1.161,2.999,1.357c0.523,0.088,1.055,0.108,1.548,0.03
					c0.483-0.094,1.054-0.259,1.588-0.407c2.18-0.591,4.381-1.194,6.611-1.677c4.46-0.974,9.009-1.723,13.763-1.483
					c1.189,0.095,2.393,0.259,3.607,0.623c1.193,0.369,2.487,0.925,3.468,2.073c0.996,1.15,1.298,2.777,1.057,4.131
					c-0.11,0.715-0.434,1.487-0.971,2.07c-0.539,0.587-1.222,0.942-1.866,1.154c-1.307,0.408-2.541,0.403-3.726,0.306
					c-1.185-0.113-2.326-0.328-3.448-0.587c-1.118-0.279-2.218-0.584-3.304-0.925c-1.091-0.32-2.152-0.726-3.265-0.951
					c1.146-0.043,2.287,0.133,3.413,0.258c1.128,0.134,2.245,0.288,3.36,0.38c1.111,0.108,2.221,0.183,3.3,0.151
					c1.068-0.036,2.143-0.138,2.976-0.501c0.849-0.378,1.224-0.893,1.317-1.686c0.085-0.872-0.137-1.666-0.671-2.216
					c-0.526-0.568-1.38-1-2.341-1.263c-0.961-0.273-2.017-0.402-3.082-0.472c-2.143-0.167-4.359-0.042-6.57,0.138
					c-2.219,0.161-4.437,0.473-6.668,0.753l-6.718,0.945c-0.577,0.065-1.114,0.142-1.757,0.166
					c-0.638-0.002-1.246-0.118-1.812-0.334C12.875,59.076,11.925,58.344,11.196,57.467z"/>
			</g>
			<g>
				<path style="fill:#9E1915;" d="M26.972,44.088c-0.336,0.746-0.322,1.554-0.366,2.347c-0.037,0.794-0.027,1.594-0.033,2.391
					c0.017,1.595,0.02,3.191,0.062,4.786c0.012,1.595,0.058,3.189,0.106,4.777l0.114,2.414l0.021,1.225l0.001,0.15l0.001,0.071
					c0,0.009,0.002,0.023-0.002,0.021l-0.013-0.024c-0.081-0.019,0.157,0.001-0.229-0.09c-0.17,0.096-0.105,0.102-0.139,0.158
					c-0.002,0.021,0.001,0.019,0.002,0.017c0.015-0.078,0.019-0.192,0.027-0.291l0.058-0.619l0.217,0.586
					c0.032,0.103,0.062,0.189,0.089,0.314c0.001,0.011,0.004,0.021,0.001,0.055c-0.035,0.058,0.03,0.07-0.143,0.165
					c-0.39-0.091-0.151-0.076-0.234-0.096l-0.021-0.042l-0.021-0.052l-0.032-0.078l-0.06-0.147c-0.15-0.389-0.272-0.78-0.406-1.169
					c-0.236-0.78-0.482-1.565-0.644-2.39c-0.347-1.63-0.473-3.278-0.518-4.924c-0.007-1.646,0.069-3.295,0.349-4.932
					c0.129-0.818,0.318-1.632,0.569-2.433C26.015,45.505,26.284,44.625,26.972,44.088z"/>
			</g>
			<g>
				<path style="fill:#9E1915;" d="M21.746,62.255c0.139,0.205,0.255,0.415,0.375,0.623l-0.489-0.254
					c1.436-0.904,2.948-1.661,4.484-2.432c0.755-0.42,1.561-0.702,2.394-0.831c0.829-0.144,1.667-0.237,2.6-0.155l0.066,0.17
					c-0.625,0.7-1.364,1.176-2.121,1.575c-0.753,0.413-1.537,0.661-2.354,0.825c-1.609,0.389-3.169,0.98-4.776,1.48l-0.56,0.174
					l0.07-0.428c0.039-0.237,0.073-0.474,0.131-0.715L21.746,62.255z"/>
			</g>
		</g>
		<g>
			<g>
				<path style="fill:#010202;" d="M9.008,13.133c0.361-0.031,0.745-0.093,1.088-0.097c0.35-0.014,0.706-0.038,1.036-0.025
					c0.331,0.012,0.686-0.008,0.997,0.031c0.213,0.182,0.425,0.364,0.661,0.512l0.108,0.068l0.142,0.143l5.723,5.773l2.861,2.887
					l0.716,0.722c0.061,0.059,0.117,0.123,0.182,0.178c0.063,0.055,0.159,0.08,0.203,0.155c0.07,0.169,0.084,0.394,0.129,0.588
					c0.159,0.796,0.278,1.632,0.337,2.528c-0.896-0.066-1.729-0.193-2.524-0.359c-0.194-0.046-0.419-0.062-0.587-0.134
					c-0.075-0.044-0.099-0.141-0.154-0.205c-0.055-0.065-0.117-0.122-0.176-0.183l-0.716-0.722l-2.861-2.887l-5.724-5.773l0.25,0.21
					c-0.221-0.171-0.464-0.309-0.707-0.446c-0.145-0.279-0.246-0.619-0.371-0.926c-0.126-0.306-0.226-0.649-0.332-0.982
					C9.175,13.865,9.103,13.483,9.008,13.133z"/>
			</g>
			<g>
				<path style="fill:#010202;" d="M39.298,24.147c1.198-1.956,2.677-3.316,4.172-4.587c0.76-0.611,1.712-0.996,2.533-1.557
					c0.401-0.282,0.765-0.618,0.98-1.014c0.11-0.195,0.181-0.402,0.201-0.598c0.002,0.007,0.008-0.112,0.01-0.156
					c-0.007-0.034,0-0.055-0.012-0.103c-0.01-0.084-0.042-0.17-0.072-0.256c-0.321-0.704-1.211-1.273-2.081-1.667
					c-0.891-0.408-1.856-0.692-2.827-0.94c-1.956-0.461-3.936-0.842-5.912-1.179c-0.989-0.165-1.983-0.289-2.966-0.391
					c-0.472-0.046-1.04-0.105-1.358-0.088c-0.413,0.01-0.854,0.05-1.309,0.104c-1.826,0.242-3.778,0.722-5.732,1.213
					c-1.962,0.493-3.938,1.057-5.962,1.543c-1.009,0.254-2.033,0.479-3.074,0.676c-0.523,0.087-1.047,0.182-1.587,0.23
					c-0.54,0.038-1.082,0.114-1.684-0.079l0.076-0.319c0.431-0.047,0.912-0.291,1.366-0.496c0.458-0.223,0.918-0.445,1.374-0.687
					l2.77-1.404c1.859-0.931,3.769-1.786,5.749-2.541c1.987-0.739,4.036-1.391,6.323-1.625c0.572-0.06,1.166-0.078,1.786-0.042
					c0.716,0.042,1.173,0.141,1.725,0.231c1.064,0.187,2.105,0.434,3.138,0.701c2.064,0.535,4.085,1.244,6.001,2.234
					c0.962,0.482,1.9,1.024,2.804,1.644c0.868,0.651,1.842,1.285,2.342,2.523c0.051,0.159,0.096,0.322,0.109,0.496
					c0.012,0.08,0.011,0.188,0.012,0.283c-0.008,0.085-0.002,0.096-0.022,0.23c-0.054,0.316-0.143,0.606-0.246,0.881
					c-0.21,0.547-0.442,1.067-0.687,1.59c-0.483,1.044-1.051,2.077-1.862,2.806c-0.821,0.717-1.734,1.294-2.714,1.747
					c-0.982,0.447-2.018,0.799-3.193,0.877L39.298,24.147z"/>
			</g>
			<g>
				<path style="fill:#010202;" d="M24.363,10.359c0.59,1.178,1.119,2.373,1.604,3.609c0.118,0.311,0.233,0.624,0.342,0.95
					c0.097,0.337,0.208,0.645,0.245,1.134l0.064,2.004c0.088,1.309,0.124,2.611-0.181,3.887c-0.292,1.277-0.654,2.547-1.387,3.788
					l-0.254-0.021c-0.529-1.338-0.693-2.647-0.791-3.95c-0.041-0.651-0.031-1.297,0.043-1.939c0.072-0.642,0.225-1.277,0.333-1.915
					c0.111-0.625,0.218-1.302,0.28-1.87c0.037-0.159,0.015-0.49-0.008-0.787c-0.02-0.308-0.05-0.625-0.083-0.943l-0.453-3.874
					L24.363,10.359z"/>
			</g>
			<g>
				<path style="fill:#010202;" d="M32.157,8.049c0.625,0.566,1.1,1.135,1.558,1.705c0.054,0.071,0.129,0.142,0.153,0.213
					c0.026,0.072-0.017,0.145-0.028,0.217c-0.01,0.144,0.001,0.288,0.001,0.432l0.014,0.865l0.056,3.458l0.003,0.145l-0.023,0.144
					l-0.73,4.511c-0.109,0.754-0.271,1.499-0.337,2.26c0.025,0.101-0.055,0.184-0.144,0.266l-0.247,0.25l-0.498,0.498
					c-0.35,0.329-0.72,0.655-1.125,0.975c-0.284-0.432-0.532-0.857-0.761-1.28l-0.315-0.63l-0.155-0.314
					c-0.059-0.106-0.108-0.21-0.052-0.298c0.177-0.743,0.259-1.501,0.393-2.251l0.729-4.511l-0.021,0.289l-0.056-3.458l-0.014-0.864
					c-0.006-0.144,0.001-0.289-0.014-0.432c-0.014-0.072-0.059-0.144-0.035-0.216c0.022-0.072,0.095-0.146,0.146-0.219
					C31.095,9.219,31.551,8.636,32.157,8.049z"/>
			</g>
			<path style="fill:none;stroke:#010202;stroke-width:2.5541;stroke-miterlimit:10;" d="M22.472,25.356
				c0,0,3.906-1.559,6.239-2.007s10.033-1.368,11.584,0"/>
		</g>
	</g>
</g>
</svg>
