<?xml version="1.0" encoding="iso-8859-1"?>
<!-- Generator: Adobe Illustrator 15.0.0, SVG Export Plug-In . SVG Version: 6.00 Build 0)  -->
<!DOCTYPE svg PUBLIC "-//W3C//DTD SVG 1.1//EN" "http://www.w3.org/Graphics/SVG/1.1/DTD/svg11.dtd">
<svg version="1.1" id="Manzu" xmlns="http://www.w3.org/2000/svg" xmlns:xlink="http://www.w3.org/1999/xlink" x="0px" y="0px"
	 width="54.224px" height="74.065px" viewBox="0 0 54.224 74.065" style="enable-background:new 0 0 54.224 74.065;"
	 xml:space="preserve">
<g id="_x35_man_1_">
	
		<rect x="0.183" y="0.183" style="fill:#F6F5F1;stroke:#010202;stroke-width:0.3649;stroke-miterlimit:10;" width="53.858" height="73.7"/>
	<g id="_x35_man">
		<g id="MAN_4_">
			<g>
				<path style="fill:#9E1915;" d="M13.23,39.803c2.946,0.352,5.696,1.117,8.096,0.986c1.323-0.04,2.837-0.058,4.229-0.386
					c1.403-0.325,2.738-0.885,4.067-1.511c1.326-0.638,2.699-1.195,4.153-1.551c1.446-0.386,2.959-0.649,4.446-0.688
					c2.976-0.028,5.92,0.381,8.718,1.496l-0.029,0.254c-2.932,0.525-5.764,0.714-8.543,0.974c-1.389,0.115-2.749,0.154-4.128,0.333
					c-1.374,0.199-2.79,0.376-4.233,0.527c-1.441,0.165-2.858,0.46-4.217,0.956c-1.37,0.478-2.625,1.291-4.149,1.703
					c-0.785,0.214-1.666,0.234-2.445,0.1c-0.791-0.115-1.534-0.331-2.244-0.602c-1.409-0.57-2.723-1.298-3.832-2.361L13.23,39.803z"
					/>
			</g>
			<g>
				<path style="fill:#9E1915;" d="M25.094,37.242c0.045-0.309,0.104-0.604,0.173-0.887c0.075-0.277,0.142-0.563,0.24-0.817
					c0.208-0.14,0.364-0.335,0.548-0.5l0.532-0.517l2.633-2.557l-1.134,3.506c-0.118,0.366-0.231,0.823-0.317,1.247
					c-0.089,0.433-0.159,0.871-0.212,1.31s-0.086,0.881-0.102,1.321c0.001,0.11-0.015,0.22,0.001,0.331
					c0.041,0.056-0.013,0.11-0.069,0.165l-0.153,0.167c-0.197,0.226-0.426,0.46-0.673,0.709c-0.271-0.218-0.521-0.451-0.722-0.693
					l-0.155-0.184c-0.057-0.062-0.109-0.124-0.067-0.186c0.017-0.124,0.009-0.247,0.016-0.371c0.018-0.494,0.055-0.987,0.113-1.476
					c0.059-0.49,0.137-0.976,0.235-1.46c0.104-0.492,0.21-0.946,0.379-1.471l1.499,0.949l-0.532,0.517
					c-0.171,0.179-0.37,0.329-0.517,0.534c-0.257,0.09-0.545,0.148-0.824,0.216C25.7,37.157,25.404,37.207,25.094,37.242z"/>
			</g>
			<g>
				<path style="fill:#9E1915;" d="M32.937,28.855c0.149,0.237,0.399,0.406,0.974,0.794c0.269,0.194,0.653,0.486,0.924,0.97
					c0.275,0.487,0.31,1.012,0.269,1.395c-0.095,0.761-0.379,1.298-0.632,1.786c-0.261,0.484-0.538,0.932-0.82,1.375
					c-1.137,1.757-2.354,3.412-3.6,5.052c0.823-1.881,1.619-3.784,2.287-5.691c0.308-0.92,0.68-2.004,0.576-2.58
					c-0.031-0.124-0.08-0.126-0.086-0.072c-0.002,0.048-0.043,0.029-0.213-0.033c-0.309-0.116-1.021-0.343-1.62-0.816L32.937,28.855
					z"/>
			</g>
			<path style="fill:none;stroke:#9E1915;stroke-width:2.5541;stroke-miterlimit:10;" d="M21.871,44.904
				c0,0-0.607,8.392,0.487,9.852"/>
			<g>
				<path style="fill:#9E1915;" d="M20.629,44.839c1.341-0.314,2.678-0.465,3.828-0.784c0.27-0.066,0.566-0.159,0.68-0.247
					c0.187-0.071,0.19-0.108,0.353-0.185l0.402-0.218l1.746-0.859c0.596-0.303,1.216-0.559,1.867-0.802
					c0.659-0.244,1.31-0.485,2.153-0.668c0.216-0.041,0.451-0.069,0.728-0.086c0.3-0.004,0.586-0.035,1.17,0.112l0.208,0.062
					c0.079,0.027,0.19,0.076,0.282,0.121c0.19,0.095,0.36,0.182,0.608,0.404c0.223,0.198,0.412,0.42,0.569,0.728
					c0.076,0.146,0.141,0.301,0.189,0.453c0.034,0.126,0.062,0.258,0.08,0.39c0.018,0.133,0.027,0.267,0.029,0.398l-0.002,0.115
					l-0.003,0.135l-0.017,0.325c-0.053,0.742-0.104,1.389-0.196,2.049c-0.217,1.301-0.396,2.583-0.645,3.841
					c-0.256,1.26-0.525,2.512-0.624,3.48c-0.124,2.452-0.166,5.135-0.631,7.82l-0.252,0.043c-0.462-2.561-0.91-5.118-1.128-7.728
					c-0.116-1.338,0.121-2.633,0.255-3.923l0.499-3.865c0.081-0.642,0.172-1.285,0.229-1.922c0.011-0.14,0.031-0.352,0.021-0.433
					c-0.005-0.052-0.026-0.078-0.147-0.118c-0.233-0.066-0.565-0.033-0.867,0.007c-1.245,0.201-2.484,0.623-3.713,1.022
					l-1.851,0.616c-0.309,0.098-0.628,0.2-0.954,0.272c-0.346,0.07-0.675,0.087-1.008,0.094c-1.323-0.003-2.614-0.183-3.902-0.398
					L20.629,44.839z"/>
			</g>
			<g>
				<path style="fill:#9E1915;" d="M20.994,48.459c1.161-0.013,2.324-0.028,3.46-0.142c0.563-0.061,1.133-0.124,1.631-0.264
					c0.483-0.163,1.104-0.364,1.646-0.527c1.126-0.309,2.212-0.816,3.38-0.949c1.166-0.107,2.37-0.171,3.615,0.29l-0.002,0.183
					c-1.072,0.597-2.144,1.039-3.257,1.349c-1.108,0.313-2.293,0.287-3.43,0.487l-1.742,0.268c-0.644,0.069-1.238,0.051-1.834,0.004
					c-1.185-0.103-2.341-0.269-3.486-0.516L20.994,48.459z"/>
			</g>
			<g>
				<path style="fill:#9E1915;" d="M20.974,52.934c1.065-0.091,2.129-0.179,3.186-0.296c1.046-0.128,2.132-0.245,3.077-0.496
					l1.498-0.542c0.51-0.178,1.006-0.421,1.527-0.573c0.521-0.153,1.074-0.172,1.637-0.143c0.559,0.044,1.154,0.121,1.722,0.457
					l-0.002,0.183c-0.98,0.668-1.906,1.146-2.948,1.342c-0.52,0.08-1.062,0.082-1.589,0.155l-1.606,0.231
					c-1.151,0.152-2.207,0.112-3.29,0.077c-1.075-0.043-2.145-0.107-3.213-0.214L20.974,52.934z"/>
			</g>
			<g>
				<path style="fill:#9E1915;" d="M16.642,51.434c0.721,1.112,1.2,2.256,1.618,3.405c0.408,1.146,0.728,2.319,1.01,3.433
					c0.073,0.297,0.125,0.496,0.221,0.81l0.228,0.9c0.135,0.6,0.25,1.202,0.33,1.814c0.157,1.225,0.234,2.47,0.06,3.786
					c-0.848-1.02-1.452-2.108-1.985-3.214c-0.267-0.553-0.499-1.115-0.721-1.677l-0.313-0.841c-0.094-0.263-0.214-0.648-0.291-0.939
					c-0.312-1.244-0.458-2.458-0.504-3.7C16.261,53.97,16.319,52.72,16.642,51.434z"/>
			</g>
			<g>
				<path style="fill:#9E1915;" d="M11.168,57.493c0.908,0.681,1.951,1.161,2.998,1.357c0.524,0.088,1.056,0.108,1.549,0.03
					c0.483-0.094,1.054-0.259,1.588-0.407c2.18-0.591,4.381-1.194,6.611-1.676c4.46-0.974,9.009-1.724,13.763-1.483
					c1.189,0.095,2.393,0.259,3.607,0.623c1.193,0.37,2.487,0.925,3.468,2.073c0.996,1.15,1.298,2.777,1.057,4.131
					c-0.11,0.715-0.434,1.487-0.971,2.07c-0.539,0.587-1.222,0.942-1.866,1.154c-1.307,0.408-2.541,0.403-3.726,0.306
					c-1.185-0.113-2.326-0.328-3.448-0.587c-1.118-0.279-2.218-0.584-3.304-0.925c-1.091-0.32-2.152-0.726-3.265-0.951
					c1.146-0.043,2.287,0.133,3.413,0.258c1.128,0.134,2.245,0.288,3.36,0.38c1.111,0.108,2.221,0.183,3.3,0.151
					c1.068-0.036,2.143-0.138,2.976-0.501c0.849-0.378,1.224-0.893,1.317-1.686c0.085-0.872-0.137-1.666-0.671-2.216
					c-0.526-0.568-1.38-1-2.341-1.263c-0.961-0.273-2.017-0.401-3.082-0.472c-2.143-0.167-4.359-0.042-6.57,0.138
					c-2.219,0.161-4.437,0.473-6.668,0.753l-6.718,0.946c-0.577,0.064-1.114,0.141-1.758,0.165
					c-0.637-0.002-1.245-0.118-1.811-0.334C12.847,59.101,11.896,58.37,11.168,57.493z"/>
			</g>
			<g>
				<path style="fill:#9E1915;" d="M26.943,44.114c-0.336,0.746-0.322,1.554-0.366,2.347c-0.037,0.794-0.027,1.594-0.033,2.391
					c0.017,1.596,0.02,3.191,0.062,4.786c0.012,1.595,0.058,3.189,0.106,4.778l0.114,2.414l0.021,1.225l0.001,0.15l0.001,0.071
					c0,0.009,0.002,0.023-0.002,0.02l-0.015-0.026c-0.065,0.016,0.143-0.06-0.267-0.071c-0.103,0.072-0.084,0.105-0.099,0.142
					c-0.002,0.021,0.001,0.018,0.002,0.016c0.015-0.078,0.019-0.192,0.027-0.291l0.058-0.619l0.217,0.586
					c0.032,0.103,0.062,0.19,0.089,0.314c0.001,0.011,0.004,0.021,0.001,0.054c-0.017,0.04,0.002,0.077-0.103,0.149
					c-0.413-0.011-0.205-0.091-0.272-0.078l-0.021-0.043l-0.022-0.053l-0.032-0.078l-0.06-0.148c-0.15-0.389-0.272-0.78-0.406-1.169
					c-0.236-0.78-0.482-1.565-0.644-2.39c-0.347-1.63-0.473-3.278-0.518-4.924c-0.007-1.646,0.069-3.296,0.349-4.932
					c0.129-0.818,0.318-1.632,0.569-2.433C25.986,45.531,26.256,44.651,26.943,44.114z"/>
			</g>
			<g>
				<path style="fill:#9E1915;" d="M21.718,62.28c0.139,0.205,0.255,0.415,0.375,0.623l-0.489-0.254
					c1.436-0.904,2.948-1.661,4.484-2.432c0.755-0.42,1.561-0.702,2.394-0.831c0.829-0.144,1.667-0.237,2.6-0.155l0.066,0.17
					c-0.625,0.7-1.364,1.176-2.121,1.575c-0.753,0.413-1.537,0.661-2.354,0.825c-1.609,0.389-3.169,0.98-4.776,1.48l-0.56,0.174
					l0.07-0.428c0.039-0.237,0.073-0.474,0.131-0.715L21.718,62.28z"/>
			</g>
		</g>
		<g>
			<g>
				<path style="fill:#010202;" d="M6.02,26.405c1.905-1.007,3.758-2.113,5.482-3.361c1.717-1.229,3.38-2.61,4.488-4.246
					c0.531-0.779,0.888-1.776,1.282-2.716c0.378-0.952,0.749-1.899,1.087-2.865c0.652-1.943,1.149-3.934,1.277-6.116l0.213-0.048
					c1,2.066,0.976,4.489,0.55,6.706c-0.44,2.269-1.438,4.292-2.94,6.164c-1.562,1.779-3.439,3.001-5.352,4.083
					c-1.939,1.04-3.937,1.921-6.006,2.602L6.02,26.405z"/>
			</g>
			<g>
				<path style="fill:#010202;" d="M43.877,7.255c-1.788,0.032-3.551-0.03-5.265-0.045l-1.26,0.011
					c-0.386,0.015-0.897,0.028-0.962,0.109c-0.562,0.202-1.377,0.609-2.134,0.978c-1.558,0.753-3.175,1.567-5.031,2.083
					c-1.936,0.513-3.843,0.519-5.827,0.08l-0.234-0.052l-0.034-0.02c-0.804-0.458-1.595-0.945-2.407-1.38l1.081-0.964
					c0.207,1.994,0.551,3.875,0.764,5.86c0.061,0.497,0.09,1,0.1,1.521c0.013,0.524-0.009,1.062-0.165,1.664
					c-0.062,0.281-0.239,0.667-0.403,0.905c-0.146,0.226-0.19,0.347-0.3,0.56c-0.186,0.391-0.352,0.808-0.499,1.23
					c-0.292,0.847-0.514,1.722-0.667,2.564c-0.137,0.831-0.221,1.693-0.079,2.231c0.054,0.276,0.167,0.361,0.154,0.316
					c-0.005-0.018-0.011-0.044,0.001-0.04c-0.096-0.042,0.261,0.075,0.184,0.031c0.002-0.005,0.004-0.008,0.005-0.008l0.067-0.002
					c0.343,0.003,1.022-0.23,1.78-0.645c1.516-0.818,3.385-2.031,5.763-2.424c0.582-0.101,1.215-0.14,1.797-0.11
					c0.672,0.036,1.178,0.123,1.716,0.232c1.046,0.233,2.01,0.537,2.959,0.86c3.749,1.368,7.212,3.148,10.468,5.364l-0.145,0.335
					c-3.828-0.777-7.553-1.792-11.204-2.539c-0.904-0.189-1.811-0.351-2.663-0.43c-0.41-0.045-0.861-0.074-1.152-0.06
					c-0.379,0.02-0.708,0.064-1.072,0.14c-1.444,0.302-2.907,1.18-4.831,2.043c-0.489,0.214-1.017,0.428-1.626,0.596
					c-0.613,0.161-1.328,0.281-2.112,0.183l-0.291-0.042l-0.349-0.08c-0.314-0.084-0.183-0.059-0.509-0.169
					c-0.432-0.18-0.864-0.445-1.208-0.809c-0.69-0.734-0.927-1.602-0.996-2.273c-0.108-1.378,0.164-2.451,0.519-3.47
					c0.355-1.013,0.83-1.939,1.375-2.824c0.273-0.442,0.565-0.874,0.894-1.295c0.152-0.189,0.374-0.47,0.529-0.62
					c0.143-0.134,0.197-0.177,0.299-0.347c0.353-0.635,0.463-1.615,0.465-2.524c-0.021-1.857-0.41-3.772-1.134-5.508l-0.583-1.399
					l1.664,0.436c0.892,0.233,1.803,0.416,2.702,0.626l-0.268-0.071c0.702-0.035,1.559-0.114,2.314-0.271
					c0.776-0.137,1.527-0.322,2.258-0.547c1.509-0.464,3.093-1.098,4.754-1.713c0.858-0.299,1.648-0.62,2.798-0.805
					c0.799-0.095,1.171,0.042,1.656,0.096c0.462,0.075,0.911,0.164,1.351,0.282c1.758,0.44,3.439,1.028,5.073,1.795L43.877,7.255z"
					/>
			</g>
			<g>
				<path style="fill:#010202;" d="M21.717,17.495c1.114-0.448,2.197-0.694,3.206-0.939c0.491-0.125,1.001-0.244,1.314-0.381
					c0.068-0.029,0.132-0.064,0.115-0.071c-0.004-0.001,0.001-0.004-0.023,0.005l-0.025,0.012l-0.012,0.007l-0.003,0.002
					c0.014-0.01-0.034,0.025,0.031-0.023l0.003-0.002l0.01-0.008c0.047-0.039,0.105-0.085,0.207-0.155
					c0.314-0.229,0.551-0.342,0.836-0.446c0.549-0.201,1.174-0.184,1.774-0.208c0.6-0.023,1.154-0.129,1.638-0.39
					c0.997-0.453,1.698-1.555,2.625-2.198l1.85-1.285l0.138,2.783l0.108,2.188c0.034,0.729-0.002,1.446-0.089,2.158
					c-0.082,0.713-0.184,1.418-0.305,2.135c-0.096,0.72-0.243,1.418-0.254,2.27l-0.273,0.181c-0.846-0.445-1.377-1.267-1.753-2.045
					c-0.387-0.793-0.608-1.62-0.738-2.438c-0.135-0.819-0.143-1.637-0.029-2.438c0.116-0.808,0.289-1.573,0.501-2.391l1.987,1.499
					c-1.073,0.234-2.365,0.025-3.353,0.484c-0.509,0.195-0.944,0.551-1.33,0.998c-0.384,0.447-0.741,0.942-1.16,1.247
					c-0.198,0.15-0.443,0.294-0.594,0.354c-0.015,0-0.068,0.03-0.134,0.07l-0.011,0.006l-0.003,0.001
					c0.064-0.046,0.014-0.01,0.026-0.02l-0.014,0.009l-0.055,0.035l-0.112,0.067c-0.081,0.048-0.139,0.072-0.204,0.101
					c-0.261,0.115-0.459,0.162-0.653,0.205c-0.747,0.133-1.333,0.097-1.931,0.028c-1.173-0.156-2.276-0.477-3.34-1.083
					L21.717,17.495z"/>
			</g>
			<path style="fill:none;stroke:#010202;stroke-width:2.5541;stroke-miterlimit:10;" d="M29.519,8.949c0,0-3.251,3.499-3.549,8.43
				c-0.298,4.932-3.611,8.58-3.611,8.58"/>
		</g>
	</g>
</g>
</svg>
