<?xml version="1.0" encoding="iso-8859-1"?>
<!-- Generator: Adobe Illustrator 15.0.0, SVG Export Plug-In . SVG Version: 6.00 Build 0)  -->
<!DOCTYPE svg PUBLIC "-//W3C//DTD SVG 1.1//EN" "http://www.w3.org/Graphics/SVG/1.1/DTD/svg11.dtd">
<svg version="1.1" id="Pinzu" xmlns="http://www.w3.org/2000/svg" xmlns:xlink="http://www.w3.org/1999/xlink" x="0px" y="0px"
	 width="54.224px" height="74.066px" viewBox="0 0 54.224 74.066" style="enable-background:new 0 0 54.224 74.066;"
	 xml:space="preserve">
<g id="_x36_pin_1_">
	
		<rect x="0.183" y="0.183" style="fill:#F6F5F1;stroke:#010202;stroke-width:0.3649;stroke-miterlimit:10;" width="53.858" height="73.701"/>
	<g id="Point_25_">
		<g>
			<path style="fill:#1F233B;" d="M35.243,32.226c-4.491,0-8.132,3.641-8.132,8.131c0,4.491,3.641,8.132,8.132,8.132
				s8.132-3.641,8.132-8.132C43.375,35.866,39.734,32.226,35.243,32.226z M35.243,46.47c-3.376,0-6.113-2.737-6.113-6.113
				c0-3.376,2.737-6.113,6.113-6.113s6.113,2.737,6.113,6.113C41.356,43.733,38.619,46.47,35.243,46.47z"/>
			<path style="fill:#1F233B;" d="M40.431,38.671c-0.931-2.865-4.008-4.433-6.873-3.502c-2.865,0.931-4.434,4.008-3.503,6.874
				c0.932,2.866,4.009,4.434,6.874,3.502S41.362,41.537,40.431,38.671z M35.243,35.83c0.589,0,1.15,0.112,1.667,0.316l-0.607,1.534
				c-0.328-0.13-0.686-0.202-1.06-0.202s-0.731,0.071-1.059,0.201l-0.607-1.533C34.093,35.942,34.655,35.83,35.243,35.83z
				 M30.938,38.958c0.182-0.56,0.462-1.06,0.815-1.487l1.271,1.051c-0.225,0.272-0.403,0.59-0.52,0.946
				c-0.115,0.356-0.158,0.718-0.136,1.07l-1.646,0.103C30.688,40.087,30.756,39.518,30.938,38.958z M34.116,44.743
				c-0.538-0.138-1.058-0.377-1.534-0.723s-0.865-0.767-1.162-1.236l1.392-0.884c0.189,0.298,0.437,0.566,0.739,0.786
				c0.303,0.22,0.634,0.373,0.976,0.46L34.116,44.743z M35.243,42.175c-1.004,0-1.818-0.814-1.818-1.818
				c0-1.004,0.814-1.818,1.818-1.818s1.818,0.814,1.818,1.818C37.062,41.361,36.247,42.175,35.243,42.175z M37.904,44.02
				c-0.477,0.347-0.997,0.586-1.534,0.724l-0.41-1.597c0.342-0.088,0.673-0.24,0.976-0.46c0.302-0.22,0.55-0.487,0.738-0.785
				l1.393,0.884C38.769,43.253,38.38,43.674,37.904,44.02z M39.763,40.641l-1.646-0.104c0.022-0.352-0.02-0.714-0.136-1.07
				c-0.116-0.355-0.294-0.673-0.519-0.945l1.271-1.051c0.354,0.427,0.634,0.927,0.815,1.486
				C39.731,39.518,39.798,40.087,39.763,40.641z"/>
		</g>
		<circle style="fill:#FFFFFF;" cx="35.243" cy="40.357" r="0.707"/>
	</g>
	<g id="Point_24_">
		<g>
			<path style="fill:#1F233B;" d="M35.243,48.489c-4.491,0-8.132,3.641-8.132,8.132s3.641,8.132,8.132,8.132
				s8.132-3.641,8.132-8.132S39.734,48.489,35.243,48.489z M35.243,62.734c-3.376,0-6.113-2.737-6.113-6.113
				c0-3.376,2.737-6.113,6.113-6.113s6.113,2.737,6.113,6.113C41.356,59.997,38.619,62.734,35.243,62.734z"/>
			<path style="fill:#1F233B;" d="M40.431,54.935c-0.931-2.865-4.008-4.433-6.873-3.502c-2.865,0.932-4.434,4.008-3.503,6.874
				c0.932,2.865,4.009,4.433,6.874,3.502S41.362,57.801,40.431,54.935z M35.243,52.093c0.589,0,1.15,0.112,1.667,0.316l-0.607,1.534
				c-0.328-0.13-0.686-0.201-1.06-0.201s-0.731,0.071-1.059,0.201l-0.607-1.534C34.093,52.206,34.655,52.093,35.243,52.093z
				 M30.938,55.222c0.182-0.56,0.462-1.06,0.815-1.487l1.271,1.051c-0.225,0.272-0.403,0.59-0.52,0.946
				c-0.115,0.356-0.158,0.718-0.136,1.07l-1.646,0.103C30.688,56.351,30.756,55.781,30.938,55.222z M34.116,61.007
				c-0.538-0.138-1.058-0.377-1.534-0.723s-0.865-0.767-1.162-1.236l1.392-0.884c0.189,0.298,0.437,0.566,0.739,0.786
				c0.303,0.22,0.634,0.372,0.976,0.46L34.116,61.007z M35.243,58.439c-1.004,0-1.818-0.814-1.818-1.818
				c0-1.004,0.814-1.818,1.818-1.818s1.818,0.814,1.818,1.818C37.062,57.625,36.247,58.439,35.243,58.439z M37.904,60.283
				c-0.477,0.347-0.997,0.586-1.534,0.724l-0.41-1.597c0.342-0.088,0.673-0.24,0.976-0.46c0.302-0.22,0.55-0.488,0.738-0.785
				l1.393,0.884C38.769,59.517,38.38,59.938,37.904,60.283z M39.763,56.905l-1.646-0.104c0.022-0.352-0.02-0.714-0.136-1.07
				c-0.116-0.355-0.294-0.673-0.519-0.945l1.271-1.051c0.354,0.427,0.634,0.927,0.815,1.486
				C39.731,55.782,39.798,56.351,39.763,56.905z"/>
		</g>
		<circle style="fill:#FFFFFF;" cx="35.243" cy="56.621" r="0.707"/>
	</g>
	<g id="Point_23_">
		<g>
			<path style="fill:#1F233B;" d="M18.979,32.226c-4.491,0-8.132,3.641-8.132,8.131c0,4.491,3.641,8.132,8.132,8.132
				s8.132-3.641,8.132-8.132C27.111,35.866,23.471,32.226,18.979,32.226z M18.979,46.47c-3.376,0-6.113-2.737-6.113-6.113
				c0-3.376,2.737-6.113,6.113-6.113s6.113,2.737,6.113,6.113C25.093,43.733,22.355,46.47,18.979,46.47z"/>
			<path style="fill:#1F233B;" d="M24.168,38.671c-0.932-2.865-4.009-4.433-6.874-3.502c-2.865,0.931-4.434,4.008-3.502,6.874
				c0.931,2.866,4.008,4.434,6.873,3.502S25.099,41.537,24.168,38.671z M18.979,35.83c0.589,0,1.151,0.112,1.667,0.316l-0.607,1.534
				c-0.327-0.13-0.685-0.202-1.06-0.202c-0.374,0-0.731,0.071-1.059,0.201l-0.607-1.533C17.829,35.942,18.392,35.83,18.979,35.83z
				 M14.674,38.958c0.182-0.56,0.462-1.06,0.815-1.487l1.271,1.051c-0.225,0.272-0.403,0.59-0.52,0.946
				c-0.115,0.356-0.158,0.718-0.136,1.07L14.46,40.64C14.425,40.087,14.492,39.518,14.674,38.958z M17.853,44.743
				c-0.538-0.138-1.058-0.377-1.534-0.723s-0.865-0.767-1.162-1.236l1.392-0.884c0.189,0.298,0.437,0.566,0.739,0.786
				c0.303,0.22,0.634,0.373,0.976,0.46L17.853,44.743z M18.979,42.175c-1.004,0-1.818-0.814-1.818-1.818
				c0-1.004,0.814-1.818,1.818-1.818s1.818,0.814,1.818,1.818C20.798,41.361,19.983,42.175,18.979,42.175z M21.641,44.02
				c-0.476,0.347-0.997,0.586-1.534,0.724l-0.41-1.597c0.342-0.088,0.673-0.24,0.976-0.46c0.303-0.22,0.55-0.487,0.738-0.785
				l1.393,0.884C22.505,43.253,22.116,43.674,21.641,44.02z M23.499,40.641l-1.646-0.104c0.022-0.352-0.02-0.714-0.136-1.07
				c-0.115-0.355-0.294-0.673-0.519-0.945l1.271-1.051c0.354,0.427,0.634,0.927,0.815,1.486
				C23.468,39.518,23.535,40.087,23.499,40.641z"/>
		</g>
		<circle style="fill:#FFFFFF;" cx="18.979" cy="40.357" r="0.707"/>
	</g>
	<g id="Point_22_">
		<g>
			<path style="fill:#1F233B;" d="M18.979,48.489c-4.491,0-8.132,3.641-8.132,8.132s3.641,8.132,8.132,8.132
				s8.132-3.641,8.132-8.132S23.471,48.489,18.979,48.489z M18.979,62.734c-3.376,0-6.113-2.737-6.113-6.113
				c0-3.376,2.737-6.113,6.113-6.113s6.113,2.737,6.113,6.113C25.093,59.997,22.355,62.734,18.979,62.734z"/>
			<path style="fill:#1F233B;" d="M24.168,54.935c-0.932-2.865-4.009-4.433-6.874-3.502c-2.865,0.932-4.434,4.008-3.502,6.874
				c0.931,2.865,4.008,4.433,6.873,3.502S25.099,57.801,24.168,54.935z M18.979,52.093c0.589,0,1.151,0.112,1.667,0.316
				l-0.607,1.534c-0.327-0.13-0.685-0.201-1.06-0.201c-0.374,0-0.731,0.071-1.059,0.201l-0.607-1.534
				C17.829,52.206,18.392,52.093,18.979,52.093z M14.674,55.222c0.182-0.56,0.462-1.06,0.815-1.487l1.271,1.051
				c-0.225,0.272-0.403,0.59-0.52,0.946c-0.115,0.356-0.158,0.718-0.136,1.07l-1.646,0.103
				C14.425,56.351,14.492,55.781,14.674,55.222z M17.853,61.007c-0.538-0.138-1.058-0.377-1.534-0.723s-0.865-0.767-1.162-1.236
				l1.392-0.884c0.189,0.298,0.437,0.566,0.739,0.786c0.303,0.22,0.634,0.372,0.976,0.46L17.853,61.007z M18.979,58.439
				c-1.004,0-1.818-0.814-1.818-1.818c0-1.004,0.814-1.818,1.818-1.818s1.818,0.814,1.818,1.818
				C20.798,57.625,19.983,58.439,18.979,58.439z M21.641,60.283c-0.476,0.347-0.997,0.586-1.534,0.724l-0.41-1.597
				c0.342-0.088,0.673-0.24,0.976-0.46s0.55-0.488,0.738-0.785l1.393,0.884C22.505,59.517,22.116,59.938,21.641,60.283z
				 M23.499,56.905l-1.646-0.104c0.022-0.352-0.02-0.714-0.136-1.07c-0.115-0.355-0.294-0.673-0.519-0.945l1.271-1.051
				c0.354,0.427,0.634,0.927,0.815,1.486C23.468,55.782,23.535,56.351,23.499,56.905z"/>
		</g>
		<circle style="fill:#FFFFFF;" cx="18.979" cy="56.621" r="0.707"/>
	</g>
	<g id="Point_21_">
		<g>
			<path style="fill:#801927;" d="M35.243,9.146c-4.491,0-8.132,3.641-8.132,8.132s3.641,8.132,8.132,8.132s8.132-3.641,8.132-8.132
				S39.734,9.146,35.243,9.146z M35.243,23.392c-3.376,0-6.113-2.737-6.113-6.113c0-3.376,2.737-6.113,6.113-6.113
				s6.113,2.737,6.113,6.113C41.356,20.655,38.619,23.392,35.243,23.392z"/>
			<path style="fill:#801927;" d="M40.431,15.593c-0.931-2.865-4.008-4.433-6.873-3.502c-2.865,0.931-4.434,4.008-3.503,6.874
				c0.932,2.866,4.009,4.434,6.874,3.502S41.362,18.458,40.431,15.593z M35.243,12.751c0.589,0,1.15,0.112,1.667,0.316l-0.607,1.533
				c-0.328-0.13-0.686-0.201-1.06-0.201s-0.731,0.071-1.059,0.201l-0.607-1.533C34.093,12.863,34.655,12.751,35.243,12.751z
				 M30.938,15.879c0.182-0.56,0.462-1.06,0.815-1.487l1.271,1.051c-0.225,0.272-0.403,0.59-0.52,0.946
				c-0.115,0.356-0.158,0.718-0.136,1.07l-1.646,0.103C30.688,17.008,30.756,16.438,30.938,15.879z M34.116,21.665
				c-0.538-0.138-1.058-0.377-1.534-0.723c-0.477-0.346-0.865-0.768-1.162-1.236l1.392-0.883c0.189,0.297,0.437,0.566,0.739,0.786
				s0.634,0.372,0.976,0.46L34.116,21.665z M35.243,19.097c-1.004,0-1.818-0.814-1.818-1.818s0.814-1.818,1.818-1.818
				s1.818,0.814,1.818,1.818S36.247,19.097,35.243,19.097z M37.904,20.941c-0.477,0.347-0.997,0.586-1.534,0.724l-0.41-1.597
				c0.342-0.088,0.673-0.24,0.976-0.46c0.302-0.22,0.55-0.488,0.738-0.785l1.393,0.884C38.769,20.174,38.38,20.595,37.904,20.941z
				 M39.763,17.562l-1.646-0.104c0.022-0.352-0.02-0.714-0.136-1.07c-0.116-0.355-0.294-0.673-0.519-0.945l1.271-1.051
				c0.354,0.427,0.634,0.927,0.815,1.486C39.731,16.439,39.798,17.009,39.763,17.562z"/>
		</g>
		<circle style="fill:#FFFFFF;" cx="35.243" cy="17.278" r="0.707"/>
	</g>
	<g id="Point_20_">
		<g>
			<path style="fill:#801927;" d="M18.979,9.146c-4.491,0-8.132,3.641-8.132,8.132s3.641,8.132,8.132,8.132s8.132-3.641,8.132-8.132
				S23.471,9.146,18.979,9.146z M18.979,23.392c-3.376,0-6.113-2.737-6.113-6.113c0-3.376,2.737-6.113,6.113-6.113
				s6.113,2.737,6.113,6.113C25.093,20.655,22.355,23.392,18.979,23.392z"/>
			<path style="fill:#801927;" d="M24.168,15.593c-0.932-2.865-4.009-4.433-6.874-3.502c-2.865,0.931-4.434,4.008-3.502,6.874
				c0.931,2.866,4.008,4.434,6.873,3.502S25.099,18.458,24.168,15.593z M18.979,12.751c0.589,0,1.151,0.112,1.667,0.316
				l-0.607,1.533c-0.327-0.13-0.685-0.201-1.06-0.201c-0.374,0-0.731,0.071-1.059,0.201l-0.607-1.533
				C17.829,12.863,18.392,12.751,18.979,12.751z M14.674,15.879c0.182-0.56,0.462-1.06,0.815-1.487l1.271,1.051
				c-0.225,0.272-0.403,0.59-0.52,0.946c-0.115,0.356-0.158,0.718-0.136,1.07l-1.646,0.103
				C14.425,17.008,14.492,16.438,14.674,15.879z M17.853,21.665c-0.538-0.138-1.058-0.377-1.534-0.723
				c-0.477-0.346-0.865-0.768-1.162-1.236l1.392-0.883c0.189,0.297,0.437,0.566,0.739,0.786s0.634,0.372,0.976,0.46L17.853,21.665z
				 M18.979,19.097c-1.004,0-1.818-0.814-1.818-1.818s0.814-1.818,1.818-1.818s1.818,0.814,1.818,1.818S19.983,19.097,18.979,19.097
				z M21.641,20.941c-0.476,0.347-0.997,0.586-1.534,0.724l-0.41-1.597c0.342-0.088,0.673-0.24,0.976-0.46
				c0.303-0.22,0.55-0.488,0.738-0.785l1.393,0.884C22.505,20.174,22.116,20.595,21.641,20.941z M23.499,17.562l-1.646-0.104
				c0.022-0.352-0.02-0.714-0.136-1.07c-0.115-0.355-0.294-0.673-0.519-0.945l1.271-1.051c0.354,0.427,0.634,0.927,0.815,1.486
				C23.468,16.439,23.535,17.009,23.499,17.562z"/>
		</g>
		<circle style="fill:#FFFFFF;" cx="18.979" cy="17.278" r="0.707"/>
	</g>
</g>
</svg>
