<?xml version="1.0" encoding="iso-8859-1"?>
<!-- Generator: Adobe Illustrator 15.0.0, SVG Export Plug-In . SVG Version: 6.00 Build 0)  -->
<!DOCTYPE svg PUBLIC "-//W3C//DTD SVG 1.1//EN" "http://www.w3.org/Graphics/SVG/1.1/DTD/svg11.dtd">
<svg version="1.1" id="Souzu" xmlns="http://www.w3.org/2000/svg" xmlns:xlink="http://www.w3.org/1999/xlink" x="0px" y="0px"
	 width="54.224px" height="74.066px" viewBox="0 0 54.224 74.066" style="enable-background:new 0 0 54.224 74.066;"
	 xml:space="preserve">
<g id="_x38_sou">
	
		<rect x="0.183" y="0.183" style="fill:#F6F5F1;stroke:#010202;stroke-width:0.3649;stroke-miterlimit:10;" width="53.858" height="73.701"/>
	<path style="fill:#003C14;" d="M48.965,53.725c0-1.267-0.862-2.4-2.221-3.169v-5.808c1.358-0.598,2.221-1.479,2.221-2.464
		c0-1.802-2.873-3.262-6.416-3.262c-3.544,0-6.416,1.46-6.416,3.262c0,0.417,0.162,0.813,0.442,1.179l-0.709,0.663l0,0l-2.696,2.519
		c-0.991-0.308-1.935-0.21-2.554,0.367c-0.616,0.577-0.778,1.513-0.538,2.522l-2.967,2.772v0.001l-0.002-0.002l-2.965-2.771
		c0.24-1.01,0.078-1.945-0.538-2.522c-0.619-0.577-1.562-0.675-2.554-0.367l-2.696-2.519l0,0l-0.788-0.736
		c0.246-0.345,0.385-0.717,0.385-1.105c0-1.802-2.872-3.262-6.416-3.262c-3.543,0-6.415,1.46-6.415,3.262
		c0,0.985,0.861,1.866,2.22,2.464v5.808c-1.358,0.769-2.22,1.902-2.22,3.169c0,1.267,0.861,2.4,2.22,3.169v6.255
		c-1.358,0.599-2.22,1.479-2.22,2.464c0,1.117,1.229,2.691,2.788,2.691s2.281-1.253,3.627-1.253c1.347,0,2.067,1.253,3.628,1.253
		c1.559,0,2.788-1.574,2.788-2.691c0-0.984-0.862-1.865-2.22-2.464v-6.255c1.357-0.77,2.22-1.903,2.22-3.169
		c0-0.129-0.015-0.255-0.032-0.38c0.616,0.477,1.494,0.548,2.418,0.261l2.653,2.479c-0.647,0.512-1.032,1.148-1.032,1.839
		c0,1.696,2.306,2.34,5.151,2.34c2.845,0,5.151-0.645,5.151-2.34c0-0.691-0.385-1.327-1.032-1.839l2.653-2.479
		c0.852,0.265,1.667,0.227,2.271-0.155c-0.009,0.091-0.022,0.181-0.022,0.274c0,1.267,0.862,2.4,2.22,3.169v6.255
		c-1.357,0.599-2.22,1.479-2.22,2.464c0,1.117,1.229,2.691,2.789,2.691s2.28-1.253,3.627-1.253c1.346,0,2.067,1.253,3.627,1.253
		s2.789-1.574,2.789-2.691c0-0.984-0.862-1.865-2.221-2.464v-6.255C48.103,56.125,48.965,54.992,48.965,53.725z M11.537,40.848
		c1.067,0,1.932,0.817,1.932,1.824c0,0.596-0.308,1.121-0.775,1.454v5.525h-2.312v-5.525c-0.468-0.333-0.775-0.857-0.775-1.454
		C9.606,41.665,10.471,40.848,11.537,40.848z M12.693,65.386h-2.312v-8.803h2.312V65.386z M11.537,55.397
		c-1.066,0-1.931-0.388-1.931-0.867s0.864-0.867,1.931-0.867c1.067,0,1.932,0.388,1.932,0.867S12.604,55.397,11.537,55.397z
		 M11.537,52.798c-1.066,0-1.931-0.388-1.931-0.867s0.864-0.867,1.931-0.867c1.067,0,1.932,0.388,1.932,0.867
		S12.604,52.798,11.537,52.798z M15.733,50.556v-1.253l1.514,1.415c-0.081,0.341-0.112,0.673-0.1,0.986
		C16.779,51.269,16.304,50.878,15.733,50.556z M18.185,48.829l-2.096-1.958l-0.355-0.332v-1.791
		c0.076-0.034,0.146-0.071,0.219-0.107l1.591,1.487l1.69,1.579L18.185,48.829z M19.617,51.218c-0.377-0.353-0.213-1.141,0.365-1.76
		c0.579-0.619,1.354-0.836,1.731-0.483c0.378,0.353,0.214,1.142-0.364,1.761C20.771,51.354,19.995,51.571,19.617,51.218z
		 M29.278,55.145L29.278,55.145L28.364,56v2.29h-2.506V56l-0.914-0.854h-0.001l-3.378-3.157l1.049-1.121l4.498,4.202l4.496-4.202
		l1.048,1.121L29.278,55.145z M34.605,51.218c-0.378,0.353-1.153,0.136-1.732-0.483c-0.578-0.619-0.742-1.408-0.364-1.761
		c0.377-0.353,1.152-0.136,1.731,0.483C34.818,50.077,34.982,50.866,34.605,51.218z M34.989,47.707l1.689-1.579l1.545-1.443
		c0.044,0.021,0.084,0.043,0.129,0.063v1.918l-0.219,0.205l-2.097,1.958L34.989,47.707z M37.077,51.539
		c-0.002-0.264-0.035-0.54-0.103-0.822l1.378-1.288v1.126C37.854,50.838,37.424,51.17,37.077,51.539z M43.704,65.386h-2.312v-8.803
		h2.312V65.386z M42.549,55.397c-1.066,0-1.932-0.388-1.932-0.867s0.865-0.867,1.932-0.867s1.931,0.388,1.931,0.867
		S43.615,55.397,42.549,55.397z M42.549,52.798c-1.066,0-1.932-0.388-1.932-0.867s0.865-0.867,1.932-0.867s1.931,0.388,1.931,0.867
		S43.615,52.798,42.549,52.798z M43.704,44.126v5.525h-2.312v-5.525c-0.468-0.333-0.775-0.857-0.775-1.454
		c0-1.007,0.865-1.824,1.932-1.824s1.931,0.817,1.931,1.824C44.479,43.269,44.172,43.793,43.704,44.126z"/>
	<path style="fill:#003C14;" d="M48.965,19.004c0-1.267-0.862-2.4-2.221-3.169v-5.808c1.358-0.598,2.221-1.479,2.221-2.464
		c0-1.802-2.873-3.262-6.416-3.262c-3.544,0-6.416,1.46-6.416,3.262c0,0.985,0.862,1.866,2.22,2.464v5.808
		c-1.357,0.769-2.22,1.903-2.22,3.169c0,0.227,0.036,0.446,0.089,0.663c-0.61-0.423-1.454-0.473-2.338-0.199l-2.653-2.479
		c0.647-0.512,1.032-1.148,1.032-1.839c0-1.696-2.307-2.34-5.151-2.34c-2.846,0-5.151,0.645-5.151,2.34
		c0,0.691,0.385,1.328,1.032,1.839l-2.653,2.479c-0.97-0.301-1.892-0.211-2.51,0.333c0.077-0.258,0.124-0.524,0.124-0.797
		c0-1.267-0.862-2.4-2.22-3.169v-5.808c1.357-0.598,2.22-1.479,2.22-2.464c0-1.802-2.872-3.262-6.416-3.262
		c-3.543,0-6.415,1.46-6.415,3.262c0,0.985,0.861,1.866,2.22,2.464v5.808c-1.358,0.769-2.22,1.903-2.22,3.169
		c0,1.267,0.861,2.4,2.22,3.169v6.255c-1.358,0.598-2.22,1.479-2.22,2.464c0,1.117,1.229,2.691,2.788,2.691s2.281-1.253,3.627-1.253
		c1.347,0,2.067,1.253,3.628,1.253c1.559,0,2.788-1.574,2.788-2.691c0-0.412-0.157-0.803-0.432-1.165l0.835-0.78v0l2.696-2.519
		c0.991,0.308,1.935,0.21,2.554-0.367c0.616-0.578,0.778-1.513,0.538-2.522l2.965-2.771l0.002-0.002v0.001l2.967,2.772
		c-0.24,1.01-0.078,1.945,0.538,2.522c0.619,0.577,1.562,0.675,2.554,0.367l2.696,2.519v0l0.756,0.707
		c-0.31,0.382-0.489,0.798-0.489,1.238c0,1.117,1.229,2.691,2.789,2.691s2.28-1.253,3.627-1.253c1.346,0,2.067,1.253,3.627,1.253
		s2.789-1.574,2.789-2.691c0-0.985-0.862-1.866-2.221-2.464v-6.255C48.103,21.405,48.965,20.271,48.965,19.004z M17.189,20.975
		c-0.078,0.422-0.059,0.893,0.058,1.382l-1.514,1.415v-1.598C16.326,21.838,16.816,21.43,17.189,20.975z M11.537,6.127
		c1.067,0,1.932,0.817,1.932,1.824c0,0.596-0.308,1.121-0.775,1.454v5.524h-2.312V9.406C9.914,9.073,9.606,8.548,9.606,7.952
		C9.606,6.944,10.471,6.127,11.537,6.127z M11.537,16.344c1.067,0,1.932,0.388,1.932,0.867s-0.864,0.867-1.932,0.867
		c-1.066,0-1.931-0.388-1.931-0.867S10.471,16.344,11.537,16.344z M12.693,30.665h-2.312v-8.802h2.312V30.665z M11.537,20.676
		c-1.066,0-1.931-0.388-1.931-0.867s0.864-0.867,1.931-0.867c1.067,0,1.932,0.388,1.932,0.867S12.604,20.676,11.537,20.676z
		 M17.543,26.946L15.879,28.5c-0.05-0.023-0.095-0.049-0.146-0.071v-1.894l0.355-0.332l2.096-1.958l1.049,1.122L17.543,26.946z
		 M21.714,24.099c-0.377,0.353-1.152,0.136-1.731-0.483c-0.578-0.62-0.742-1.408-0.365-1.761c0.378-0.353,1.153-0.136,1.732,0.483
		C21.928,22.958,22.092,23.746,21.714,24.099z M31.608,22.207l-4.496-4.201l-4.498,4.201l-1.049-1.121l3.378-3.157h0.001
		l0.914-0.854v-2.29h2.506v2.29l0.914,0.854l0,0l3.378,3.157L31.608,22.207z M34.24,23.616c-0.579,0.619-1.354,0.836-1.731,0.483
		c-0.378-0.353-0.214-1.141,0.364-1.76c0.579-0.62,1.354-0.836,1.732-0.483C34.982,22.208,34.818,22.997,34.24,23.616z
		 M38.353,23.644l-1.378-1.287c0.099-0.414,0.126-0.814,0.085-1.184c0.35,0.376,0.787,0.714,1.293,1V23.644z M34.989,25.367
		l1.048-1.122l2.097,1.958l0.219,0.204v2.021c-0.02,0.009-0.036,0.019-0.056,0.027l-1.618-1.511L34.989,25.367z M43.704,30.665
		h-2.312v-8.802h2.312V30.665z M42.549,20.676c-1.066,0-1.932-0.388-1.932-0.867s0.865-0.867,1.932-0.867s1.931,0.388,1.931,0.867
		S43.615,20.676,42.549,20.676z M42.549,18.077c-1.066,0-1.932-0.388-1.932-0.867s0.865-0.867,1.932-0.867s1.931,0.388,1.931,0.867
		S43.615,18.077,42.549,18.077z M43.704,9.406v5.524h-2.312V9.406c-0.468-0.333-0.775-0.858-0.775-1.454
		c0-1.007,0.865-1.824,1.932-1.824s1.931,0.817,1.931,1.824C44.479,8.548,44.172,9.073,43.704,9.406z"/>
</g>
</svg>
