<?xml version="1.0" encoding="iso-8859-1"?>
<!-- Generator: Adobe Illustrator 15.0.0, SVG Export Plug-In . SVG Version: 6.00 Build 0)  -->
<!DOCTYPE svg PUBLIC "-//W3C//DTD SVG 1.1//EN" "http://www.w3.org/Graphics/SVG/1.1/DTD/svg11.dtd">
<svg version="1.1" id="Pinzu" xmlns="http://www.w3.org/2000/svg" xmlns:xlink="http://www.w3.org/1999/xlink" x="0px" y="0px"
	 width="54.223px" height="74.066px" viewBox="0 0 54.223 74.066" style="enable-background:new 0 0 54.223 74.066;"
	 xml:space="preserve">
<g id="_x39_pin">
	
		<rect x="0.183" y="0.183" style="fill:#F6F5F1;stroke:#010202;stroke-width:0.3649;stroke-miterlimit:10;" width="53.857" height="73.701"/>
	<g id="Point_11_">
		<g>
			<path style="fill:#801927;" d="M27.111,28.901c-4.491,0-8.132,3.641-8.132,8.132s3.641,8.132,8.132,8.132
				s8.132-3.641,8.132-8.132S31.603,28.901,27.111,28.901z M27.111,43.146c-3.376,0-6.113-2.737-6.113-6.113
				c0-3.376,2.737-6.113,6.113-6.113s6.113,2.737,6.113,6.113C33.225,40.409,30.487,43.146,27.111,43.146z"/>
			<path style="fill:#801927;" d="M32.299,35.347c-0.931-2.865-4.008-4.433-6.873-3.502c-2.865,0.932-4.434,4.008-3.503,6.874
				c0.932,2.866,4.009,4.433,6.874,3.502C31.662,41.29,33.23,38.213,32.299,35.347z M27.111,32.505c0.589,0,1.15,0.112,1.667,0.316
				l-0.607,1.534c-0.328-0.13-0.686-0.201-1.06-0.201s-0.731,0.071-1.06,0.201l-0.606-1.534
				C25.961,32.618,26.522,32.505,27.111,32.505z M22.806,35.634c0.182-0.56,0.462-1.061,0.815-1.488l1.271,1.051
				c-0.225,0.271-0.403,0.589-0.52,0.945c-0.115,0.356-0.158,0.718-0.136,1.07l-1.646,0.103
				C22.557,36.763,22.624,36.193,22.806,35.634z M25.983,41.419c-0.537-0.138-1.058-0.377-1.533-0.723
				c-0.477-0.346-0.865-0.767-1.162-1.236l1.392-0.884c0.189,0.298,0.437,0.566,0.739,0.786c0.303,0.22,0.634,0.372,0.975,0.46
				L25.983,41.419z M27.111,38.851c-1.004,0-1.818-0.814-1.818-1.818c0-1.004,0.814-1.818,1.818-1.818s1.818,0.814,1.818,1.818
				C28.93,38.037,28.115,38.851,27.111,38.851z M29.772,40.696c-0.477,0.346-0.997,0.586-1.534,0.724l-0.41-1.597
				c0.342-0.088,0.672-0.24,0.976-0.46c0.302-0.22,0.55-0.488,0.738-0.785l1.392,0.884C30.637,39.929,30.248,40.35,29.772,40.696z
				 M31.631,37.317l-1.646-0.104c0.022-0.352-0.021-0.714-0.136-1.07c-0.116-0.355-0.295-0.673-0.519-0.945l1.271-1.051
				c0.354,0.427,0.634,0.927,0.815,1.487C31.6,36.194,31.666,36.763,31.631,37.317z"/>
		</g>
		<circle style="fill:#FFFFFF;" cx="27.111" cy="37.033" r="0.707"/>
	</g>
	<g id="Point_18_">
		<g>
			<path style="fill:#801927;" d="M43.374,28.901c-4.491,0-8.131,3.641-8.131,8.132s3.64,8.132,8.131,8.132s8.132-3.641,8.132-8.132
				S47.865,28.901,43.374,28.901z M43.374,43.146c-3.376,0-6.112-2.737-6.112-6.113c0-3.376,2.736-6.113,6.112-6.113
				s6.113,2.737,6.113,6.113C49.487,40.409,46.75,43.146,43.374,43.146z"/>
			<path style="fill:#801927;" d="M48.562,35.347c-0.932-2.865-4.009-4.433-6.873-3.502c-2.866,0.932-4.435,4.008-3.503,6.874
				c0.931,2.866,4.008,4.433,6.874,3.502C47.926,41.29,49.493,38.213,48.562,35.347z M43.374,32.505
				c0.589,0,1.151,0.112,1.667,0.316l-0.607,1.534c-0.327-0.13-0.685-0.201-1.06-0.201c-0.374,0-0.73,0.071-1.059,0.201
				l-0.606-1.534C42.225,32.618,42.786,32.505,43.374,32.505z M39.068,35.634c0.182-0.56,0.462-1.061,0.816-1.488l1.271,1.051
				c-0.225,0.271-0.403,0.589-0.519,0.945c-0.116,0.356-0.158,0.718-0.137,1.07l-1.646,0.103
				C38.82,36.763,38.887,36.193,39.068,35.634z M42.247,41.419c-0.537-0.138-1.058-0.377-1.534-0.723
				c-0.476-0.346-0.865-0.767-1.162-1.236l1.392-0.884c0.189,0.298,0.437,0.566,0.739,0.786c0.303,0.22,0.634,0.372,0.976,0.46
				L42.247,41.419z M43.374,38.851c-1.004,0-1.818-0.814-1.818-1.818c0-1.004,0.814-1.818,1.818-1.818
				c1.005,0,1.818,0.814,1.818,1.818C45.192,38.037,44.379,38.851,43.374,38.851z M46.036,40.696
				c-0.477,0.346-0.998,0.586-1.535,0.724l-0.41-1.597c0.342-0.088,0.673-0.24,0.976-0.46s0.55-0.488,0.738-0.785l1.393,0.884
				C46.9,39.929,46.512,40.35,46.036,40.696z M47.895,37.317l-1.646-0.104c0.022-0.352-0.02-0.714-0.136-1.07
				c-0.115-0.355-0.294-0.673-0.519-0.945l1.271-1.051c0.354,0.427,0.634,0.927,0.815,1.487
				C47.862,36.194,47.93,36.763,47.895,37.317z"/>
		</g>
		<circle style="fill:#FFFFFF;" cx="43.374" cy="37.033" r="0.707"/>
	</g>
	<g id="Point_16_">
		<g>
			<path style="fill:#801927;" d="M10.848,28.901c-4.491,0-8.132,3.641-8.132,8.132s3.641,8.132,8.132,8.132
				c4.49,0,8.132-3.641,8.132-8.132S15.338,28.901,10.848,28.901z M10.848,43.146c-3.377,0-6.113-2.737-6.113-6.113
				c0-3.376,2.736-6.113,6.113-6.113c3.376,0,6.112,2.737,6.112,6.113C16.96,40.409,14.224,43.146,10.848,43.146z"/>
			<path style="fill:#801927;" d="M16.035,35.347c-0.931-2.865-4.009-4.433-6.873-3.502c-2.866,0.932-4.434,4.008-3.503,6.874
				s4.009,4.433,6.874,3.502C15.398,41.29,16.967,38.213,16.035,35.347z M10.848,32.505c0.588,0,1.15,0.112,1.666,0.316
				l-0.606,1.534c-0.328-0.13-0.686-0.201-1.06-0.201c-0.375,0-0.731,0.071-1.06,0.201l-0.606-1.534
				C9.697,32.618,10.259,32.505,10.848,32.505z M6.541,35.634c0.182-0.56,0.463-1.061,0.816-1.488l1.271,1.051
				c-0.226,0.271-0.404,0.589-0.52,0.945s-0.158,0.718-0.137,1.07l-1.645,0.103C6.293,36.763,6.359,36.193,6.541,35.634z
				 M9.72,41.419c-0.537-0.138-1.058-0.377-1.533-0.723C7.71,40.35,7.32,39.929,7.023,39.46l1.393-0.884
				c0.188,0.298,0.437,0.566,0.739,0.786c0.303,0.22,0.634,0.372,0.975,0.46L9.72,41.419z M10.848,38.851
				c-1.005,0-1.818-0.814-1.818-1.818c0-1.004,0.813-1.818,1.818-1.818c1.004,0,1.818,0.814,1.818,1.818
				C12.666,38.037,11.852,38.851,10.848,38.851z M13.509,40.696c-0.477,0.346-0.997,0.586-1.535,0.724l-0.41-1.597
				c0.342-0.088,0.673-0.24,0.977-0.46c0.302-0.22,0.549-0.488,0.738-0.785l1.392,0.884C14.373,39.929,13.984,40.35,13.509,40.696z
				 M15.367,37.317l-1.646-0.104c0.021-0.352-0.021-0.714-0.136-1.07c-0.116-0.355-0.295-0.673-0.519-0.945l1.271-1.051
				c0.354,0.427,0.634,0.927,0.815,1.487C15.336,36.194,15.402,36.763,15.367,37.317z"/>
		</g>
		<circle style="fill:#FFFFFF;" cx="10.848" cy="37.033" r="0.707"/>
	</g>
	<g id="Point_15_">
		<g>
			<path style="fill:#1F233B;" d="M27.108,51.392c-4.491,0-8.132,3.641-8.132,8.132s3.641,8.132,8.132,8.132
				s8.132-3.641,8.132-8.132S31.6,51.392,27.108,51.392z M27.108,65.637c-3.376,0-6.113-2.737-6.113-6.113
				c0-3.376,2.737-6.113,6.113-6.113s6.113,2.737,6.113,6.113C33.222,62.9,30.484,65.637,27.108,65.637z"/>
			<path style="fill:#1F233B;" d="M32.296,57.838c-0.931-2.865-4.008-4.433-6.873-3.502c-2.865,0.931-4.434,4.008-3.503,6.874
				c0.932,2.866,4.009,4.434,6.874,3.502S33.228,60.704,32.296,57.838z M27.108,54.996c0.589,0,1.15,0.112,1.667,0.317l-0.607,1.533
				c-0.328-0.13-0.686-0.201-1.06-0.201s-0.731,0.071-1.06,0.201l-0.606-1.533C25.958,55.108,26.52,54.996,27.108,54.996z
				 M22.803,58.125c0.182-0.56,0.462-1.06,0.815-1.487l1.271,1.051c-0.225,0.272-0.403,0.59-0.52,0.946
				c-0.115,0.356-0.158,0.718-0.136,1.07l-1.646,0.103C22.554,59.253,22.621,58.685,22.803,58.125z M25.98,63.91
				c-0.537-0.138-1.057-0.377-1.533-0.724c-0.477-0.346-0.865-0.767-1.162-1.236l1.392-0.883c0.189,0.297,0.437,0.565,0.739,0.786
				c0.303,0.22,0.634,0.372,0.975,0.46L25.98,63.91z M27.108,61.342c-1.004,0-1.818-0.814-1.818-1.818s0.814-1.818,1.818-1.818
				s1.818,0.814,1.818,1.818S28.112,61.342,27.108,61.342z M29.77,63.187c-0.477,0.347-0.997,0.586-1.534,0.724l-0.41-1.597
				c0.342-0.088,0.673-0.24,0.976-0.46c0.302-0.22,0.55-0.488,0.738-0.785l1.393,0.884C30.634,62.42,30.245,62.841,29.77,63.187z
				 M31.628,59.808l-1.646-0.104c0.022-0.352-0.02-0.714-0.136-1.07c-0.116-0.355-0.294-0.673-0.519-0.945l1.271-1.051
				c0.354,0.427,0.634,0.927,0.815,1.486C31.597,58.685,31.663,59.254,31.628,59.808z"/>
		</g>
		<circle style="fill:#FFFFFF;" cx="27.108" cy="59.524" r="0.707"/>
	</g>
	<g id="Point_13_">
		<g>
			<path style="fill:#1F233B;" d="M43.371,51.392c-4.49,0-8.131,3.641-8.131,8.132s3.641,8.132,8.131,8.132
				c4.491,0,8.133-3.641,8.133-8.132S47.862,51.392,43.371,51.392z M43.371,65.637c-3.376,0-6.112-2.737-6.112-6.113
				c0-3.376,2.736-6.113,6.112-6.113c3.377,0,6.113,2.737,6.113,6.113C49.484,62.9,46.748,65.637,43.371,65.637z"/>
			<path style="fill:#1F233B;" d="M48.56,57.838c-0.931-2.865-4.009-4.433-6.873-3.502c-2.866,0.931-4.435,4.008-3.503,6.874
				c0.931,2.866,4.008,4.434,6.874,3.502C47.923,63.781,49.49,60.704,48.56,57.838z M43.371,54.996c0.589,0,1.151,0.112,1.667,0.317
				l-0.606,1.533c-0.328-0.13-0.686-0.201-1.061-0.201c-0.374,0-0.73,0.071-1.059,0.201l-0.606-1.533
				C42.222,55.108,42.783,54.996,43.371,54.996z M39.065,58.125c0.182-0.56,0.462-1.06,0.816-1.487l1.271,1.051
				c-0.225,0.272-0.403,0.59-0.519,0.946c-0.116,0.356-0.158,0.718-0.137,1.07l-1.646,0.103
				C38.817,59.253,38.884,58.685,39.065,58.125z M42.244,63.91c-0.537-0.138-1.058-0.377-1.533-0.724
				c-0.477-0.346-0.866-0.767-1.163-1.236l1.392-0.883c0.189,0.297,0.438,0.565,0.74,0.786c0.302,0.22,0.633,0.372,0.975,0.46
				L42.244,63.91z M43.371,61.342c-1.004,0-1.818-0.814-1.818-1.818s0.814-1.818,1.818-1.818c1.005,0,1.818,0.814,1.818,1.818
				S44.376,61.342,43.371,61.342z M46.033,63.187c-0.477,0.347-0.998,0.586-1.535,0.724l-0.41-1.597
				c0.342-0.088,0.673-0.24,0.977-0.46c0.302-0.22,0.549-0.488,0.738-0.785l1.392,0.884C46.897,62.42,46.509,62.841,46.033,63.187z
				 M47.892,59.808l-1.646-0.104c0.021-0.352-0.021-0.714-0.137-1.07c-0.115-0.355-0.294-0.673-0.518-0.945l1.27-1.051
				c0.354,0.427,0.634,0.927,0.816,1.486C47.859,58.685,47.927,59.254,47.892,59.808z"/>
		</g>
		<circle style="fill:#FFFFFF;" cx="43.371" cy="59.524" r="0.707"/>
	</g>
	<g id="Point_9_">
		<g>
			<path style="fill:#1F233B;" d="M10.845,51.392c-4.491,0-8.132,3.641-8.132,8.132s3.641,8.132,8.132,8.132
				s8.132-3.641,8.132-8.132S15.336,51.392,10.845,51.392z M10.845,65.637c-3.376,0-6.113-2.737-6.113-6.113
				c0-3.376,2.737-6.113,6.113-6.113s6.112,2.737,6.112,6.113C16.957,62.9,14.221,65.637,10.845,65.637z"/>
			<path style="fill:#1F233B;" d="M16.032,57.838c-0.931-2.865-4.009-4.433-6.873-3.502c-2.866,0.931-4.434,4.008-3.503,6.874
				c0.932,2.866,4.008,4.434,6.874,3.502C15.396,63.781,16.964,60.704,16.032,57.838z M10.845,54.996
				c0.588,0,1.15,0.112,1.667,0.317l-0.607,1.533c-0.328-0.13-0.686-0.201-1.06-0.201s-0.731,0.071-1.06,0.201l-0.606-1.533
				C9.694,55.108,10.256,54.996,10.845,54.996z M6.539,58.125c0.182-0.56,0.462-1.06,0.815-1.487l1.271,1.051
				c-0.226,0.272-0.403,0.59-0.52,0.946c-0.115,0.356-0.158,0.718-0.136,1.07l-1.646,0.103C6.29,59.253,6.356,58.685,6.539,58.125z
				 M9.717,63.91c-0.537-0.138-1.058-0.377-1.533-0.724c-0.477-0.346-0.865-0.767-1.162-1.236l1.392-0.883
				c0.188,0.297,0.437,0.565,0.739,0.786c0.303,0.22,0.634,0.372,0.975,0.46L9.717,63.91z M10.845,61.342
				c-1.005,0-1.818-0.814-1.818-1.818s0.813-1.818,1.818-1.818c1.004,0,1.818,0.814,1.818,1.818S11.849,61.342,10.845,61.342z
				 M13.506,63.187c-0.477,0.347-0.997,0.586-1.535,0.724l-0.41-1.597c0.342-0.088,0.673-0.24,0.977-0.46
				c0.302-0.22,0.549-0.488,0.738-0.785l1.392,0.884C14.37,62.42,13.981,62.841,13.506,63.187z M15.364,59.808l-1.646-0.104
				c0.021-0.352-0.021-0.714-0.136-1.07c-0.116-0.355-0.295-0.673-0.519-0.945l1.271-1.051c0.354,0.427,0.634,0.927,0.815,1.486
				C15.333,58.685,15.399,59.254,15.364,59.808z"/>
		</g>
		<circle style="fill:#FFFFFF;" cx="10.845" cy="59.524" r="0.707"/>
	</g>
	<g id="Point_41_">
		<g>
			<path style="fill:#1F233B;" d="M27.108,6.41c-4.491,0-8.132,3.641-8.132,8.132s3.641,8.132,8.132,8.132s8.132-3.641,8.132-8.132
				S31.6,6.41,27.108,6.41z M27.108,20.655c-3.376,0-6.113-2.737-6.113-6.113c0-3.376,2.737-6.113,6.113-6.113
				s6.113,2.737,6.113,6.113C33.222,17.918,30.484,20.655,27.108,20.655z"/>
			<path style="fill:#1F233B;" d="M32.296,12.856c-0.931-2.865-4.008-4.433-6.873-3.502c-2.865,0.931-4.434,4.008-3.503,6.874
				c0.932,2.866,4.009,4.433,6.874,3.502C31.659,18.799,33.228,15.722,32.296,12.856z M27.108,10.014
				c0.589,0,1.15,0.112,1.667,0.317l-0.607,1.533c-0.328-0.13-0.686-0.201-1.06-0.201s-0.731,0.071-1.06,0.201l-0.606-1.533
				C25.958,10.126,26.52,10.014,27.108,10.014z M22.803,13.143c0.182-0.56,0.462-1.061,0.815-1.488l1.271,1.051
				c-0.225,0.272-0.403,0.589-0.52,0.946c-0.115,0.355-0.158,0.717-0.136,1.069l-1.646,0.103
				C22.554,14.271,22.621,13.702,22.803,13.143z M25.98,18.928c-0.537-0.138-1.057-0.377-1.533-0.723s-0.865-0.767-1.162-1.236
				l1.392-0.884c0.189,0.298,0.437,0.566,0.739,0.786c0.303,0.22,0.634,0.372,0.975,0.46L25.98,18.928z M27.108,16.36
				c-1.004,0-1.818-0.814-1.818-1.818c0-1.004,0.814-1.818,1.818-1.818s1.818,0.814,1.818,1.818
				C28.927,15.546,28.112,16.36,27.108,16.36z M29.77,18.205c-0.477,0.346-0.997,0.586-1.534,0.724l-0.41-1.597
				c0.342-0.087,0.673-0.24,0.976-0.46c0.302-0.22,0.55-0.488,0.738-0.785l1.393,0.884C30.634,17.438,30.245,17.859,29.77,18.205z
				 M31.628,14.826l-1.646-0.104c0.022-0.352-0.02-0.714-0.136-1.07s-0.294-0.674-0.519-0.945l1.271-1.051
				c0.354,0.427,0.634,0.927,0.815,1.487C31.597,13.703,31.663,14.272,31.628,14.826z"/>
		</g>
		<circle style="fill:#FFFFFF;" cx="27.108" cy="14.542" r="0.707"/>
	</g>
	<g id="Point_19_">
		<g>
			<path style="fill:#1F233B;" d="M43.371,6.41c-4.49,0-8.131,3.641-8.131,8.132s3.641,8.132,8.131,8.132
				c4.491,0,8.133-3.641,8.133-8.132S47.862,6.41,43.371,6.41z M43.371,20.655c-3.376,0-6.112-2.737-6.112-6.113
				c0-3.376,2.736-6.113,6.112-6.113c3.377,0,6.113,2.737,6.113,6.113C49.484,17.918,46.748,20.655,43.371,20.655z"/>
			<path style="fill:#1F233B;" d="M48.56,12.856c-0.931-2.865-4.009-4.433-6.873-3.502c-2.866,0.931-4.435,4.008-3.503,6.874
				c0.931,2.866,4.008,4.433,6.874,3.502C47.923,18.799,49.49,15.722,48.56,12.856z M43.371,10.014c0.589,0,1.151,0.112,1.667,0.317
				l-0.606,1.533c-0.328-0.13-0.686-0.201-1.061-0.201c-0.374,0-0.73,0.071-1.059,0.201l-0.606-1.533
				C42.222,10.126,42.783,10.014,43.371,10.014z M39.065,13.143c0.182-0.56,0.462-1.061,0.816-1.488l1.271,1.051
				c-0.225,0.272-0.403,0.589-0.519,0.946c-0.116,0.355-0.158,0.717-0.137,1.069l-1.646,0.103
				C38.817,14.271,38.884,13.702,39.065,13.143z M42.244,18.928c-0.537-0.138-1.058-0.377-1.533-0.723
				c-0.477-0.346-0.866-0.767-1.163-1.236l1.392-0.884c0.189,0.298,0.438,0.566,0.74,0.786c0.302,0.22,0.633,0.372,0.975,0.46
				L42.244,18.928z M43.371,16.36c-1.004,0-1.818-0.814-1.818-1.818c0-1.004,0.814-1.818,1.818-1.818
				c1.005,0,1.818,0.814,1.818,1.818C45.189,15.546,44.376,16.36,43.371,16.36z M46.033,18.205
				c-0.477,0.346-0.998,0.586-1.535,0.724l-0.41-1.597c0.342-0.087,0.673-0.24,0.977-0.46c0.302-0.22,0.549-0.488,0.738-0.785
				l1.392,0.884C46.897,17.438,46.509,17.859,46.033,18.205z M47.892,14.826l-1.646-0.104c0.021-0.352-0.021-0.714-0.137-1.07
				c-0.115-0.356-0.294-0.674-0.518-0.945l1.27-1.051c0.354,0.427,0.634,0.927,0.816,1.487
				C47.859,13.703,47.927,14.272,47.892,14.826z"/>
		</g>
		<circle style="fill:#FFFFFF;" cx="43.371" cy="14.542" r="0.707"/>
	</g>
	<g id="Point_17_">
		<g>
			<path style="fill:#1F233B;" d="M10.845,6.41c-4.491,0-8.132,3.641-8.132,8.132s3.641,8.132,8.132,8.132s8.132-3.641,8.132-8.132
				S15.336,6.41,10.845,6.41z M10.845,20.655c-3.376,0-6.113-2.737-6.113-6.113c0-3.376,2.737-6.113,6.113-6.113
				s6.112,2.737,6.112,6.113C16.957,17.918,14.221,20.655,10.845,20.655z"/>
			<path style="fill:#1F233B;" d="M16.032,12.856c-0.931-2.865-4.009-4.433-6.873-3.502c-2.866,0.931-4.434,4.008-3.503,6.874
				c0.932,2.866,4.008,4.433,6.874,3.502C15.396,18.799,16.964,15.722,16.032,12.856z M10.845,10.014
				c0.588,0,1.15,0.112,1.667,0.317l-0.607,1.533c-0.328-0.13-0.686-0.201-1.06-0.201s-0.731,0.071-1.06,0.201l-0.606-1.533
				C9.694,10.126,10.256,10.014,10.845,10.014z M6.539,13.143c0.182-0.56,0.462-1.061,0.815-1.488l1.271,1.051
				c-0.226,0.272-0.403,0.589-0.52,0.946c-0.115,0.355-0.158,0.717-0.136,1.069l-1.646,0.103C6.29,14.271,6.356,13.702,6.539,13.143
				z M9.717,18.928C9.18,18.79,8.659,18.55,8.184,18.205c-0.477-0.346-0.865-0.767-1.162-1.236l1.392-0.884
				c0.188,0.298,0.437,0.566,0.739,0.786c0.303,0.22,0.634,0.372,0.975,0.46L9.717,18.928z M10.845,16.36
				c-1.005,0-1.818-0.814-1.818-1.818c0-1.004,0.813-1.818,1.818-1.818c1.004,0,1.818,0.814,1.818,1.818
				C12.663,15.546,11.849,16.36,10.845,16.36z M13.506,18.205c-0.477,0.346-0.997,0.586-1.535,0.724l-0.41-1.597
				c0.342-0.087,0.673-0.24,0.977-0.46c0.302-0.22,0.549-0.488,0.738-0.785l1.392,0.884C14.37,17.438,13.981,17.859,13.506,18.205z
				 M15.364,14.826l-1.646-0.104c0.021-0.352-0.021-0.714-0.136-1.07c-0.116-0.356-0.295-0.674-0.519-0.945l1.271-1.051
				c0.354,0.427,0.634,0.927,0.815,1.487C15.333,13.703,15.399,14.272,15.364,14.826z"/>
		</g>
		<circle style="fill:#FFFFFF;" cx="10.845" cy="14.542" r="0.707"/>
	</g>
</g>
</svg>
