<?xml version="1.0" encoding="iso-8859-1"?>
<!-- Generator: Adobe Illustrator 15.0.0, SVG Export Plug-In . SVG Version: 6.00 Build 0)  -->
<!DOCTYPE svg PUBLIC "-//W3C//DTD SVG 1.1//EN" "http://www.w3.org/Graphics/SVG/1.1/DTD/svg11.dtd">
<svg version="1.1" id="Aka" xmlns="http://www.w3.org/2000/svg" xmlns:xlink="http://www.w3.org/1999/xlink" x="0px" y="0px"
	 width="54.224px" height="74.065px" viewBox="0 0 54.224 74.065" style="enable-background:new 0 0 54.224 74.065;"
	 xml:space="preserve">
<g id="_x35_man_2_">
	
		<rect x="0.183" y="0.183" style="fill:#F6F5F1;stroke:#010202;stroke-width:0.3649;stroke-miterlimit:10;" width="53.858" height="73.7"/>
	<g id="_x35_man_3_">
		<g id="MAN_9_">
			<g>
				<path style="fill:#801927;" d="M13.231,39.803c2.946,0.353,5.696,1.117,8.095,0.986c1.324-0.04,2.837-0.058,4.23-0.387
					c1.403-0.324,2.737-0.885,4.066-1.511c1.327-0.638,2.699-1.195,4.153-1.551c1.446-0.387,2.959-0.649,4.447-0.688
					c2.975-0.027,5.919,0.382,8.717,1.496l-0.029,0.254c-2.932,0.524-5.764,0.714-8.543,0.975c-1.389,0.114-2.748,0.153-4.128,0.332
					c-1.373,0.199-2.789,0.377-4.233,0.527c-1.44,0.165-2.857,0.46-4.216,0.956c-1.37,0.479-2.625,1.291-4.149,1.704
					c-0.786,0.214-1.666,0.233-2.446,0.1c-0.79-0.115-1.533-0.331-2.243-0.603c-1.409-0.569-2.723-1.298-3.832-2.36L13.231,39.803z"
					/>
			</g>
			<g>
				<path style="fill:#801927;" d="M25.095,37.242c0.045-0.309,0.103-0.604,0.172-0.888c0.076-0.276,0.143-0.562,0.24-0.816
					c0.209-0.141,0.364-0.335,0.548-0.501l0.532-0.517l2.632-2.557l-1.133,3.506c-0.118,0.366-0.23,0.823-0.317,1.247
					c-0.088,0.433-0.159,0.87-0.211,1.31c-0.054,0.439-0.086,0.881-0.102,1.321c0.001,0.11-0.015,0.221,0,0.33
					c0.042,0.056-0.012,0.11-0.069,0.165l-0.153,0.168c-0.197,0.226-0.426,0.46-0.673,0.709c-0.271-0.218-0.521-0.451-0.722-0.693
					l-0.155-0.183c-0.057-0.062-0.109-0.125-0.067-0.187c0.017-0.123,0.01-0.247,0.016-0.371c0.018-0.494,0.055-0.986,0.114-1.476
					c0.058-0.489,0.137-0.976,0.235-1.46c0.103-0.492,0.209-0.946,0.378-1.471l1.499,0.949l-0.532,0.517
					c-0.171,0.18-0.369,0.329-0.516,0.534c-0.257,0.09-0.545,0.148-0.824,0.216C25.701,37.157,25.404,37.206,25.095,37.242z"/>
			</g>
			<g>
				<path style="fill:#801927;" d="M32.937,28.854c0.149,0.237,0.4,0.405,0.974,0.794c0.269,0.194,0.653,0.485,0.925,0.971
					c0.275,0.486,0.309,1.013,0.268,1.396c-0.096,0.761-0.378,1.297-0.632,1.785c-0.261,0.484-0.538,0.933-0.82,1.375
					c-1.137,1.758-2.354,3.413-3.6,5.053c0.823-1.881,1.619-3.784,2.287-5.691c0.308-0.921,0.68-2.005,0.576-2.58
					c-0.03-0.125-0.08-0.127-0.085-0.072c-0.003,0.048-0.044,0.029-0.213-0.033c-0.309-0.116-1.022-0.344-1.621-0.816L32.937,28.854
					z"/>
			</g>
			<path style="fill:none;stroke:#801927;stroke-width:2.5541;stroke-miterlimit:10;" d="M21.872,44.904
				c0,0-0.608,8.392,0.486,9.852"/>
			<g>
				<path style="fill:#801927;" d="M20.629,44.839c1.341-0.313,2.678-0.465,3.828-0.784c0.27-0.065,0.565-0.159,0.68-0.247
					c0.188-0.071,0.19-0.108,0.353-0.185l0.402-0.218l1.747-0.859c0.595-0.303,1.215-0.56,1.866-0.803
					c0.659-0.243,1.31-0.484,2.153-0.668c0.216-0.041,0.451-0.069,0.728-0.086c0.3-0.004,0.586-0.035,1.17,0.112l0.207,0.062
					c0.08,0.027,0.191,0.076,0.283,0.121c0.19,0.096,0.361,0.183,0.609,0.404c0.223,0.198,0.413,0.422,0.569,0.729
					c0.076,0.146,0.141,0.302,0.189,0.454c0.034,0.126,0.061,0.258,0.079,0.391s0.027,0.267,0.029,0.398l-0.002,0.111l-0.004,0.136
					l-0.016,0.324c-0.053,0.742-0.104,1.389-0.196,2.05c-0.217,1.301-0.396,2.583-0.645,3.841c-0.256,1.261-0.524,2.512-0.624,3.481
					c-0.124,2.452-0.166,5.135-0.631,7.819l-0.252,0.043c-0.462-2.561-0.91-5.118-1.128-7.728c-0.116-1.339,0.121-2.633,0.255-3.924
					l0.499-3.864c0.081-0.643,0.172-1.286,0.229-1.922c0.012-0.14,0.031-0.353,0.021-0.434c-0.005-0.052-0.025-0.078-0.147-0.118
					c-0.233-0.065-0.565-0.032-0.867,0.008c-1.245,0.201-2.484,0.623-3.713,1.022l-1.851,0.616
					c-0.309,0.098-0.628,0.199-0.954,0.271c-0.345,0.069-0.675,0.087-1.008,0.094c-1.323-0.003-2.614-0.184-3.902-0.398
					L20.629,44.839z"/>
			</g>
			<g>
				<path style="fill:#801927;" d="M20.994,48.459c1.161-0.013,2.324-0.027,3.46-0.142c0.563-0.062,1.133-0.124,1.631-0.265
					c0.484-0.163,1.104-0.364,1.646-0.527c1.126-0.309,2.212-0.815,3.38-0.948c1.166-0.107,2.37-0.172,3.615,0.29l-0.002,0.182
					c-1.072,0.597-2.144,1.039-3.257,1.349c-1.108,0.313-2.292,0.287-3.43,0.487l-1.742,0.268c-0.644,0.069-1.238,0.052-1.834,0.005
					c-1.185-0.104-2.341-0.27-3.486-0.517L20.994,48.459z"/>
			</g>
			<g>
				<path style="fill:#801927;" d="M20.974,52.935c1.065-0.092,2.129-0.18,3.186-0.297c1.046-0.128,2.132-0.245,3.077-0.496
					l1.499-0.541c0.51-0.179,1.006-0.422,1.526-0.573c0.521-0.152,1.075-0.172,1.638-0.143c0.559,0.044,1.154,0.121,1.722,0.458
					l-0.002,0.182c-0.981,0.669-1.907,1.146-2.948,1.343c-0.521,0.08-1.062,0.081-1.59,0.155l-1.605,0.231
					c-1.152,0.151-2.208,0.111-3.291,0.077c-1.075-0.043-2.145-0.107-3.213-0.215L20.974,52.935z"/>
			</g>
			<g>
				<path style="fill:#801927;" d="M16.642,51.434c0.721,1.111,1.2,2.256,1.618,3.405c0.409,1.146,0.728,2.318,1.01,3.432
					c0.073,0.297,0.125,0.495,0.222,0.81l0.228,0.9c0.134,0.6,0.25,1.202,0.329,1.814c0.158,1.225,0.234,2.47,0.061,3.785
					c-0.848-1.021-1.452-2.108-1.985-3.214c-0.267-0.553-0.5-1.114-0.721-1.677l-0.314-0.841c-0.094-0.263-0.214-0.648-0.29-0.939
					c-0.312-1.244-0.459-2.459-0.505-3.7C16.261,53.97,16.319,52.72,16.642,51.434z"/>
			</g>
			<g>
				<path style="fill:#801927;" d="M11.169,57.492c0.907,0.681,1.951,1.161,2.998,1.357c0.524,0.088,1.056,0.109,1.549,0.03
					c0.483-0.094,1.054-0.259,1.588-0.406c2.18-0.591,4.381-1.194,6.611-1.677c4.46-0.974,9.009-1.724,13.763-1.483
					c1.189,0.095,2.393,0.259,3.607,0.623c1.194,0.369,2.487,0.926,3.468,2.073c0.996,1.15,1.298,2.777,1.057,4.131
					c-0.111,0.716-0.434,1.487-0.972,2.07c-0.539,0.588-1.221,0.941-1.866,1.154c-1.307,0.407-2.541,0.403-3.726,0.306
					c-1.185-0.113-2.326-0.327-3.448-0.587c-1.117-0.279-2.218-0.584-3.304-0.925c-1.091-0.32-2.151-0.726-3.265-0.95
					c1.146-0.044,2.287,0.133,3.413,0.258c1.128,0.134,2.245,0.288,3.361,0.38c1.11,0.108,2.22,0.184,3.299,0.151
					c1.068-0.036,2.144-0.138,2.976-0.502c0.849-0.378,1.224-0.893,1.318-1.686c0.085-0.871-0.137-1.665-0.67-2.216
					c-0.527-0.568-1.381-0.999-2.342-1.263c-0.961-0.272-2.017-0.401-3.082-0.472c-2.143-0.167-4.359-0.043-6.57,0.138
					c-2.219,0.161-4.437,0.474-6.668,0.753l-6.718,0.946c-0.577,0.064-1.114,0.141-1.758,0.165
					c-0.637-0.002-1.245-0.117-1.812-0.334C12.848,59.101,11.897,58.369,11.169,57.492z"/>
			</g>
			<g>
				<path style="fill:#801927;" d="M26.943,44.114c-0.336,0.745-0.322,1.554-0.366,2.347c-0.037,0.794-0.027,1.594-0.033,2.39
					c0.017,1.596,0.02,3.191,0.062,4.786c0.012,1.595,0.058,3.189,0.106,4.777l0.114,2.414l0.021,1.225l0.001,0.15l0.001,0.07
					c0,0.01,0.001,0.022-0.002,0.021c-0.005-0.009,0.006,0.015-0.012-0.021c-0.079-0.042,0.144,0.042-0.186-0.1
					c-0.247,0.102-0.129,0.097-0.183,0.162c-0.002,0.026,0.001,0.021,0.001,0.02c0.016-0.077,0.02-0.191,0.028-0.29l0.058-0.619
					l0.217,0.586c0.032,0.103,0.062,0.189,0.089,0.314c0.001,0.012,0.004,0.02,0,0.058c-0.055,0.067,0.064,0.068-0.187,0.169
					c-0.333-0.142-0.11-0.062-0.19-0.106l-0.02-0.04l-0.021-0.052l-0.032-0.078l-0.06-0.147c-0.15-0.39-0.272-0.779-0.406-1.169
					c-0.235-0.78-0.482-1.565-0.644-2.39c-0.347-1.63-0.473-3.277-0.518-4.924c-0.007-1.646,0.069-3.296,0.349-4.932
					c0.129-0.818,0.318-1.632,0.569-2.433C25.986,45.531,26.256,44.651,26.943,44.114z"/>
			</g>
			<g>
				<path style="fill:#801927;" d="M21.718,62.28c0.139,0.205,0.255,0.414,0.375,0.622l-0.489-0.254
					c1.436-0.903,2.948-1.66,4.484-2.432c0.755-0.42,1.562-0.702,2.394-0.831c0.83-0.143,1.667-0.236,2.6-0.154l0.066,0.17
					c-0.625,0.7-1.364,1.177-2.121,1.575c-0.753,0.413-1.537,0.661-2.354,0.824c-1.609,0.39-3.169,0.98-4.776,1.48l-0.56,0.175
					l0.07-0.429c0.039-0.237,0.073-0.474,0.131-0.714L21.718,62.28z"/>
			</g>
		</g>
		<g>
			<g>
				<path style="fill:#801927;" d="M6.02,26.404c1.905-1.007,3.758-2.113,5.482-3.361c1.717-1.229,3.38-2.61,4.488-4.245
					c0.531-0.78,0.888-1.776,1.282-2.717c0.378-0.952,0.749-1.898,1.086-2.865c0.653-1.942,1.15-3.934,1.278-6.116l0.213-0.047
					c1,2.066,0.976,4.488,0.55,6.706c-0.44,2.269-1.438,4.292-2.94,6.164c-1.562,1.779-3.439,3.002-5.352,4.083
					c-1.939,1.04-3.937,1.921-6.006,2.602L6.02,26.404z"/>
			</g>
			<g>
				<path style="fill:#801927;" d="M43.877,7.254c-1.788,0.032-3.551-0.029-5.265-0.045l-1.26,0.011
					c-0.386,0.015-0.897,0.028-0.962,0.109c-0.562,0.201-1.377,0.609-2.134,0.978c-1.558,0.753-3.175,1.567-5.031,2.083
					c-1.936,0.513-3.843,0.519-5.827,0.079l-0.234-0.052l-0.034-0.02c-0.803-0.458-1.595-0.943-2.406-1.379l1.081-0.964
					c0.207,1.993,0.55,3.874,0.764,5.859c0.06,0.496,0.089,0.999,0.099,1.521c0.013,0.523-0.009,1.062-0.165,1.664
					c-0.063,0.28-0.241,0.668-0.403,0.904c-0.146,0.225-0.19,0.346-0.301,0.56c-0.186,0.392-0.351,0.809-0.498,1.23
					c-0.292,0.847-0.514,1.722-0.667,2.563c-0.137,0.831-0.22,1.693-0.079,2.231c0.054,0.276,0.167,0.36,0.155,0.315
					c-0.006-0.018-0.012-0.044,0.001-0.04c-0.096-0.042,0.26,0.075,0.183,0.031c0.003-0.005,0.004-0.008,0.005-0.008l0.067-0.002
					c0.343,0.003,1.022-0.23,1.781-0.646c1.515-0.817,3.384-2.031,5.763-2.424c0.581-0.101,1.215-0.141,1.797-0.11
					c0.671,0.036,1.177,0.123,1.716,0.232c1.046,0.232,2.009,0.536,2.958,0.859c3.75,1.368,7.212,3.148,10.468,5.365l-0.145,0.334
					c-3.828-0.776-7.553-1.792-11.203-2.539c-0.904-0.188-1.811-0.35-2.663-0.429c-0.41-0.046-0.862-0.075-1.152-0.061
					c-0.38,0.021-0.709,0.064-1.073,0.14c-1.444,0.303-2.907,1.18-4.83,2.043c-0.489,0.214-1.017,0.429-1.626,0.597
					c-0.613,0.161-1.327,0.281-2.112,0.184l-0.292-0.041l-0.348-0.081c-0.314-0.084-0.184-0.059-0.509-0.168
					c-0.432-0.18-0.864-0.445-1.208-0.809c-0.69-0.734-0.927-1.602-0.997-2.273c-0.108-1.377,0.164-2.451,0.519-3.47
					c0.355-1.014,0.83-1.939,1.375-2.824c0.273-0.442,0.564-0.874,0.893-1.296c0.152-0.188,0.374-0.47,0.529-0.619
					c0.145-0.136,0.198-0.178,0.3-0.348c0.353-0.635,0.463-1.615,0.466-2.524c-0.022-1.856-0.41-3.771-1.134-5.507l-0.583-1.399
					l1.664,0.435c0.891,0.233,1.802,0.416,2.701,0.627L23.75,8.062c0.703-0.035,1.56-0.114,2.315-0.271
					c0.776-0.138,1.527-0.322,2.258-0.548c1.51-0.464,3.093-1.098,4.754-1.713c0.857-0.3,1.648-0.62,2.798-0.806
					c0.799-0.095,1.171,0.042,1.655,0.096c0.463,0.076,0.912,0.164,1.352,0.282c1.758,0.44,3.439,1.028,5.073,1.796L43.877,7.254z"
					/>
			</g>
			<g>
				<path style="fill:#801927;" d="M21.716,17.493c1.115-0.447,2.198-0.693,3.207-0.938c0.491-0.124,1.002-0.243,1.314-0.38
					c0.068-0.029,0.132-0.064,0.115-0.071c-0.004-0.001,0.001-0.004-0.023,0.005l-0.026,0.012l-0.012,0.007l-0.003,0.002
					c0.015-0.011-0.035,0.025,0.033-0.023l0.002-0.002l0.011-0.008c0.046-0.039,0.104-0.086,0.207-0.155
					c0.314-0.229,0.55-0.342,0.835-0.445c0.549-0.201,1.174-0.184,1.774-0.208c0.601-0.023,1.154-0.129,1.638-0.39
					c0.997-0.452,1.698-1.555,2.624-2.197l1.851-1.285l0.138,2.783l0.108,2.188c0.034,0.729-0.002,1.446-0.09,2.158
					c-0.082,0.714-0.183,1.419-0.304,2.136c-0.096,0.72-0.243,1.418-0.253,2.27l-0.275,0.18c-0.845-0.445-1.376-1.267-1.752-2.045
					c-0.387-0.793-0.608-1.619-0.738-2.438c-0.135-0.819-0.143-1.637-0.029-2.438c0.116-0.808,0.289-1.572,0.501-2.391l1.987,1.499
					c-1.073,0.233-2.365,0.025-3.353,0.483c-0.509,0.195-0.944,0.552-1.33,0.999c-0.384,0.447-0.741,0.941-1.16,1.247
					c-0.198,0.15-0.444,0.294-0.594,0.354c-0.015,0-0.069,0.03-0.134,0.07l-0.012,0.006l-0.003,0.002
					c0.066-0.048,0.015-0.011,0.028-0.021l-0.014,0.009l-0.056,0.035l-0.112,0.067c-0.08,0.048-0.139,0.071-0.203,0.101
					c-0.262,0.116-0.46,0.162-0.654,0.205c-0.747,0.133-1.333,0.097-1.931,0.027c-1.173-0.155-2.276-0.478-3.339-1.082
					L21.716,17.493z"/>
			</g>
			<path style="fill:none;stroke:#801927;stroke-width:2.5541;stroke-miterlimit:10;" d="M29.519,8.948c0,0-3.251,3.499-3.549,8.431
				c-0.298,4.931-3.611,8.579-3.611,8.579"/>
		</g>
	</g>
</g>
</svg>
