<?xml version="1.0" encoding="iso-8859-1"?>
<!-- Generator: Adobe Illustrator 15.0.0, SVG Export Plug-In . SVG Version: 6.00 Build 0)  -->
<!DOCTYPE svg PUBLIC "-//W3C//DTD SVG 1.1//EN" "http://www.w3.org/Graphics/SVG/1.1/DTD/svg11.dtd">
<svg version="1.1" id="Pinzu" xmlns="http://www.w3.org/2000/svg" xmlns:xlink="http://www.w3.org/1999/xlink" x="0px" y="0px"
	 width="54.224px" height="74.066px" viewBox="0 0 54.224 74.066" style="enable-background:new 0 0 54.224 74.066;"
	 xml:space="preserve">
<g id="_x31_pin_1_">
	
		<rect x="0.183" y="0.183" style="fill:#F6F5F1;stroke:#010202;stroke-width:0.3649;stroke-miterlimit:10;" width="53.858" height="73.701"/>
	<circle style="fill:#801927;" cx="27.112" cy="37.033" r="0.821"/>
	<g>
		<path style="fill:#801927;" d="M25.29,37.625c-0.089-0.276-0.114-0.557-0.08-0.828l-2.175-0.264
			c-0.071,0.578-0.02,1.179,0.171,1.769c0.191,0.59,0.504,1.107,0.902,1.533l1.603-1.495C25.525,38.142,25.379,37.901,25.29,37.625z
			"/>
		<path style="fill:#801927;" d="M25.985,35.483c0.235-0.171,0.495-0.281,0.763-0.332l-0.421-2.15
			c-0.571,0.11-1.127,0.345-1.629,0.709c-0.502,0.365-0.897,0.822-1.179,1.332l1.916,1.062
			C25.566,35.867,25.751,35.654,25.985,35.483z"/>
		<path style="fill:#801927;" d="M27.922,38.769c-0.246,0.115-0.521,0.18-0.811,0.18c-0.291,0-0.566-0.064-0.812-0.18l-0.922,1.987
			c0.527,0.246,1.115,0.384,1.735,0.383c0.621,0,1.209-0.137,1.736-0.384L27.922,38.769z"/>
		<path style="fill:#801927;" d="M28.934,37.625c-0.09,0.276-0.236,0.518-0.423,0.717l1.605,1.491
			c0.397-0.425,0.709-0.941,0.901-1.531c0.192-0.59,0.243-1.192,0.171-1.77l-2.175,0.267C29.047,37.068,29.023,37.349,28.934,37.625
			z"/>
		<path style="fill:#801927;" d="M28.789,36.106l1.915-1.065c-0.282-0.509-0.677-0.966-1.178-1.331
			c-0.502-0.365-1.059-0.599-1.63-0.71l-0.418,2.151c0.267,0.051,0.527,0.161,0.762,0.331S28.657,35.867,28.789,36.106z"/>
		<path style="fill:#801927;" d="M29.336,25.849c-6.177-1.228-12.179,2.783-13.408,8.959s2.783,12.179,8.959,13.407
			s12.179-2.782,13.407-8.959C39.523,33.082,35.512,27.078,29.336,25.849z M36.774,35.111c0.119,0.594-0.312,1.178-0.962,1.308
			c-1.31,0.261-2.47,0.069-2.741-0.424c0.197,0.026,0.509,0.008,0.853-0.061c0.564-0.111,1-0.313,0.973-0.45
			c-0.028-0.136-0.507-0.156-1.07-0.043c-0.344,0.069-0.64,0.17-0.812,0.271c0.063-0.56,1.062-1.18,2.372-1.44
			C36.034,34.142,36.657,34.518,36.774,35.111z M35.303,31.56c0.337,0.503,0.163,1.208-0.389,1.577
			c-1.11,0.742-2.255,1.009-2.694,0.658c0.192-0.052,0.473-0.188,0.764-0.383c0.479-0.318,0.804-0.672,0.727-0.788
			c-0.078-0.115-0.528,0.05-1.005,0.37c-0.292,0.195-0.527,0.401-0.648,0.561c-0.155-0.541,0.53-1.497,1.64-2.238
			C34.249,30.948,34.968,31.057,35.303,31.56z M31.009,29.23c0.368-0.55,1.074-0.725,1.576-0.389
			c0.503,0.336,0.612,1.054,0.244,1.605c-0.742,1.11-1.698,1.795-2.238,1.639c0.158-0.121,0.366-0.354,0.56-0.646
			c0.32-0.478,0.485-0.929,0.37-1.006c-0.116-0.077-0.469,0.249-0.787,0.726c-0.195,0.292-0.333,0.572-0.384,0.766
			C30,31.485,30.267,30.34,31.009,29.23z M27.726,28.333c0.129-0.649,0.714-1.081,1.308-0.962c0.594,0.118,0.969,0.74,0.839,1.39
			c-0.26,1.31-0.881,2.308-1.44,2.37c0.1-0.172,0.202-0.467,0.271-0.811c0.113-0.564,0.093-1.044-0.043-1.071
			c-0.136-0.026-0.338,0.409-0.449,0.972c-0.069,0.344-0.088,0.656-0.062,0.854C27.657,30.803,27.465,29.643,27.726,28.333z
			 M25.189,27.371c0.593-0.118,1.178,0.313,1.308,0.963c0.26,1.31,0.069,2.469-0.423,2.741c0.026-0.197,0.007-0.509-0.061-0.854
			c-0.112-0.563-0.313-0.999-0.45-0.972c-0.136,0.027-0.156,0.506-0.043,1.07c0.069,0.344,0.17,0.64,0.271,0.812
			c-0.559-0.063-1.18-1.062-1.44-2.371C24.221,28.111,24.597,27.489,25.189,27.371z M21.638,28.842
			c0.503-0.336,1.209-0.162,1.577,0.389c0.742,1.11,1.009,2.255,0.658,2.695c-0.051-0.192-0.188-0.473-0.383-0.765
			c-0.319-0.478-0.671-0.803-0.787-0.726c-0.115,0.077,0.05,0.527,0.37,1.005c0.195,0.292,0.402,0.525,0.561,0.646
			c-0.541,0.156-1.496-0.529-2.238-1.639C21.026,29.897,21.136,29.178,21.638,28.842z M18.92,31.561
			c0.336-0.503,1.055-0.612,1.605-0.244c1.111,0.742,1.795,1.697,1.64,2.238c-0.121-0.158-0.354-0.365-0.647-0.56
			c-0.478-0.32-0.928-0.485-1.005-0.37c-0.077,0.115,0.249,0.468,0.726,0.787c0.292,0.195,0.573,0.332,0.766,0.383
			c-0.44,0.351-1.585,0.083-2.695-0.659C18.758,32.769,18.584,32.063,18.92,31.561z M17.449,35.112
			c0.118-0.593,0.74-0.969,1.39-0.84c1.31,0.261,2.308,0.881,2.371,1.44c-0.172-0.1-0.468-0.202-0.812-0.27
			c-0.563-0.113-1.043-0.093-1.07,0.043c-0.027,0.136,0.409,0.337,0.972,0.45c0.344,0.068,0.656,0.087,0.854,0.061
			c-0.272,0.493-1.433,0.684-2.742,0.423C17.763,36.291,17.332,35.705,17.449,35.112z M17.45,38.956
			c-0.118-0.593,0.313-1.178,0.963-1.308c1.31-0.26,2.47-0.069,2.742,0.423c-0.198-0.026-0.509-0.007-0.854,0.062
			c-0.563,0.111-1,0.313-0.973,0.449c0.027,0.136,0.507,0.155,1.07,0.043c0.344-0.069,0.64-0.17,0.812-0.271
			c-0.063,0.56-1.062,1.18-2.372,1.44C18.19,39.925,17.568,39.549,17.45,38.956z M18.921,42.508
			c-0.337-0.503-0.162-1.209,0.389-1.577c1.111-0.742,2.255-1.009,2.695-0.658c-0.192,0.052-0.473,0.188-0.765,0.383
			c-0.478,0.318-0.804,0.672-0.727,0.787s0.528-0.05,1.005-0.37c0.292-0.195,0.526-0.402,0.647-0.561
			c0.156,0.541-0.529,1.497-1.64,2.238C19.976,43.119,19.257,43.01,18.921,42.508z M23.216,44.836
			c-0.368,0.55-1.074,0.725-1.576,0.389c-0.503-0.336-0.612-1.055-0.244-1.605c0.742-1.111,1.698-1.795,2.238-1.64
			c-0.158,0.122-0.365,0.354-0.56,0.647c-0.32,0.478-0.486,0.928-0.37,1.005c0.116,0.077,0.468-0.248,0.788-0.726
			c0.194-0.292,0.332-0.572,0.383-0.766C24.225,42.582,23.958,43.727,23.216,44.836z M26.499,45.733
			c-0.129,0.649-0.714,1.081-1.307,0.962c-0.594-0.118-0.969-0.739-0.84-1.39c0.26-1.31,0.881-2.308,1.44-2.371
			c-0.099,0.172-0.202,0.467-0.27,0.812c-0.113,0.563-0.094,1.043,0.042,1.07s0.338-0.408,0.45-0.972
			c0.068-0.344,0.088-0.656,0.062-0.854C26.568,43.264,26.759,44.424,26.499,45.733z M22.513,38.527
			c-0.825-2.54,0.565-5.267,3.104-6.092c2.539-0.824,5.267,0.565,6.092,3.104c0.825,2.54-0.564,5.268-3.104,6.092
			C26.066,42.457,23.339,41.067,22.513,38.527z M29.035,46.695c-0.594,0.119-1.179-0.312-1.308-0.962
			c-0.261-1.31-0.069-2.47,0.423-2.741c-0.026,0.197-0.008,0.509,0.061,0.853c0.111,0.564,0.313,1,0.449,0.973
			c0.136-0.027,0.156-0.507,0.043-1.07c-0.069-0.344-0.17-0.64-0.27-0.812c0.559,0.063,1.18,1.062,1.44,2.371
			C30.003,45.956,29.628,46.578,29.035,46.695z M32.586,45.224c-0.503,0.337-1.209,0.163-1.577-0.389
			c-0.742-1.11-1.009-2.255-0.658-2.695c0.052,0.192,0.188,0.473,0.383,0.765c0.318,0.479,0.672,0.804,0.788,0.727
			c0.115-0.077-0.05-0.528-0.37-1.005c-0.195-0.292-0.401-0.526-0.56-0.647c0.541-0.156,1.497,0.529,2.238,1.64
			C33.198,44.17,33.089,44.889,32.586,45.224z M35.304,42.506c-0.336,0.504-1.054,0.612-1.605,0.244
			c-1.11-0.742-1.795-1.697-1.639-2.238c0.121,0.158,0.354,0.365,0.646,0.56c0.478,0.32,0.929,0.485,1.006,0.37
			c0.076-0.115-0.249-0.468-0.727-0.787c-0.292-0.195-0.572-0.333-0.766-0.383c0.44-0.351,1.585-0.084,2.695,0.658
			C35.465,41.298,35.64,42.003,35.304,42.506z M36.774,38.955c-0.118,0.594-0.74,0.969-1.39,0.84c-1.31-0.26-2.308-0.881-2.371-1.44
			c0.172,0.1,0.467,0.202,0.812,0.27c0.563,0.113,1.044,0.093,1.071-0.043c0.026-0.136-0.409-0.338-0.972-0.449
			c-0.344-0.068-0.656-0.088-0.854-0.062c0.273-0.493,1.433-0.684,2.742-0.423C36.461,37.776,36.893,38.361,36.774,38.955z"/>
	</g>
	<g>
		<path style="fill:#1F223A;" d="M41.366,22.779c-7.873-7.874-20.637-7.874-28.508,0c-7.874,7.872-7.874,20.636-0.001,28.508
			c7.873,7.873,20.637,7.873,28.509,0C49.24,43.415,49.24,30.651,41.366,22.779z M44.717,35.01c-0.852,0.288-2.68-1.86-2.98-1.354
			c-0.485,0.819,1.095,1.797,1.095,2.129c0,0.333-1.331,0.552-2.007,0.214c-0.677-0.339-1.25-2.842-0.669-3.648
			c0.912-0.73,3.344-0.791,4.135,0C45.082,33.142,45.568,34.723,44.717,35.01z M39.11,26.8c0.235,0.235-0.191,2.045,0.731,2.28
			c0.57,0.145,0.344-2.667,1.15-3.065c0.805-0.399,1.579,1.063,1.578,2.182c0.001,1.118-1.762,2.794-2.923,2.923
			c-0.981-0.158-2.345-2.334-2.107-3.051C37.779,27.35,38.875,26.565,39.11,26.8z M35.949,21.575c1.118,0,2.58,0.774,2.181,1.579
			c-0.399,0.806-3.21,0.58-3.065,1.15c0.235,0.922,2.045,0.497,2.28,0.731c0.236,0.235-0.55,1.332-1.268,1.57
			c-0.718,0.239-2.894-1.125-3.052-2.106C33.154,23.337,34.831,21.574,35.949,21.575z M28.36,21.313
			c0.333,0,1.311,1.582,2.129,1.095c0.506-0.301-1.642-2.128-1.354-2.98c0.287-0.851,1.868-0.365,2.659,0.426
			c0.791,0.791,0.73,3.223,0,4.135c-0.806,0.582-3.309,0.008-3.648-0.669C27.807,22.644,28.027,21.313,28.36,21.313z M22.429,19.854
			c0.791-0.791,2.372-1.277,2.659-0.426c0.288,0.852-1.86,2.679-1.354,2.98c0.818,0.487,1.796-1.095,2.129-1.095
			c0.333,0,0.553,1.331,0.214,2.007c-0.339,0.677-2.842,1.25-3.648,0.669C21.7,23.077,21.639,20.644,22.429,19.854z M18.275,21.575
			c1.118,0,2.794,1.763,2.924,2.924c-0.158,0.981-2.334,2.345-3.052,2.106c-0.718-0.239-1.503-1.335-1.268-1.57
			c0.235-0.235,2.045,0.191,2.28-0.731c0.146-0.571-2.666-0.345-3.064-1.149C15.695,22.349,17.157,21.575,18.275,21.575z
			 M13.232,26.015c0.805,0.398,0.58,3.21,1.15,3.064c0.923-0.235,0.496-2.044,0.731-2.28s1.331,0.55,1.57,1.268
			c0.239,0.718-1.125,2.894-2.106,3.052c-1.161-0.129-2.924-1.806-2.924-2.924C11.653,27.078,12.427,25.616,13.232,26.015z
			 M9.933,32.351c0.79-0.791,3.222-0.729,4.135,0c0.581,0.806,0.008,3.309-0.668,3.648c-0.677,0.339-2.007,0.119-2.007-0.214
			c0-0.333,1.581-1.311,1.095-2.129c-0.301-0.506-2.129,1.642-2.98,1.354C8.655,34.723,9.142,33.142,9.933,32.351z M9.506,39.057
			c0.851-0.288,2.679,1.86,2.98,1.354c0.486-0.818-1.094-1.797-1.095-2.129s1.33-0.552,2.007-0.213
			c0.676,0.339,1.25,2.842,0.669,3.647c-0.913,0.73-3.345,0.791-4.135,0C9.142,40.925,8.655,39.344,9.506,39.057z M15.113,47.267
			c-0.235-0.235,0.191-2.044-0.731-2.28c-0.57-0.146-0.345,2.666-1.15,3.065c-0.805,0.398-1.579-1.063-1.579-2.182
			c0-1.118,1.763-2.794,2.923-2.924c0.981,0.158,2.346,2.334,2.107,3.052C16.444,46.717,15.349,47.501,15.113,47.267z
			 M18.274,52.492c-1.118,0-2.58-0.774-2.181-1.579c0.398-0.805,3.21-0.58,3.064-1.15c-0.235-0.922-2.044-0.497-2.28-0.731
			s0.55-1.331,1.268-1.57c0.718-0.239,2.894,1.125,3.052,2.106C21.069,50.729,19.393,52.492,18.274,52.492z M25.863,52.753
			c-0.333,0-1.311-1.581-2.129-1.095c-0.506,0.301,1.642,2.128,1.354,2.98s-1.868,0.365-2.659-0.426
			c-0.791-0.79-0.729-3.222,0-4.134c0.806-0.582,3.309-0.008,3.648,0.668C26.416,51.423,26.196,52.753,25.863,52.753z
			 M14.615,37.033c0-6.902,5.595-12.497,12.497-12.497s12.497,5.595,12.497,12.497S34.014,49.53,27.112,49.53
			S14.615,43.935,14.615,37.033z M31.793,54.213c-0.791,0.791-2.371,1.277-2.658,0.426c-0.288-0.852,1.86-2.68,1.354-2.98
			c-0.819-0.486-1.797,1.094-2.129,1.095c-0.333,0-0.552-1.331-0.214-2.007c0.339-0.676,2.842-1.25,3.648-0.669
			C32.524,50.99,32.585,53.422,31.793,54.213z M35.948,52.492c-1.118,0-2.794-1.762-2.923-2.923
			c0.158-0.981,2.334-2.346,3.051-2.107c0.719,0.24,1.503,1.335,1.269,1.571s-2.044-0.191-2.28,0.731
			c-0.145,0.571,2.666,0.344,3.065,1.15C38.529,51.718,37.067,52.492,35.948,52.492z M40.992,48.052
			c-0.806-0.399-0.58-3.21-1.15-3.065c-0.923,0.235-0.497,2.044-0.731,2.28c-0.235,0.235-1.332-0.55-1.57-1.268
			c-0.239-0.718,1.125-2.894,2.106-3.052c1.161,0.129,2.924,1.806,2.923,2.924C42.57,46.988,41.796,48.45,40.992,48.052z
			 M40.157,41.716c-0.583-0.806-0.008-3.309,0.667-3.648c0.678-0.338,2.007-0.119,2.008,0.213c0,0.333-1.581,1.311-1.095,2.13
			c0.301,0.506,2.129-1.642,2.98-1.354c0.851,0.287,0.365,1.868-0.427,2.659C43.5,42.507,41.069,42.445,40.157,41.716z"/>
		<path style="fill:#1F223A;" d="M27.112,14.229c-12.595,0-22.805,10.21-22.805,22.805s10.21,22.805,22.805,22.805
			c12.594,0,22.804-10.21,22.804-22.805S39.706,14.229,27.112,14.229z M27.112,58.179c-11.679,0-21.146-9.467-21.146-21.146
			c0-11.679,9.467-21.146,21.146-21.146c11.678,0,21.146,9.467,21.146,21.146C48.257,48.711,38.79,58.179,27.112,58.179z"/>
	</g>
</g>
</svg>
