<?xml version="1.0" encoding="iso-8859-1"?>
<!-- Generator: Adobe Illustrator 15.0.0, SVG Export Plug-In . SVG Version: 6.00 Build 0)  -->
<!DOCTYPE svg PUBLIC "-//W3C//DTD SVG 1.1//EN" "http://www.w3.org/Graphics/SVG/1.1/DTD/svg11.dtd">
<svg version="1.1" id="Jihai" xmlns="http://www.w3.org/2000/svg" xmlns:xlink="http://www.w3.org/1999/xlink" x="0px" y="0px"
	 width="54.224px" height="74.066px" viewBox="0 0 54.224 74.066" style="enable-background:new 0 0 54.224 74.066;"
	 xml:space="preserve">
<g id="Ton">
	
		<rect x="0.183" y="0.183" style="fill:#F6F5F1;stroke:#010202;stroke-width:0.3649;stroke-miterlimit:10;" width="53.858" height="73.701"/>
	<g>
		<g>
			<path d="M3.699,54.9c1.916-0.724,3.694-1.693,5.317-2.878c1.633-1.164,3.137-2.491,4.543-3.909
				c1.408-1.428,2.528-3.099,3.947-4.504c1.41-1.428,2.825-2.859,4.498-4.204l0.219,0.131c-0.5,2.13-1.547,3.988-2.756,5.71
				c-1.209,1.738-2.908,3.056-4.536,4.381c-1.629,1.333-3.381,2.526-5.253,3.488C7.8,54.054,5.816,54.812,3.77,55.146L3.699,54.9z"
				/>
		</g>
		<g>
			<path d="M26.429,39.278c2.964,1.054,5.233,2.54,7.311,4.121c2.048,1.586,3.863,3.349,5.426,4.986
				c0.373,0.417,0.754,0.798,1.072,1.117l0.373,0.4c0.064,0.09,0.153,0.127-0.18,0.039c-0.098-0.027-0.205-0.052-0.411-0.09
				c-0.07-0.008-0.212-0.032-0.355-0.042l-0.209-0.006c-0.032,0.002,0.026,0.006,0.034,0.01l0.479,0.083
				c0.312,0.047,0.631,0.128,0.945,0.196c0.633,0.129,1.264,0.298,1.897,0.474c1.268,0.366,2.536,0.793,3.846,1.368
				c0.656,0.302,1.326,0.601,2.028,1.039c0.349,0.222,0.714,0.453,1.057,0.751c0.333,0.324,0.624,0.684,0.754,1.09l-0.297,0.416
				c-0.491-0.343-1.075-0.45-1.704-0.495c-0.625-0.044-1.27-0.041-1.913-0.04l-3.88-0.044l-1.943-0.038l-0.972-0.025l-0.485-0.014
				c-0.191-0.002-0.454-0.056-0.623-0.127c-0.719-0.299-1.228-0.73-1.746-1.157c-0.507-0.436-0.982-0.893-1.442-1.36
				c-1.793-1.916-3.399-3.955-4.978-6.016c-0.785-1.032-1.56-2.072-2.317-3.124c-0.739-1.065-1.468-2.136-2.184-3.22L26.429,39.278z
				"/>
		</g>
		<g>
			<path d="M15.963,22.5c1.473,0.171,3.035,0.065,4.324-0.423c1.4-0.586,2.846-1.154,4.269-1.707
				c0.552-0.229,1.259-0.67,1.944-1.006c0.695-0.348,1.438-0.592,2.215-0.751c0.779-0.153,1.583-0.257,2.436-0.23
				c0.818,0.035,1.966,0.09,2.625,0.986l-0.213,0.25c-0.341,0.069-0.674,0.222-0.968,0.396c-0.146,0.089-0.307,0.17-0.43,0.267
				c-0.053,0.042-0.149,0.102-0.235,0.146l-0.065,0.036l-0.017,0.009l-0.004,0.003c0.046-0.011,0.011-0.002,0.02-0.003l-0.007,0.004
				l-0.03,0.019l-0.118,0.073c-0.63,0.408-1.285,0.772-1.955,1.108c-0.672,0.332-1.369,0.607-2.11,0.789
				c-0.759,0.168-1.458,0.349-2.392,0.495c-1.536,0.232-3.049,0.452-4.623,0.584c-1.706,0.127-3.293-0.091-4.767-0.733L15.963,22.5z
				"/>
		</g>
		<g>
			<path d="M9.336,27.43c1.104,0.988,2.146,2.025,3.22,3.037c1.055,1.027,2.09,2.07,3.106,3.129c1.019,1.057,2.239,1.95,2.994,3.222
				c0.77,1.259,1.45,2.59,1.747,4.233l-0.227,0.184c-1.547-0.627-2.712-1.565-3.786-2.577c-1.09-0.999-1.714-2.376-2.54-3.589
				c-0.828-1.212-1.638-2.438-2.428-3.682c-0.77-1.259-1.572-2.491-2.313-3.773L9.336,27.43z"/>
		</g>
		<g>
			<path d="M11.507,29.794c2.331-0.779,4.677-1.496,7.023-2.218c2.345-0.729,4.699-1.423,7.063-2.092
				c2.366-0.677,4.732-1.287,7.162-1.882c0.623-0.143,1.203-0.296,1.939-0.428l0.321-0.044c0.192,0.006,0.146-0.067,0.809,0.048
				c0.099,0.023,0.196,0.055,0.29,0.09l0.152,0.067l0.054,0.021c0.065,0.029,0.215,0.111,0.313,0.172
				c0.145,0.09,0.25,0.161,0.346,0.23c0.38,0.273,0.642,0.501,0.911,0.735c1.044,0.915,1.87,1.824,2.684,2.845l1.765,2.216
				l-2.545,1.22c-0.327,0.157-0.65,0.322-0.98,0.473l0.929-0.86c-1.1,1.684-2.317,3.296-3.614,4.861
				c-1.325,1.548-2.694,3.069-4.34,4.426l-0.375-0.225c0.422-2.09,1.12-4.015,1.862-5.912c0.771-1.881,1.62-3.715,2.588-5.477
				l0.276-0.503l0.652-0.357c0.318-0.174,0.645-0.333,0.967-0.5l-0.78,3.436L34.9,27.402l-0.428-0.516
				c-0.021-0.027-0.04-0.047-0.021-0.044c0.033,0.021,0.119,0.06,0.117,0.053l-0.049-0.03l-0.012-0.008l-0.007-0.004
				c-0.093-0.043,0.114,0.052,0.119,0.054c0.075,0.031,0.154,0.058,0.235,0.078c0.512,0.084,0.311,0.021,0.352,0.031
				c-0.039-0.003-0.073-0.008-0.136-0.007c-0.479-0.001-1.104,0.057-1.687,0.125c-2.384,0.276-4.803,0.682-7.221,1.021l-7.271,1.045
				l-7.288,1.019L11.507,29.794z"/>
		</g>
		<g>
			<path d="M14.724,34.722c1.702-0.636,3.425-1.187,5.142-1.771c1.724-0.559,3.455-1.087,5.203-1.574
				c0.874-0.244,1.739-0.538,2.621-0.804c0.443-0.125,0.891-0.235,1.355-0.313c0.232-0.032,0.469-0.072,0.718-0.092
				c0.27-0.013,0.468-0.035,0.899-0.02c0.044,0.003,0.134,0.011,0.229,0.025c0.008-0.012,0.415,0.093,0.434,0.118l0.167,0.088
				l0.316,0.175c0.201,0.123,0.4,0.237,0.593,0.365c0.381,0.264,0.77,0.502,1.133,0.795c0.74,0.557,1.453,1.167,2.097,1.923
				l-0.121,0.266c-0.993,0.005-1.919-0.133-2.82-0.317c-0.457-0.078-0.89-0.209-1.332-0.311l-0.646-0.177l-0.305-0.088l-0.146-0.04
				c-0.034,0.008,0.319,0.096,0.271,0.081c0.038,0.009,0.072,0.011,0.061,0.015c-0.02,0.013-0.27,0.049-0.446,0.089l-0.618,0.104
				c-0.425,0.065-0.863,0.114-1.306,0.154c-0.889,0.065-1.789,0.129-2.679,0.25c-1.778,0.245-3.566,0.486-5.358,0.712
				c-1.798,0.2-3.588,0.45-5.394,0.632L14.724,34.722z"/>
		</g>
		<g>
			<path d="M17.858,40.505c0.609-0.377,1.222-0.655,1.833-0.936c0.617-0.071,1.238-0.049,1.856-0.077l3.714-0.102l-0.084,0.007
				l4.054-0.492c0.675-0.091,1.354-0.143,2.024-0.267c0.707,0.171,1.419,0.39,2.14,0.681c-0.631,0.455-1.27,0.837-1.915,1.173
				c-0.681,0.039-1.353,0.151-2.029,0.225l-4.054,0.491l-0.043,0.006l-0.043,0.001l-3.714,0.101
				c-0.619,0.005-1.237,0.062-1.858,0.023C19.113,41.093,18.487,40.849,17.858,40.505z"/>
		</g>
		<g>
			<g>
				<path d="M16.787,51.063c0.735,0.931,8.355,9.698,5.477,11.491c1.942,2.269,3.886,4.537,5.829,6.806
					c-0.295-10.055-0.532-20.111-0.705-30.168c-0.107-6.289-0.205-12.582-0.121-18.872c0.022-1.632-0.044-3.354,0.241-4.969
					c0.264-1.486,2.492-1.05,3.11-1.919c0.761-1.069-4.417-6.732-5.563-7.024c-2.127-0.541-4.918-0.046-7.071-0.043
					c-0.245,0.001,2.239,3.739,2.399,3.933c0.652,0.793,2.199,3.11,3.399,3.108c1.979-0.003,4.651-0.485,6.6,0.011
					c-1.854-2.342-3.709-4.684-5.563-7.024c-0.494,0.694-2.219,0.799-2.922,1.572c-0.703,0.772-0.421,3.03-0.449,3.958
					c-0.195,6.204-0.045,12.428,0.049,18.633c0.162,10.746,0.423,21.492,0.737,32.234c0.033,1.116,4.843,7.42,5.829,6.806
					c3.817-2.378-7.698-16.1-8.77-17.454c-1.019-1.289-2.333-3.364-3.916-4.043C14.703,47.81,16.64,50.878,16.787,51.063
					L16.787,51.063z"/>
			</g>
		</g>
	</g>
</g>
</svg>
