<?xml version="1.0" encoding="iso-8859-1"?>
<!-- Generator: Adobe Illustrator 15.0.0, SVG Export Plug-In . SVG Version: 6.00 Build 0)  -->
<!DOCTYPE svg PUBLIC "-//W3C//DTD SVG 1.1//EN" "http://www.w3.org/Graphics/SVG/1.1/DTD/svg11.dtd">
<svg version="1.1" id="Souzu" xmlns="http://www.w3.org/2000/svg" xmlns:xlink="http://www.w3.org/1999/xlink" x="0px" y="0px"
	 width="54.223px" height="74.066px" viewBox="0 0 54.223 74.066" style="enable-background:new 0 0 54.223 74.066;"
	 xml:space="preserve">
<g id="_x32_sou">
	
		<rect x="0.183" y="0.183" style="fill:#F6F5F1;stroke:#010202;stroke-width:0.3649;stroke-miterlimit:10;" width="53.858" height="73.701"/>
	<path id="Sou_14_" style="fill:#003C14;" d="M33.528,19.734c0-1.267-0.862-2.4-2.22-3.169v-5.808
		c1.358-0.599,2.22-1.479,2.22-2.464c0-1.802-2.873-3.262-6.416-3.262c-3.543,0-6.416,1.46-6.416,3.262
		c0,0.985,0.862,1.866,2.22,2.464v5.808c-1.357,0.769-2.22,1.902-2.22,3.169c0,1.267,0.862,2.4,2.22,3.169v6.255
		c-1.357,0.598-2.22,1.479-2.22,2.464c0,1.117,1.229,2.691,2.789,2.691s2.281-1.253,3.627-1.253s2.067,1.253,3.627,1.253
		s2.789-1.574,2.789-2.691c0-0.985-0.862-1.866-2.22-2.464v-6.255C32.666,22.134,33.528,21.001,33.528,19.734z M28.267,31.395
		h-2.311v-8.803h2.311V31.395z M27.112,21.406c-1.066,0-1.931-0.388-1.931-0.866c0-0.479,0.865-0.867,1.931-0.867
		s1.931,0.388,1.931,0.867C29.042,21.018,28.178,21.406,27.112,21.406z M27.112,18.807c-1.066,0-1.931-0.388-1.931-0.866
		s0.865-0.867,1.931-0.867s1.931,0.388,1.931,0.867S28.178,18.807,27.112,18.807z M28.267,10.135v5.524h-2.311v-5.524
		c-0.468-0.333-0.775-0.857-0.775-1.454c0-1.007,0.865-1.824,1.931-1.824s1.931,0.817,1.931,1.824
		C29.042,9.278,28.735,9.802,28.267,10.135z"/>
	<path id="Sou_13_" style="fill:#003C14;" d="M33.528,54.455c0-1.267-0.862-2.4-2.22-3.169v-5.808
		c1.358-0.599,2.22-1.479,2.22-2.464c0-1.802-2.873-3.262-6.416-3.262c-3.543,0-6.416,1.46-6.416,3.262
		c0,0.985,0.862,1.866,2.22,2.464v5.808c-1.357,0.769-2.22,1.902-2.22,3.169c0,1.267,0.862,2.4,2.22,3.17v6.255
		c-1.357,0.599-2.22,1.479-2.22,2.464c0,1.118,1.229,2.692,2.789,2.692s2.281-1.254,3.627-1.254s2.067,1.254,3.627,1.254
		s2.789-1.574,2.789-2.692c0-0.984-0.862-1.865-2.22-2.464v-6.255C32.666,56.855,33.528,55.722,33.528,54.455z M28.267,66.116
		h-2.311v-8.803h2.311V66.116z M27.112,56.126c-1.066,0-1.931-0.388-1.931-0.867s0.865-0.867,1.931-0.867s1.931,0.388,1.931,0.867
		S28.178,56.126,27.112,56.126z M27.112,53.527c-1.066,0-1.931-0.388-1.931-0.867s0.865-0.866,1.931-0.866s1.931,0.388,1.931,0.866
		S28.178,53.527,27.112,53.527z M28.267,44.856v5.524h-2.311v-5.524c-0.468-0.333-0.775-0.857-0.775-1.454
		c0-1.007,0.865-1.825,1.931-1.825s1.931,0.817,1.931,1.825C29.042,43.999,28.735,44.523,28.267,44.856z"/>
</g>
</svg>
