<?xml version="1.0" encoding="iso-8859-1"?>
<!-- Generator: Adobe Illustrator 15.0.0, SVG Export Plug-In . SVG Version: 6.00 Build 0)  -->
<!DOCTYPE svg PUBLIC "-//W3C//DTD SVG 1.1//EN" "http://www.w3.org/Graphics/SVG/1.1/DTD/svg11.dtd">
<svg version="1.1" id="Manzu" xmlns="http://www.w3.org/2000/svg" xmlns:xlink="http://www.w3.org/1999/xlink" x="0px" y="0px"
	 width="54.224px" height="74.065px" viewBox="0 0 54.224 74.065" style="enable-background:new 0 0 54.224 74.065;"
	 xml:space="preserve">
<g id="_x33_man_1_">
	
		<rect x="0.183" y="0.183" style="fill:#F6F5F1;stroke:#010202;stroke-width:0.3649;stroke-miterlimit:10;" width="53.858" height="73.7"/>
	<g id="_x33_man">
		<g id="MAN_2_">
			<g>
				<path style="fill:#9E1915;" d="M13.225,39.813c2.946,0.353,5.696,1.117,8.095,0.986c1.324-0.04,2.837-0.058,4.23-0.386
					c1.403-0.325,2.738-0.885,4.067-1.511c1.326-0.638,2.699-1.195,4.153-1.551c1.446-0.386,2.959-0.649,4.446-0.688
					c2.976-0.028,5.92,0.381,8.718,1.496l-0.029,0.254c-2.932,0.525-5.764,0.714-8.543,0.974c-1.389,0.115-2.749,0.154-4.128,0.333
					c-1.374,0.199-2.79,0.376-4.233,0.527c-1.441,0.165-2.858,0.46-4.217,0.956c-1.37,0.478-2.625,1.292-4.149,1.704
					c-0.786,0.214-1.665,0.234-2.445,0.101c-0.791-0.115-1.534-0.331-2.244-0.602c-1.409-0.57-2.723-1.298-3.832-2.362
					L13.225,39.813z"/>
			</g>
			<g>
				<path style="fill:#9E1915;" d="M25.088,37.252c0.045-0.309,0.104-0.604,0.173-0.887c0.075-0.277,0.143-0.563,0.24-0.817
					c0.208-0.14,0.364-0.335,0.548-0.5l0.532-0.517l2.633-2.557l-1.134,3.506c-0.118,0.366-0.231,0.823-0.317,1.247
					c-0.089,0.433-0.159,0.871-0.212,1.31s-0.086,0.881-0.102,1.321c0.001,0.11-0.015,0.22,0.001,0.331
					c0.041,0.056-0.013,0.11-0.069,0.165l-0.153,0.167c-0.197,0.226-0.426,0.46-0.673,0.709c-0.271-0.218-0.521-0.451-0.722-0.693
					l-0.155-0.184c-0.057-0.062-0.109-0.124-0.067-0.186c0.017-0.124,0.009-0.247,0.016-0.371c0.018-0.494,0.055-0.987,0.113-1.476
					c0.059-0.49,0.137-0.976,0.235-1.46c0.104-0.492,0.21-0.946,0.379-1.471l1.499,0.949l-0.532,0.517
					c-0.171,0.179-0.37,0.329-0.517,0.534c-0.257,0.09-0.545,0.148-0.824,0.216C25.694,37.167,25.397,37.216,25.088,37.252z"/>
			</g>
			<g>
				<path style="fill:#9E1915;" d="M32.931,28.865c0.149,0.237,0.399,0.406,0.974,0.794c0.269,0.194,0.653,0.486,0.925,0.971
					c0.274,0.487,0.309,1.012,0.268,1.395c-0.095,0.761-0.379,1.298-0.632,1.786c-0.262,0.484-0.539,0.932-0.821,1.375
					c-1.137,1.757-2.354,3.412-3.6,5.052c0.823-1.881,1.619-3.784,2.288-5.691c0.308-0.92,0.68-2.005,0.576-2.58
					c-0.031-0.124-0.08-0.126-0.086-0.072c-0.002,0.048-0.043,0.029-0.213-0.033c-0.308-0.117-1.021-0.344-1.62-0.817L32.931,28.865
					z"/>
			</g>
			<path style="fill:none;stroke:#9E1915;stroke-width:2.5541;stroke-miterlimit:10;" d="M21.865,44.914
				c0,0-0.608,8.392,0.486,9.852"/>
			<g>
				<path style="fill:#9E1915;" d="M20.622,44.849c1.341-0.314,2.678-0.464,3.828-0.784c0.27-0.065,0.567-0.159,0.679-0.247
					c0.188-0.071,0.191-0.109,0.354-0.185l0.402-0.218l1.746-0.86c0.596-0.303,1.216-0.559,1.867-0.802
					c0.659-0.244,1.309-0.485,2.153-0.668c0.215-0.042,0.451-0.069,0.728-0.086c0.3-0.004,0.586-0.035,1.169,0.112l0.208,0.062
					c0.079,0.027,0.19,0.077,0.282,0.121c0.19,0.096,0.36,0.182,0.608,0.404c0.223,0.198,0.413,0.42,0.57,0.728
					c0.076,0.147,0.141,0.301,0.189,0.454c0.034,0.126,0.062,0.257,0.08,0.39c0.018,0.133,0.027,0.267,0.029,0.398l-0.002,0.113
					l-0.003,0.135l-0.017,0.325c-0.053,0.742-0.104,1.389-0.196,2.05c-0.216,1.302-0.396,2.583-0.644,3.842
					c-0.257,1.261-0.524,2.509-0.624,3.48c-0.124,2.453-0.166,5.135-0.632,7.82l-0.252,0.043c-0.461-2.561-0.91-5.118-1.127-7.728
					c-0.115-1.338,0.12-2.633,0.255-3.923l0.498-3.865c0.081-0.642,0.173-1.286,0.229-1.922c0.012-0.14,0.031-0.352,0.021-0.433
					c-0.005-0.052-0.025-0.078-0.147-0.118c-0.233-0.065-0.565-0.033-0.867,0.008c-1.245,0.201-2.484,0.623-3.713,1.022
					l-1.851,0.616c-0.309,0.098-0.628,0.2-0.954,0.271c-0.346,0.07-0.675,0.087-1.008,0.094c-1.323-0.003-2.614-0.183-3.902-0.398
					L20.622,44.849z"/>
			</g>
			<g>
				<path style="fill:#9E1915;" d="M20.987,48.469c1.161-0.013,2.324-0.028,3.46-0.142c0.563-0.061,1.133-0.124,1.631-0.264
					c0.484-0.163,1.105-0.364,1.646-0.527c1.126-0.31,2.212-0.816,3.381-0.949c1.165-0.107,2.37-0.171,3.615,0.29l-0.002,0.183
					c-1.072,0.597-2.144,1.039-3.257,1.349c-1.108,0.313-2.293,0.287-3.43,0.487l-1.743,0.268c-0.644,0.069-1.238,0.051-1.834,0.004
					c-1.184-0.103-2.34-0.269-3.486-0.516L20.987,48.469z"/>
			</g>
			<g>
				<path style="fill:#9E1915;" d="M20.968,52.944c1.065-0.091,2.129-0.179,3.186-0.296c1.046-0.128,2.132-0.245,3.077-0.496
					l1.498-0.542c0.51-0.179,1.006-0.422,1.527-0.573c0.521-0.153,1.074-0.172,1.637-0.143c0.56,0.044,1.154,0.121,1.722,0.457
					l-0.002,0.183c-0.98,0.668-1.906,1.146-2.948,1.342c-0.52,0.08-1.062,0.081-1.589,0.155l-1.606,0.231
					c-1.151,0.152-2.207,0.112-3.29,0.077c-1.075-0.043-2.145-0.107-3.213-0.214L20.968,52.944z"/>
			</g>
			<g>
				<path style="fill:#9E1915;" d="M16.635,51.443c0.721,1.111,1.201,2.255,1.618,3.405c0.409,1.146,0.728,2.319,1.011,3.432
					c0.073,0.297,0.125,0.495,0.221,0.811l0.228,0.9c0.134,0.6,0.25,1.202,0.329,1.814c0.158,1.224,0.234,2.47,0.061,3.785
					c-0.848-1.02-1.452-2.108-1.985-3.214c-0.267-0.553-0.499-1.115-0.721-1.677l-0.313-0.841c-0.094-0.262-0.214-0.647-0.291-0.939
					c-0.312-1.244-0.458-2.458-0.505-3.7C16.255,53.979,16.312,52.729,16.635,51.443z"/>
			</g>
			<g>
				<path style="fill:#9E1915;" d="M11.162,57.502c0.907,0.681,1.951,1.161,2.998,1.357c0.524,0.088,1.056,0.109,1.549,0.03
					c0.483-0.095,1.054-0.259,1.588-0.407c2.18-0.591,4.381-1.194,6.611-1.676c4.46-0.974,9.009-1.724,13.763-1.483
					c1.189,0.095,2.393,0.259,3.607,0.623c1.193,0.369,2.487,0.925,3.468,2.073c0.996,1.15,1.298,2.777,1.057,4.131
					c-0.11,0.715-0.434,1.486-0.971,2.07c-0.539,0.588-1.222,0.942-1.866,1.154c-1.307,0.408-2.541,0.404-3.726,0.307
					c-1.185-0.113-2.326-0.327-3.448-0.587c-1.118-0.279-2.218-0.584-3.304-0.925c-1.091-0.32-2.152-0.726-3.265-0.951
					c1.146-0.043,2.287,0.133,3.413,0.258c1.128,0.134,2.245,0.288,3.36,0.38c1.111,0.108,2.221,0.183,3.3,0.151
					c1.068-0.036,2.143-0.138,2.976-0.501c0.849-0.378,1.224-0.894,1.317-1.686c0.085-0.872-0.137-1.666-0.671-2.216
					c-0.526-0.568-1.38-1-2.342-1.263c-0.96-0.273-2.016-0.401-3.082-0.472c-2.142-0.167-4.358-0.042-6.569,0.138
					c-2.219,0.161-4.437,0.473-6.668,0.753l-6.718,0.946c-0.577,0.064-1.114,0.141-1.758,0.165
					c-0.637-0.002-1.245-0.117-1.811-0.334C12.841,59.111,11.891,58.379,11.162,57.502z"/>
			</g>
			<g>
				<path style="fill:#9E1915;" d="M26.938,44.124c-0.336,0.745-0.322,1.554-0.367,2.346c-0.036,0.794-0.027,1.594-0.032,2.391
					c0.017,1.596,0.019,3.192,0.062,4.787c0.012,1.595,0.058,3.189,0.106,4.777l0.114,2.414l0.021,1.224l0.001,0.151l0.001,0.07
					c0,0.009,0.001,0.023-0.002,0.021l-0.015-0.026c-0.062,0.023,0.14-0.073-0.275-0.066c-0.09,0.066-0.079,0.106-0.091,0.138
					c-0.001,0.02,0.001,0.017,0.002,0.015c0.015-0.078,0.019-0.192,0.028-0.291l0.057-0.619l0.217,0.586
					c0.032,0.103,0.063,0.19,0.09,0.313c0.001,0.011,0.004,0.021,0.001,0.054c-0.013,0.034-0.002,0.079-0.095,0.146
					c-0.418,0.006-0.217-0.094-0.281-0.073l-0.021-0.043l-0.022-0.053l-0.032-0.078l-0.059-0.147
					c-0.15-0.389-0.272-0.78-0.406-1.169c-0.235-0.78-0.482-1.565-0.644-2.39c-0.347-1.63-0.474-3.278-0.518-4.924
					c-0.007-1.646,0.069-3.295,0.348-4.932c0.13-0.818,0.319-1.632,0.57-2.434C25.98,45.541,26.25,44.661,26.938,44.124z"/>
			</g>
			<g>
				<path style="fill:#9E1915;" d="M21.711,62.29c0.139,0.205,0.255,0.415,0.375,0.623l-0.489-0.254
					c1.436-0.904,2.949-1.661,4.484-2.432c0.756-0.42,1.562-0.702,2.395-0.831c0.829-0.144,1.667-0.237,2.6-0.155l0.066,0.17
					c-0.625,0.7-1.365,1.176-2.121,1.575c-0.754,0.413-1.538,0.661-2.354,0.824c-1.61,0.39-3.169,0.98-4.777,1.481l-0.56,0.174
					l0.07-0.428c0.039-0.237,0.073-0.474,0.131-0.715L21.711,62.29z"/>
			</g>
		</g>
		<g>
			<g>
				<path style="fill:#010202;" d="M12.426,24.622c2.861,0.208,5.812,0.216,8.473-0.515c1.268-0.362,2.588-1.027,3.921-1.598
					c1.342-0.575,2.71-1.134,4.115-1.625c2.792-0.976,5.763-1.944,8.858-1.782c3.059,0.133,6.152,0.979,8.594,2.79l-0.105,0.272
					c-2.971-0.277-5.703-0.383-8.438-0.144c-2.707,0.258-5.482,0.405-8.235,1.1c-1.371,0.343-2.734,0.759-4.104,1.206
					c-1.388,0.415-2.734,0.936-4.3,1.208c-1.521,0.224-3.016,0.2-4.486,0.08c-1.471-0.123-2.918-0.355-4.342-0.706L12.426,24.622z"
					/>
			</g>
			<g>
				<path style="fill:#010202;" d="M19.966,11.007c1.485-0.656,2.989-1.246,4.484-1.868c1.5-0.603,3.003-1.194,4.517-1.752
					c0.756-0.281,1.512-0.566,2.256-0.886c0.746-0.316,1.49-0.64,2.265-0.858c1.55-0.433,3.169-0.625,4.846-0.622l-0.542,0.636
					c0.221-0.466,0.469-0.93,0.792-1.383l0.289,0.036c0.202,0.519,0.329,1.029,0.429,1.535l0.05,0.257l-0.593,0.379
					c-1.412,0.903-2.883,1.61-4.423,2.077c-0.771,0.231-1.571,0.357-2.37,0.491c-0.801,0.13-1.591,0.295-2.379,0.463
					c-1.577,0.341-3.163,0.649-4.753,0.945c-1.595,0.277-3.181,0.586-4.785,0.83L19.966,11.007z"/>
			</g>
			<g>
				<path style="fill:#010202;" d="M17.808,16.726c0.912-0.106,1.796-0.131,2.668-0.199c0.433-0.023,0.861-0.045,1.276-0.093
					c0.406-0.053,0.841-0.084,1.068-0.196c1.472-0.54,3.123-1.266,4.719-1.867c1.612-0.623,3.248-1.201,4.905-1.73
					c1.662-0.541,3.341-0.962,5.066-1.493c-1.171,1.448-2.736,2.412-4.252,3.329c-1.544,0.888-3.148,1.643-4.805,2.277
					c-1.681,0.623-3.304,1.178-5.242,1.446c-0.632,0.076-1.084-0.023-1.549-0.103c-0.46-0.095-0.902-0.204-1.339-0.332
					C19.458,17.482,18.613,17.173,17.808,16.726z"/>
			</g>
		</g>
	</g>
</g>
</svg>
