<?xml version="1.0" encoding="iso-8859-1"?>
<!-- Generator: Adobe Illustrator 15.0.0, SVG Export Plug-In . SVG Version: 6.00 Build 0)  -->
<!DOCTYPE svg PUBLIC "-//W3C//DTD SVG 1.1//EN" "http://www.w3.org/Graphics/SVG/1.1/DTD/svg11.dtd">
<svg version="1.1" id="Jihai" xmlns="http://www.w3.org/2000/svg" xmlns:xlink="http://www.w3.org/1999/xlink" x="0px" y="0px"
	 width="54.224px" height="74.066px" viewBox="0 0 54.224 74.066" style="enable-background:new 0 0 54.224 74.066;"
	 xml:space="preserve">
<g id="Pei">
	
		<rect x="0.183" y="0.183" style="fill:#F6F5F1;stroke:#010202;stroke-width:0.3649;stroke-miterlimit:10;" width="53.858" height="73.701"/>
	<g>
		<g>
			<g>
				<path d="M32.091,16.932c-1.764,1.388-3.527,2.776-5.29,4.165c-0.335,0.264,0.857,1.538,0.978,1.674
					c2.013,2.273,0.601,9.729,0.615,12.461c0.024,4.644-0.22,10.171,1.493,14.578c2.958,7.616,11.558,6.016,17.856,4.138
					c-0.012,0.004-2.32-3.997-3.611-3.611c-3.519,1.048-7.267,1.833-10.946,1.493c-2.105-0.194,0.805,2.7,0.082,0.363
					c-0.234-0.758-0.352-1.558-0.486-2.337c-0.398-2.312-0.503-4.684-0.61-7.023c-0.297-6.442,1.866-14.6-2.736-19.798
					c0.326,0.558,0.652,1.116,0.978,1.674c1.764-1.388,3.527-2.776,5.29-4.165C36.161,20.182,32.815,16.36,32.091,16.932
					L32.091,16.932z"/>
			</g>
		</g>
		<g>
			<path d="M20.031,24.4c0.721-0.146,1.431-0.188,2.153-0.177c0.356,0.018,0.719,0.047,1.092,0.097
				c0.183,0.03,0.391,0.037,0.535,0.146c0.141,0.119,0.269,0.258,0.429,0.363c0.306,0.24,0.618,0.496,0.948,0.909
				c0.163,0.211,0.336,0.456,0.479,0.816c0.139,0.361,0.236,0.861,0.119,1.391c-0.058,0.241-0.155,0.506-0.271,0.685l-0.09,0.145
				l-0.048,0.071l-0.012,0.017c-0.073,0.106,0.085-0.124,0.068-0.099l-0.008,0.012c-0.008,0.015-0.07,0.112-0.014,0.028
				c0.025-0.029,0.067-0.14,0.057-0.112l-0.01,0.028l-0.035,0.126c-0.053,0.205-0.103,0.476-0.146,0.746
				c-0.334,2.255-0.484,4.717-0.638,7.116c-0.145,2.415-0.257,4.841-0.354,7.268l-0.069,1.821l-0.033,0.91
				c-0.014,0.151,0.01,0.305,0.022,0.457s-0.067,0.302-0.13,0.451c-0.511,1.199-1.021,2.4-1.674,3.602
				c-0.589-1.234-1.024-2.469-1.454-3.706c-0.053-0.154-0.122-0.31-0.1-0.461c0.023-0.152,0.057-0.304,0.054-0.457l0.032-0.916
				l0.07-1.831c0.098-2.443,0.21-4.886,0.356-7.335c0.161-2.462,0.296-4.873,0.674-7.441c0.055-0.33,0.112-0.66,0.209-1.046
				l0.09-0.312l0.066-0.188c0.014-0.045,0.092-0.223,0.146-0.322l0.098-0.171l0.007-0.012c-0.014,0.021,0.146-0.214,0.076-0.112
				l-0.005,0.006l-0.018,0.021l-0.03,0.047c-0.024,0.056-0.087,0.167-0.098,0.266c-0.05,0.229-0.009,0.417,0.026,0.495
				c0.031,0.076,0.034,0.064,0.01,0.036c-0.047-0.066-0.201-0.212-0.375-0.345c-0.083-0.078-0.203-0.116-0.314-0.169
				c-0.109-0.059-0.156-0.218-0.234-0.346c-0.146-0.267-0.317-0.535-0.5-0.801L20.031,24.4z"/>
		</g>
		<g>
			<path d="M14.741,31.563c0.367,2.701,0.08,5.483-0.463,8.173c-0.573,2.69-1.427,5.313-2.388,7.854l-1.416,3.764
				c-0.224,0.615-0.434,1.229-0.585,1.808c-0.074,0.288-0.132,0.568-0.158,0.806c-0.029,0.228,0.009,0.431,0.008,0.367
				c-0.001-0.013-0.006-0.021-0.013-0.036L9.715,54.27l-0.008-0.013L9.702,54.25c0.028,0.036-0.27-0.35-0.138-0.18l0.044,0.045
				l0.021,0.023c0.003,0.002,0.01,0.011,0.009,0.008L9.59,54.09c-0.068-0.073-0.153-0.14-0.244-0.189
				c-0.088-0.05-0.206-0.083-0.216-0.09c-0.369-0.073-0.316-0.017-0.288-0.044c0.111-0.036,0.369-0.164,0.606-0.307
				c0.495-0.3,1.019-0.674,1.535-1.064c1.037-0.784,2.068-1.636,3.097-2.492c2.086-1.684,4.161-3.42,6.289-5.099
				c2.152-1.649,4.301-3.318,6.576-4.825c2.252-1.535,4.597-2.956,7.045-4.188c2.456-1.192,5.042-2.259,7.751-2.611
				c-2.531,0.98-4.828,2.345-7.03,3.85c-2.213,1.485-4.323,3.124-6.415,4.784c-2.069,1.692-4.151,3.374-6.18,5.134l-6.187,5.211
				c-1.059,0.853-2.122,1.702-3.25,2.527c-0.566,0.412-1.146,0.817-1.812,1.205c-0.347,0.192-0.688,0.387-1.22,0.555
				c-0.291,0.062-0.582,0.208-1.282,0.04c-0.142-0.025-0.503-0.203-0.688-0.384L7.602,56.03l-0.014-0.015l-0.021-0.023l-0.041-0.048
				c0.124,0.161-0.181-0.231-0.158-0.205l-0.02-0.034l-0.038-0.068l-0.073-0.14c-0.042-0.092-0.073-0.179-0.106-0.271
				c-0.211-0.708-0.134-1.198-0.078-1.636c0.071-0.431,0.176-0.807,0.288-1.166c0.227-0.717,0.491-1.367,0.761-2.007
				c0.534-1.278,1.124-2.49,1.696-3.705C12.049,41.866,14.191,36.982,14.741,31.563z"/>
		</g>
		<path style="stroke:#000000;stroke-width:0.3649;stroke-miterlimit:10;" d="M10.21,32.658c0,0,2.585,0.491,3.314,0.491
			c0.73,0,5.048,1.708,4.835,3.104c-0.213,1.396-2.341,2.218-3.648,2.065C13.403,38.167,9.42,33.534,10.21,32.658z"/>
		<path style="stroke:#000000;stroke-width:0.3649;stroke-miterlimit:10;" d="M34.353,35.946c0,0,2.159-1.337,2.919-2.311
			c0.761-0.973-0.76-2.828,0.152-2.919s6.051-1.033,6.537,2.889c0.122,1.46-3.405,1.738-5.989,2.647
			c-2.585,0.91-5.019,2.156-6.63,3.16"/>
	</g>
</g>
</svg>
