<?xml version="1.0" encoding="iso-8859-1"?>
<!-- Generator: Adobe Illustrator 15.0.0, SVG Export Plug-In . SVG Version: 6.00 Build 0)  -->
<!DOCTYPE svg PUBLIC "-//W3C//DTD SVG 1.1//EN" "http://www.w3.org/Graphics/SVG/1.1/DTD/svg11.dtd">
<svg version="1.1" id="Manzu" xmlns="http://www.w3.org/2000/svg" xmlns:xlink="http://www.w3.org/1999/xlink" x="0px" y="0px"
	 width="54.224px" height="74.065px" viewBox="0 0 54.224 74.065" style="enable-background:new 0 0 54.224 74.065;"
	 xml:space="preserve">
<g id="_x36_man_1_">
	
		<rect x="0.183" y="0.183" style="fill:#F6F5F1;stroke:#010202;stroke-width:0.3649;stroke-miterlimit:10;" width="53.858" height="73.7"/>
	<g id="_x36_man">
		<g id="MAN_5_">
			<g>
				<path style="fill:#9E1915;" d="M13.16,39.989c2.946,0.352,5.696,1.117,8.095,0.986c1.324-0.04,2.838-0.058,4.23-0.386
					c1.403-0.325,2.738-0.885,4.067-1.511c1.326-0.638,2.699-1.195,4.153-1.551c1.446-0.386,2.959-0.649,4.446-0.688
					c2.976-0.028,5.92,0.381,8.718,1.496l-0.029,0.254c-2.932,0.525-5.764,0.714-8.543,0.975c-1.389,0.114-2.749,0.153-4.128,0.333
					c-1.374,0.199-2.79,0.376-4.233,0.527c-1.441,0.165-2.858,0.46-4.217,0.956c-1.369,0.478-2.625,1.292-4.149,1.704
					c-0.786,0.214-1.666,0.234-2.445,0.1c-0.79-0.115-1.534-0.331-2.244-0.602c-1.409-0.57-2.723-1.298-3.832-2.361L13.16,39.989z"
					/>
			</g>
			<g>
				<path style="fill:#9E1915;" d="M25.023,37.428c0.045-0.309,0.104-0.604,0.173-0.887c0.075-0.277,0.142-0.563,0.24-0.818
					c0.208-0.14,0.364-0.334,0.548-0.5l0.532-0.517l2.633-2.557l-1.134,3.506c-0.118,0.366-0.231,0.823-0.317,1.247
					c-0.089,0.433-0.16,0.871-0.212,1.311c-0.053,0.439-0.086,0.88-0.102,1.321c0.001,0.11-0.015,0.22,0.001,0.331
					c0.041,0.055-0.013,0.11-0.069,0.165l-0.153,0.167c-0.197,0.226-0.426,0.46-0.673,0.709c-0.271-0.218-0.521-0.451-0.722-0.693
					l-0.155-0.184c-0.057-0.062-0.109-0.125-0.067-0.186c0.017-0.124,0.009-0.248,0.016-0.371c0.018-0.494,0.055-0.987,0.113-1.477
					s0.137-0.976,0.235-1.46c0.104-0.492,0.21-0.947,0.379-1.471l1.499,0.949l-0.532,0.517c-0.171,0.179-0.37,0.329-0.517,0.534
					c-0.257,0.09-0.545,0.148-0.824,0.216C25.63,37.343,25.333,37.393,25.023,37.428z"/>
			</g>
			<g>
				<path style="fill:#9E1915;" d="M32.866,29.041c0.149,0.237,0.4,0.406,0.974,0.794c0.269,0.194,0.653,0.486,0.925,0.971
					c0.274,0.487,0.309,1.012,0.268,1.395c-0.095,0.761-0.379,1.298-0.632,1.786c-0.262,0.484-0.539,0.932-0.821,1.375
					c-1.137,1.757-2.354,3.412-3.6,5.052c0.823-1.881,1.619-3.784,2.288-5.691c0.308-0.92,0.68-2.005,0.576-2.58
					c-0.03-0.124-0.08-0.126-0.086-0.072c-0.002,0.048-0.043,0.029-0.213-0.033c-0.308-0.116-1.022-0.343-1.62-0.816L32.866,29.041z
					"/>
			</g>
			<path style="fill:none;stroke:#9E1915;stroke-width:2.5541;stroke-miterlimit:10;" d="M21.801,45.09c0,0-0.608,8.392,0.486,9.852
				"/>
			<g>
				<path style="fill:#9E1915;" d="M20.558,45.025c1.341-0.314,2.678-0.464,3.828-0.784c0.27-0.065,0.567-0.159,0.68-0.247
					c0.187-0.071,0.19-0.109,0.353-0.185l0.402-0.218l1.746-0.86c0.596-0.303,1.216-0.559,1.867-0.802
					c0.659-0.244,1.309-0.485,2.153-0.668c0.215-0.042,0.451-0.069,0.728-0.086c0.3-0.004,0.586-0.035,1.169,0.112l0.208,0.062
					c0.079,0.027,0.19,0.077,0.282,0.121c0.19,0.096,0.36,0.182,0.608,0.404c0.223,0.198,0.413,0.42,0.57,0.728
					c0.076,0.147,0.141,0.301,0.189,0.454c0.034,0.126,0.062,0.257,0.08,0.39c0.018,0.133,0.027,0.267,0.028,0.398l-0.001,0.113
					l-0.003,0.135l-0.017,0.325c-0.053,0.742-0.104,1.389-0.196,2.05c-0.216,1.302-0.396,2.583-0.644,3.842
					c-0.257,1.261-0.524,2.51-0.624,3.48c-0.124,2.453-0.166,5.135-0.632,7.82l-0.252,0.043c-0.461-2.561-0.909-5.118-1.127-7.728
					c-0.115-1.338,0.12-2.633,0.255-3.923l0.498-3.865c0.081-0.642,0.173-1.286,0.229-1.922c0.012-0.139,0.031-0.352,0.021-0.433
					c-0.005-0.052-0.025-0.078-0.147-0.118c-0.233-0.065-0.565-0.033-0.867,0.008c-1.245,0.201-2.484,0.623-3.713,1.022
					l-1.851,0.616c-0.309,0.098-0.628,0.2-0.954,0.271c-0.346,0.07-0.675,0.087-1.008,0.094c-1.323-0.003-2.614-0.183-3.902-0.398
					L20.558,45.025z"/>
			</g>
			<g>
				<path style="fill:#9E1915;" d="M20.923,48.646c1.161-0.013,2.324-0.028,3.46-0.142c0.563-0.061,1.133-0.124,1.632-0.264
					c0.483-0.163,1.104-0.364,1.645-0.527c1.126-0.309,2.212-0.816,3.381-0.949c1.165-0.107,2.37-0.171,3.615,0.29l-0.002,0.183
					c-1.072,0.597-2.144,1.039-3.257,1.349c-1.108,0.313-2.293,0.287-3.43,0.487l-1.743,0.268c-0.644,0.069-1.238,0.051-1.834,0.004
					c-1.184-0.103-2.34-0.269-3.486-0.516L20.923,48.646z"/>
			</g>
			<g>
				<path style="fill:#9E1915;" d="M20.903,53.12c1.065-0.091,2.129-0.179,3.186-0.296c1.046-0.128,2.132-0.245,3.077-0.496
					l1.498-0.542c0.51-0.179,1.006-0.422,1.527-0.573c0.521-0.153,1.074-0.172,1.637-0.143c0.56,0.044,1.154,0.121,1.722,0.457
					l-0.002,0.183c-0.98,0.668-1.906,1.146-2.948,1.342c-0.52,0.08-1.062,0.081-1.589,0.155l-1.606,0.231
					c-1.151,0.152-2.207,0.112-3.29,0.077c-1.075-0.043-2.145-0.107-3.213-0.214L20.903,53.12z"/>
			</g>
			<g>
				<path style="fill:#9E1915;" d="M16.571,51.62c0.721,1.112,1.2,2.256,1.618,3.405c0.409,1.146,0.728,2.319,1.01,3.433
					c0.073,0.297,0.125,0.495,0.222,0.81l0.227,0.9c0.134,0.6,0.25,1.202,0.329,1.814c0.158,1.224,0.234,2.47,0.061,3.785
					c-0.848-1.02-1.452-2.108-1.985-3.214c-0.267-0.553-0.499-1.115-0.721-1.677l-0.313-0.841c-0.094-0.262-0.214-0.647-0.29-0.939
					c-0.312-1.244-0.459-2.458-0.505-3.7C16.19,54.156,16.249,52.906,16.571,51.62z"/>
			</g>
			<g>
				<path style="fill:#9E1915;" d="M11.098,57.679c0.907,0.681,1.951,1.161,2.998,1.357c0.524,0.088,1.056,0.108,1.549,0.03
					c0.483-0.095,1.054-0.259,1.588-0.407c2.18-0.591,4.381-1.194,6.611-1.676c4.46-0.974,9.009-1.724,13.763-1.483
					c1.189,0.095,2.393,0.259,3.607,0.623c1.193,0.369,2.487,0.925,3.467,2.073c0.997,1.15,1.299,2.777,1.058,4.131
					c-0.11,0.715-0.434,1.486-0.972,2.07c-0.538,0.588-1.221,0.942-1.865,1.154c-1.307,0.408-2.541,0.404-3.726,0.307
					c-1.185-0.113-2.326-0.328-3.448-0.587c-1.118-0.279-2.218-0.584-3.304-0.925c-1.091-0.32-2.152-0.726-3.265-0.951
					c1.146-0.043,2.287,0.133,3.413,0.258c1.128,0.134,2.245,0.288,3.36,0.38c1.111,0.108,2.221,0.183,3.3,0.151
					c1.068-0.036,2.143-0.138,2.976-0.502c0.849-0.378,1.224-0.893,1.317-1.685c0.085-0.872-0.137-1.666-0.671-2.216
					c-0.527-0.568-1.38-1-2.342-1.263c-0.96-0.273-2.016-0.401-3.082-0.472c-2.142-0.167-4.358-0.042-6.569,0.138
					c-2.219,0.161-4.437,0.473-6.668,0.753l-6.718,0.945c-0.577,0.065-1.114,0.141-1.758,0.166
					c-0.637-0.002-1.245-0.117-1.811-0.334C12.776,59.287,11.826,58.556,11.098,57.679z"/>
			</g>
			<g>
				<path style="fill:#9E1915;" d="M26.873,44.3c-0.336,0.746-0.321,1.554-0.366,2.347c-0.037,0.794-0.027,1.594-0.033,2.391
					c0.017,1.595,0.02,3.191,0.062,4.786c0.012,1.595,0.058,3.189,0.106,4.777l0.114,2.414l0.021,1.225l0.001,0.15l0.001,0.071
					c0,0.009,0.002,0.023-0.002,0.021l-0.013-0.024c-0.081-0.019,0.157,0.001-0.229-0.09c-0.17,0.096-0.105,0.102-0.139,0.158
					c-0.002,0.021,0.001,0.019,0.001,0.017c0.016-0.078,0.02-0.192,0.028-0.291l0.058-0.619l0.217,0.586
					c0.032,0.103,0.062,0.189,0.089,0.314c0.001,0.01,0.004,0.021,0.001,0.055c-0.035,0.058,0.03,0.07-0.143,0.165
					c-0.39-0.091-0.152-0.076-0.234-0.096l-0.02-0.042l-0.022-0.052l-0.032-0.078l-0.06-0.147c-0.15-0.389-0.272-0.78-0.406-1.169
					c-0.235-0.78-0.482-1.565-0.644-2.39c-0.347-1.63-0.473-3.278-0.518-4.924c-0.007-1.647,0.07-3.296,0.349-4.932
					c0.129-0.818,0.318-1.632,0.569-2.433C25.917,45.717,26.186,44.837,26.873,44.3z"/>
			</g>
			<g>
				<path style="fill:#9E1915;" d="M21.647,62.467c0.139,0.205,0.254,0.415,0.374,0.623l-0.489-0.254
					c1.436-0.904,2.949-1.661,4.484-2.432c0.756-0.42,1.562-0.702,2.395-0.831c0.829-0.144,1.667-0.237,2.6-0.155l0.066,0.17
					c-0.625,0.7-1.365,1.176-2.121,1.575c-0.754,0.413-1.538,0.661-2.354,0.824c-1.61,0.39-3.169,0.98-4.777,1.481l-0.561,0.174
					l0.071-0.429c0.039-0.237,0.074-0.474,0.132-0.715L21.647,62.467z"/>
			</g>
		</g>
		<g>
			<g>
				<path style="fill:#010202;" d="M28.192,13.618c-0.592-0.776-1.063-1.575-1.537-2.382l-0.651-1.226l-0.55-1.254
					C25.282,8.333,25,7.918,24.762,7.489c-0.23-0.429-0.285-0.886-0.142-1.363c0.145-0.476,0.386-0.969,0.809-1.467
					c0.192-0.249,0.453-0.5,0.743-0.744c0.369-0.228,0.643-0.503,1.164-0.636l0.547,0.204c0.381,0.272,0.611,0.427,0.946,0.625
					c0.261,0.182,0.513,0.359,0.706,0.538c0.428,0.357,0.71,0.719,0.91,1.097c0.199,0.376,0.218,0.772,0.069,1.194
					c-0.156,0.422-0.348,0.858-0.421,1.285l-0.239,1.292l-0.309,1.317c-0.237,0.887-0.457,1.78-0.777,2.693L28.192,13.618z"/>
			</g>
			<g>
				<path style="fill:#010202;" d="M17.029,14.753c1.045-0.158,2.036-0.167,2.968-0.231c0.454-0.03,0.92-0.052,1.235-0.13
					c0.003-0.004,0.072-0.012,0.021-0.013c0.023-0.007,0.077-0.015,0.068-0.019c-0.007-0.006,0.037-0.02,0.085-0.035l0.306-0.102
					l0.665-0.214c0.905-0.287,1.839-0.545,2.827-0.6c0.982-0.082,2.004-0.038,2.986-0.136c1.972-0.182,3.758-1.028,5.503-2.004
					c0.872-0.49,1.77-0.891,2.683-1.236c0.911-0.351,1.818-0.722,2.737-1.038l0.059-0.02l0.066-0.012
					c0.332-0.058,0.282-0.033,0.384-0.042l0.144,0.001l0.2,0.015l0.285,0.042c0.162,0.031,0.302,0.063,0.432,0.098
					c0.26,0.065,0.483,0.153,0.703,0.234c0.438,0.161,0.829,0.362,1.213,0.56c0.758,0.414,1.463,0.871,2.135,1.371
					c0.671,0.503,1.312,1.036,1.919,1.618c0.604,0.586,1.185,1.202,1.703,1.91l-0.17,0.281c-0.867-0.124-1.679-0.328-2.476-0.546
					c-0.795-0.222-1.564-0.476-2.321-0.73l-2.204-0.787l-1.023-0.373l-0.445-0.149l-0.157-0.049
					c-0.015-0.004-0.025-0.007-0.014-0.007l0.05,0.002h0.067c0.077-0.009,0.001,0.016,0.309-0.038l0.125-0.031
					c-0.952,0.232-1.916,0.406-2.877,0.598c-0.958,0.198-1.934,0.337-2.935,0.386c-2.002,0.1-3.964,0.322-5.747,1.188
					c-0.895,0.426-1.751,0.989-2.651,1.416c-0.893,0.453-1.843,0.698-2.83,0.874c-0.248,0.041-0.497,0.086-0.759,0.118l-0.411,0.043
					l-0.275,0.023c-0.069,0.006-0.076,0.001-0.113,0.001c-0.112,0.005-0.104-0.002-0.161-0.003
					c-0.661-0.044-1.167-0.193-1.674-0.372c-0.992-0.38-1.898-0.852-2.727-1.546L17.029,14.753z"/>
			</g>
			<g>
				<path style="fill:#010202;" d="M13.63,25.958c1.307-0.445,2.611-0.873,3.886-1.371c1.279-0.478,2.544-0.974,3.771-1.509
					c1.229-0.544,2.312-1.337,3.472-1.778c0.571-0.245,1.141-0.47,1.667-0.736c0.521-0.283,1.022-0.527,1.428-1.143l0.256,0.008
					c0.356,0.781,0.024,1.759-0.427,2.418c-0.458,0.692-1.042,1.232-1.658,1.671c-1.232,0.909-2.711,1.136-4.071,1.492
					c-1.368,0.359-2.743,0.619-4.124,0.815c-1.387,0.172-2.763,0.338-4.156,0.385L13.63,25.958z"/>
			</g>
			<g>
				<path style="fill:#010202;" d="M31.951,17.813c1.143,0.406,2.232,0.903,3.322,1.421c1.083,0.529,2.14,1.111,3.168,1.765
					c1.021,0.651,2.28,1.115,2.978,2.25c0.362,0.545,0.674,1.161,0.846,1.878c0.167,0.685,0.275,1.577-0.197,2.313l-0.363,0.021
					c-0.57-0.443-1.077-0.605-1.556-0.883c-0.493-0.246-0.946-0.521-1.386-0.829c-0.911-0.567-1.406-1.659-2.186-2.505l-2.381-2.54
					l-2.444-2.588L31.951,17.813z"/>
			</g>
			<g>
				
					<ellipse transform="matrix(0.9982 -0.0594 0.0594 0.9982 -1.1656 1.6699)" style="fill:#010202;" cx="27.5" cy="20.438" rx="2.285" ry="1.689"/>
				<path style="fill:#010202;" d="M29.926,20.303c0.003,0.514,0.077,1.301-0.314,2.073c-0.374,0.765-1.208,1.116-1.939,0.962
					c-0.298-0.081-0.746-0.26-1.014-0.481c-0.301-0.215-0.55-0.452-0.802-0.645c-0.251-0.199-0.504-0.381-0.757-0.623
					c-0.247-0.238-0.522-0.545-0.679-0.969c-0.033-0.184-0.068-0.138-0.095-0.275c-0.021-0.125-0.034-0.298-0.034-0.404
					c-0.012-0.239,0.023-0.483,0.099-0.703c0.138-0.456,0.427-0.812,0.732-1.104c0.614-0.583,1.396-0.936,2.184-0.94
					c0.292,0.005,0.827,0.069,1.155,0.226c0.368,0.161,0.694,0.454,0.92,0.813c0.483,0.729,0.514,1.521,0.544,2.058V20.303z
					 M29.635,20.311c-0.022-0.233-0.199-0.438-0.448-0.493c-0.236-0.071-0.525,0.005-0.741,0.095
					c-0.231,0.105-0.404,0.224-0.549,0.28c-0.185,0.053-0.175,0.083-0.405,0.115c-0.253,0.066-0.51,0.028-0.746,0.06
					c-0.117,0.015-0.199,0.042-0.323,0.04c-0.062,0.003-0.12,0.006-0.198,0.02c-0.043,0.019-0.059-0.021-0.104-0.019
					c-0.039-0.007-0.066,0.171-0.104,0.117c-0.123,0.1-0.195,0.297-0.129,0.476c0.061,0.178,0.222,0.333,0.428,0.388
					c0.204,0.062,0.454,0,0.666-0.111c0.244-0.117,0.322-0.263,0.546-0.371c0.31-0.223,0.515-0.188,0.991-0.037
					c0.227,0.059,0.524,0.097,0.75-0.006c0.241-0.105,0.387-0.292,0.366-0.565V20.311z"/>
			</g>
		</g>
	</g>
</g>
</svg>
