<?xml version="1.0" encoding="iso-8859-1"?>
<!-- Generator: Adobe Illustrator 15.0.0, SVG Export Plug-In . SVG Version: 6.00 Build 0)  -->
<!DOCTYPE svg PUBLIC "-//W3C//DTD SVG 1.1//EN" "http://www.w3.org/Graphics/SVG/1.1/DTD/svg11.dtd">
<svg version="1.1" id="Souzu" xmlns="http://www.w3.org/2000/svg" xmlns:xlink="http://www.w3.org/1999/xlink" x="0px" y="0px"
	 width="54.224px" height="74.066px" viewBox="0 0 54.224 74.066" style="enable-background:new 0 0 54.224 74.066;"
	 xml:space="preserve">
<g id="_x36_sou">
	
		<rect x="0.183" y="0.183" style="fill:#F6F5F1;stroke:#010202;stroke-width:0.3649;stroke-miterlimit:10;" width="53.858" height="73.701"/>
	<path id="Sou_18_" style="fill:#003C14;" d="M17.954,19.734c0-1.267-0.862-2.4-2.221-3.169v-5.808
		c1.358-0.599,2.221-1.479,2.221-2.464c0-1.802-2.873-3.262-6.416-3.262c-3.544,0-6.416,1.46-6.416,3.262
		c0,0.985,0.862,1.866,2.22,2.464v5.808c-1.357,0.769-2.22,1.902-2.22,3.169c0,1.267,0.862,2.4,2.22,3.169v6.255
		c-1.357,0.598-2.22,1.479-2.22,2.464c0,1.117,1.229,2.691,2.789,2.691s2.28-1.253,3.627-1.253c1.346,0,2.067,1.253,3.627,1.253
		s2.789-1.574,2.789-2.691c0-0.985-0.862-1.866-2.221-2.464v-6.255C17.092,22.134,17.954,21.001,17.954,19.734z M12.693,31.395
		h-2.312v-8.803h2.312V31.395z M11.538,21.406c-1.066,0-1.932-0.388-1.932-0.866c0-0.479,0.865-0.867,1.932-0.867
		s1.931,0.388,1.931,0.867C13.469,21.018,12.604,21.406,11.538,21.406z M11.538,18.807c-1.066,0-1.932-0.388-1.932-0.866
		s0.865-0.867,1.932-0.867s1.931,0.388,1.931,0.867S12.604,18.807,11.538,18.807z M12.693,10.135v5.524h-2.312v-5.524
		C9.914,9.802,9.606,9.278,9.606,8.682c0-1.007,0.865-1.824,1.932-1.824s1.931,0.817,1.931,1.824
		C13.469,9.278,13.161,9.802,12.693,10.135z"/>
	<path id="Sou_17_" style="fill:#003C14;" d="M48.965,19.734c0-1.267-0.862-2.4-2.22-3.169v-5.808
		c1.357-0.599,2.22-1.479,2.22-2.464c0-1.802-2.873-3.262-6.416-3.262s-6.416,1.46-6.416,3.262c0,0.985,0.862,1.866,2.22,2.464
		v5.808c-1.357,0.769-2.22,1.902-2.22,3.169c0,1.267,0.862,2.4,2.22,3.169v6.255c-1.357,0.598-2.22,1.479-2.22,2.464
		c0,1.117,1.229,2.691,2.789,2.691s2.28-1.253,3.627-1.253c1.346,0,2.067,1.253,3.627,1.253s2.789-1.574,2.789-2.691
		c0-0.985-0.862-1.866-2.22-2.464v-6.255C48.103,22.134,48.965,21.001,48.965,19.734z M43.704,31.395h-2.311v-8.803h2.311V31.395z
		 M42.549,21.406c-1.066,0-1.931-0.388-1.931-0.866c0-0.479,0.864-0.867,1.931-0.867s1.931,0.388,1.931,0.867
		C44.479,21.018,43.615,21.406,42.549,21.406z M42.549,18.807c-1.066,0-1.931-0.388-1.931-0.866s0.864-0.867,1.931-0.867
		s1.931,0.388,1.931,0.867S43.615,18.807,42.549,18.807z M43.704,10.135v5.524h-2.311v-5.524c-0.469-0.333-0.775-0.857-0.775-1.454
		c0-1.007,0.864-1.824,1.931-1.824s1.931,0.817,1.931,1.824C44.479,9.278,44.173,9.802,43.704,10.135z"/>
	<path id="Sou_16_" style="fill:#003C14;" d="M17.954,54.455c0-1.267-0.862-2.4-2.221-3.169v-5.808
		c1.358-0.599,2.221-1.479,2.221-2.464c0-1.802-2.873-3.262-6.416-3.262c-3.544,0-6.416,1.46-6.416,3.262
		c0,0.985,0.862,1.866,2.22,2.464v5.808c-1.357,0.769-2.22,1.902-2.22,3.169c0,1.267,0.862,2.4,2.22,3.17v6.255
		c-1.357,0.599-2.22,1.479-2.22,2.464c0,1.118,1.229,2.692,2.789,2.692s2.28-1.254,3.627-1.254c1.346,0,2.067,1.254,3.627,1.254
		s2.789-1.574,2.789-2.692c0-0.984-0.862-1.865-2.221-2.464v-6.255C17.092,56.855,17.954,55.722,17.954,54.455z M12.693,66.116
		h-2.312v-8.803h2.312V66.116z M11.538,56.126c-1.066,0-1.932-0.388-1.932-0.867s0.865-0.867,1.932-0.867s1.931,0.388,1.931,0.867
		S12.604,56.126,11.538,56.126z M11.538,53.527c-1.066,0-1.932-0.388-1.932-0.867s0.865-0.866,1.932-0.866s1.931,0.388,1.931,0.866
		S12.604,53.527,11.538,53.527z M12.693,44.856v5.524h-2.312v-5.524c-0.468-0.333-0.775-0.857-0.775-1.454
		c0-1.007,0.865-1.825,1.932-1.825s1.931,0.817,1.931,1.825C13.469,43.999,13.161,44.523,12.693,44.856z"/>
	<path id="Sou_19_" style="fill:#003C14;" d="M33.527,19.734c0-1.267-0.862-2.4-2.22-3.169v-5.808
		c1.357-0.599,2.22-1.479,2.22-2.464c0-1.802-2.872-3.262-6.416-3.262c-3.543,0-6.416,1.46-6.416,3.262
		c0,0.985,0.862,1.866,2.22,2.464v5.808c-1.357,0.769-2.22,1.902-2.22,3.169c0,1.267,0.862,2.4,2.22,3.169v6.255
		c-1.357,0.598-2.22,1.479-2.22,2.464c0,1.117,1.229,2.691,2.789,2.691s2.281-1.253,3.627-1.253c1.347,0,2.067,1.253,3.627,1.253
		s2.789-1.574,2.789-2.691c0-0.985-0.862-1.866-2.22-2.464v-6.255C32.665,22.134,33.527,21.001,33.527,19.734z M28.267,31.395
		h-2.311v-8.803h2.311V31.395z M27.111,21.406c-1.066,0-1.931-0.388-1.931-0.866c0-0.479,0.864-0.867,1.931-0.867
		s1.931,0.388,1.931,0.867C29.042,21.018,28.178,21.406,27.111,21.406z M27.111,18.807c-1.066,0-1.931-0.388-1.931-0.866
		s0.864-0.867,1.931-0.867s1.931,0.388,1.931,0.867S28.178,18.807,27.111,18.807z M28.267,10.135v5.524h-2.311v-5.524
		c-0.469-0.333-0.775-0.857-0.775-1.454c0-1.007,0.864-1.824,1.931-1.824s1.931,0.817,1.931,1.824
		C29.042,9.278,28.735,9.802,28.267,10.135z"/>
	<path id="Sou_12_" style="fill:#003C14;" d="M33.527,54.455c0-1.267-0.862-2.4-2.22-3.169v-5.808
		c1.357-0.599,2.22-1.479,2.22-2.464c0-1.802-2.872-3.262-6.416-3.262c-3.543,0-6.416,1.46-6.416,3.262
		c0,0.985,0.862,1.866,2.22,2.464v5.808c-1.357,0.769-2.22,1.902-2.22,3.169c0,1.267,0.862,2.4,2.22,3.17v6.255
		c-1.357,0.599-2.22,1.479-2.22,2.464c0,1.118,1.229,2.692,2.789,2.692s2.281-1.254,3.627-1.254c1.347,0,2.067,1.254,3.627,1.254
		s2.789-1.574,2.789-2.692c0-0.984-0.862-1.865-2.22-2.464v-6.255C32.665,56.855,33.527,55.722,33.527,54.455z M28.267,66.116
		h-2.311v-8.803h2.311V66.116z M27.111,56.126c-1.066,0-1.931-0.388-1.931-0.867s0.864-0.867,1.931-0.867s1.931,0.388,1.931,0.867
		S28.178,56.126,27.111,56.126z M27.111,53.527c-1.066,0-1.931-0.388-1.931-0.867s0.864-0.866,1.931-0.866s1.931,0.388,1.931,0.866
		S28.178,53.527,27.111,53.527z M28.267,44.856v5.524h-2.311v-5.524c-0.469-0.333-0.775-0.857-0.775-1.454
		c0-1.007,0.864-1.825,1.931-1.825s1.931,0.817,1.931,1.825C29.042,43.999,28.735,44.523,28.267,44.856z"/>
	<path id="Sou_15_" style="fill:#003C14;" d="M48.965,54.455c0-1.267-0.862-2.4-2.22-3.169v-5.808
		c1.357-0.599,2.22-1.479,2.22-2.464c0-1.802-2.873-3.262-6.416-3.262s-6.416,1.46-6.416,3.262c0,0.985,0.862,1.866,2.22,2.464
		v5.808c-1.357,0.769-2.22,1.902-2.22,3.169c0,1.267,0.862,2.4,2.22,3.17v6.255c-1.357,0.599-2.22,1.479-2.22,2.464
		c0,1.118,1.229,2.692,2.789,2.692s2.28-1.254,3.627-1.254c1.346,0,2.067,1.254,3.627,1.254s2.789-1.574,2.789-2.692
		c0-0.984-0.862-1.865-2.22-2.464v-6.255C48.103,56.855,48.965,55.722,48.965,54.455z M43.704,66.116h-2.311v-8.803h2.311V66.116z
		 M42.549,56.126c-1.066,0-1.931-0.388-1.931-0.867s0.864-0.867,1.931-0.867s1.931,0.388,1.931,0.867S43.615,56.126,42.549,56.126z
		 M42.549,53.527c-1.066,0-1.931-0.388-1.931-0.867s0.864-0.866,1.931-0.866s1.931,0.388,1.931,0.866S43.615,53.527,42.549,53.527z
		 M43.704,44.856v5.524h-2.311v-5.524c-0.469-0.333-0.775-0.857-0.775-1.454c0-1.007,0.864-1.825,1.931-1.825
		s1.931,0.817,1.931,1.825C44.479,43.999,44.173,44.523,43.704,44.856z"/>
</g>
</svg>
