<?xml version="1.0" encoding="iso-8859-1"?>
<!-- Generator: Adobe Illustrator 15.0.0, SVG Export Plug-In . SVG Version: 6.00 Build 0)  -->
<!DOCTYPE svg PUBLIC "-//W3C//DTD SVG 1.1//EN" "http://www.w3.org/Graphics/SVG/1.1/DTD/svg11.dtd">
<svg version="1.1" id="Jihai" xmlns="http://www.w3.org/2000/svg" xmlns:xlink="http://www.w3.org/1999/xlink" x="0px" y="0px"
	 width="54.224px" height="74.066px" viewBox="0 0 54.224 74.066" style="enable-background:new 0 0 54.224 74.066;"
	 xml:space="preserve">
<g id="Hatsu">
	
		<rect x="0.183" y="0.183" style="fill:#F6F5F1;stroke:#010202;stroke-width:0.3649;stroke-miterlimit:10;" width="53.858" height="73.701"/>
	<g>
		<g>
			<path style="fill:#003C14;" d="M16.234,25.697c2.006-1.171,3.744-2.659,5.414-4.22c1.69-1.551,3.234-3.203,4.906-4.854
				c0.234-0.219,0.388-0.398,0.777-0.681c0.061-0.038,0.134-0.091,0.306-0.158c0.074-0.026,0.172-0.05,0.26-0.06
				c0.012-0.005,0.17-0.015,0.283,0.007c0.267,0.141-0.086-0.215,0.666,0.384l0.032,0.048c0.073,0.105,0.137,0.237,0.172,0.374
				c0.018,0.068,0.029,0.138,0.034,0.204l0.004,0.109l-0.002,0.064l-0.007,0.118l-0.02,0.164c-0.026,0.195-0.059,0.348-0.091,0.509
				c-0.136,0.622-0.312,1.19-0.494,1.763c-0.369,1.139-0.791,2.245-1.249,3.337c-0.935,2.174-2.046,4.259-3.252,6.285
				c-1.247,2.002-2.6,3.937-4.077,5.771c-1.505,1.811-3.077,3.568-4.811,5.157c-3.428,3.21-7.299,5.944-11.501,7.936
				c3.636-2.894,7.023-5.971,10.082-9.335c3.041-3.373,5.79-6.99,8.128-10.858c1.196-1.917,2.268-3.91,3.231-5.946
				c0.488-1.014,0.944-2.045,1.342-3.085c0.199-0.518,0.38-1.047,0.531-1.544l0.093-0.337l0.012-0.05
				c0.004-0.014,0,0.008,0.002,0.01l0.002,0.01c0.001-0.012-0.001,0.006,0.003,0.083c0.005,0.058,0.016,0.118,0.032,0.177
				c0.034,0.119,0.096,0.233,0.167,0.32c0.037,0.042,0.003-0.002,0.008,0.001c0.745,0.594,0.382,0.24,0.641,0.378
				c0.104,0.021,0.253,0.007,0.257,0.006c0.069-0.006,0.149-0.025,0.206-0.047c0.105-0.04,0.115-0.058,0.115-0.057
				c-0.089,0.041-0.359,0.257-0.557,0.42c-1.729,1.472-3.54,2.998-5.447,4.346C20.511,23.768,18.481,25.039,16.234,25.697z"/>
		</g>
		<g>
			<path style="fill:#003C14;" d="M12.081,26.671c0.713,0.614,1.399,1.241,2.125,1.822c0.708,0.596,1.416,1.179,2.123,1.746
				c0.712,0.569,1.586,0.923,2.129,1.631c0.569,0.695,1.075,1.425,1.491,2.499l-0.131,0.219c-1.17,0.115-2.152-0.269-3.003-0.762
				c-0.875-0.486-1.352-1.403-1.941-2.152c-0.592-0.754-1.137-1.537-1.637-2.348c-0.481-0.824-0.967-1.634-1.361-2.505
				L12.081,26.671z"/>
		</g>
		<g>
			<path style="fill:#003C14;" d="M27.337,18.123c0.991,0.745,1.9,1.542,2.754,2.37l1.268,1.251l1.192,1.297
				c1.559,1.747,3.019,3.553,4.359,5.432c1.349,1.873,2.588,3.812,3.744,5.802c1.167,1.982,2.239,4.022,3.205,6.126l-0.743-0.82
				c0.732,0.666,1.417,1.397,2.128,2.092c0.719,0.684,1.372,1.456,2.047,2.2c0.687,0.728,1.297,1.559,1.942,2.34
				c0.613,0.827,1.227,1.653,1.772,2.569l-0.217,0.293l-4.801-3.45l-4.766-3.498l-0.048-0.035l-0.034-0.056
				c-2.402-3.924-4.798-7.853-7.126-11.821l-3.521-5.936c-1.186-1.973-2.313-3.979-3.47-5.968L27.337,18.123z"/>
		</g>
		<g>
			<path style="fill:#003C14;" d="M38.17,13.956l-0.21,0.094c-0.038,0.015-0.039,0.004-0.065,0.005
				c-0.045,0.009-0.087,0.01-0.091-0.02c-0.012-0.021-0.021-0.076-0.06-0.043c-0.039,0.029-0.099,0.14-0.169,0.291
				c-0.145,0.32-0.349,0.729-0.582,1.051l-0.491,0.728c-0.641,0.979-1.246,2.011-1.824,3.061c-1.152,2.105-2.213,4.288-3.181,6.516
				c0.432-2.394,0.966-4.775,1.619-7.148c0.331-1.187,0.694-2.368,1.124-3.553l0.335-0.885c0.053-0.21,0.059-0.371,0.083-0.63
				c0.016-0.138,0.036-0.319,0.104-0.571c0.064-0.251,0.205-0.572,0.375-0.834c0.173-0.275,0.358-0.477,0.54-0.666l0.462-0.426
				L38.17,13.956z"/>
		</g>
		<g>
			<path style="fill:#003C14;" d="M41.304,25.516c-0.616,0.556-1.175,0.99-1.76,1.471l-1.737,1.401l-3.481,2.782l2.072-3.94
				l1.025-1.972c0.329-0.648,0.697-1.334,0.963-1.934L41.304,25.516z"/>
		</g>
		<g>
			<path style="fill:#003C14;" d="M15.019,37.13c1.412-0.709,2.829-1.191,4.212-1.692c1.388-0.497,2.731-0.945,3.998-1.523
				c0.185-0.078,0.291-0.141,0.65-0.264c0.106-0.024,0.241-0.089,0.582-0.062c0.175,0.018,0.404,0.096,0.578,0.229
				c0.17,0.13,0.261,0.262,0.321,0.362c0.054,0.094,0.085,0.171,0.105,0.229l0.027,0.08l0.01,0.034l0.042,0.196l0.005,0.07
				c0.007,0.076,0.004,0.261-0.023,0.385c-0.108,0.419-0.215,0.506-0.31,0.653c-0.096,0.126-0.181,0.217-0.263,0.303
				c-0.165,0.169-0.31,0.298-0.459,0.426c-0.576,0.499-1.116,0.918-1.575,1.419c-0.942,0.96-1.553,2.202-1.577,3.775
				c-0.367-0.681-0.554-1.501-0.481-2.336c0.06-0.836,0.37-1.659,0.798-2.369c0.429-0.71,0.964-1.345,1.462-1.889
				c0.116-0.136,0.241-0.269,0.326-0.379c0.041-0.054,0.079-0.106,0.092-0.133c0.013-0.005,0.004-0.082-0.06,0.155
				c-0.021,0.078-0.011,0.217-0.002,0.246l-0.012-0.069l0.037,0.178c0.004,0.014,0.016,0.048,0.047,0.101
				c0.035,0.062,0.097,0.155,0.229,0.256c0.136,0.106,0.32,0.169,0.448,0.181c0.247,0.019,0.289-0.021,0.307-0.018
				c0.005,0.001-0.219,0.117-0.375,0.196c-1.437,0.726-2.985,1.133-4.511,1.332C18.114,37.39,16.573,37.419,15.019,37.13z"/>
		</g>
		<g>
			<path style="fill:#FFFFFF;" d="M11.979,46.373h2.553c0,0,7.663-5.96,10.946-7.419"/>
			<path style="fill:#003C14;" d="M11.979,46.282c0.851-0.423,1.702-0.703,2.553-0.912l-0.616,0.211
				c0.706-0.918,1.504-1.7,2.335-2.452c0.852-0.722,1.736-1.404,2.69-1.993c0.944-0.604,1.956-1.116,3.024-1.542
				c1.081-0.39,2.224-0.75,3.476-0.723l0.074,0.166c-0.989,0.467-1.922,1.061-2.844,1.659c-0.92,0.605-1.823,1.237-2.718,1.881
				c-1.781,1.296-3.594,2.555-5.348,3.892l-0.034,0.025h-0.04l-2.553-0.03V46.282z"/>
		</g>
		<g>
			<path style="fill:#003C14;" d="M21.1,40.414c-0.109,1.212-0.017,2.393,0.37,3.438c0.368,1.066,1.052,1.918,1.616,3.17
				c0.284,0.607,0.459,1.477,0.358,2.227c-0.052,0.716-0.173,1.318-0.312,1.944c-0.289,1.232-0.709,2.411-1.226,3.566
				c-0.539,1.144-1.151,2.271-2.037,3.317c-0.446,0.523-0.953,1.032-1.666,1.464c-0.358,0.207-0.783,0.399-1.295,0.478
				c-0.255,0.036-0.526,0.041-0.796,0c-0.134-0.022-0.269-0.049-0.395-0.091l-0.096-0.031c-0.094-0.029-0.056-0.021-0.09-0.033
				l-0.104-0.043c-1.338-0.566-2.299-1.449-3.167-2.356c-0.835-0.944-1.571-1.941-2.108-3.062c1.021,0.695,1.996,1.383,3.01,1.957
				c0.985,0.592,2.036,1.085,2.975,1.286l0.109,0.025c0.001-0.002,0.074,0.021,0.017,0l0.014-0.004
				c0.018-0.001,0.032-0.011,0.047-0.015c0.028-0.012,0.058-0.033,0.097-0.055c0.075-0.038,0.199-0.116,0.337-0.238
				c0.285-0.234,0.598-0.62,0.896-1.029c0.589-0.842,1.146-1.819,1.651-2.824c0.521-1.002,1.001-2.046,1.462-3.085
				c0.227-0.512,0.448-1.06,0.615-1.521c0.137-0.43,0.14-0.786,0.025-1.304c-0.113-0.498-0.333-1.055-0.531-1.644
				c-0.188-0.597-0.353-1.229-0.424-1.874C20.303,42.781,20.581,41.505,21.1,40.414z"/>
		</g>
		<g>
			<path style="fill:#003C14;" d="M23.259,47.003c-1.425,0.975-2.887,1.88-4.339,2.811c-1.463,0.909-2.94,1.794-4.442,2.643
				c-1.513,0.839-2.902,1.899-4.656,2.413c-0.22,0.072-0.447,0.127-0.697,0.188c-0.128,0.03-0.258,0.054-0.426,0.078
				c-0.076,0.011-0.184,0.023-0.302,0.03c-0.1,0.001-0.134,0.006-0.298-0.008L8.02,55.14c-0.793-0.183-1.195-0.526-1.577-0.879
				c-0.722-0.712-1.181-1.516-1.466-2.425l0.197-0.162c0.827,0.39,1.594,0.808,2.288,1.062c0.329,0.114,0.702,0.199,0.767,0.118
				c-0.141-0.01-0.014-0.055,0.151-0.134l0.511-0.247c1.43-0.758,3.125-1.197,4.698-1.846l4.756-1.946l4.795-1.905L23.259,47.003z"
				/>
		</g>
		<g>
			<path style="fill:#003C14;" d="M25.029,39.952c0.408-1.502,0.795-2.68,1.249-3.838c0.421-1.166,0.92-2.247,1.447-3.308
				c0.267-0.527,0.542-1.048,0.811-1.55l0.399-0.718l0.178-0.304c0.047-0.081,0.101-0.176,0.135-0.095l0.008,0.014l0.004,0.007
				l0.003,0.004c-0.001-0.062,0.002,0.087,0.002,0.07l0.001-0.004l0.015-0.062c0.005-0.018,0.01-0.048,0.015-0.056l0.016,0.027
				c0.03,0.06,0.043-0.015,0.061-0.034c0.031-0.067,0.05-0.17,0.055-0.286c0.042-0.244,0.043-0.544,0.021-0.851
				c-0.003-0.646-0.089-1.333-0.057-2.146l0.203-0.156c0.41,0.517,0.788,1.052,1.119,1.627c0.303,0.586,0.625,1.188,0.634,1.937
				c-0.068,0.723-0.312,1.32-0.543,1.942c-0.243,0.612-0.51,1.213-0.81,1.797c-0.614,1.159-1.306,2.276-2.091,3.328
				c-0.777,1.054-1.671,2.039-2.705,2.847L25.029,39.952z"/>
		</g>
		<g>
			<g>
				<path style="fill:#003C14;" d="M37.164,40.247c-0.403-1.568-2.052-1.888-3.419-1.499c-2.264,0.645-4.491,2.1-6.877,2.222
					c0.34,0.442,0.68,0.885,1.02,1.327c0.345-0.839,0.316-1.982,0.438-2.87c0.16-1.164,0.316-2.33,0.472-3.495
					c0.097-0.724-1.367-1.735-1.496-0.768c-0.124,0.926-0.249,1.851-0.374,2.776c-0.126,0.924-0.201,2.647-0.454,3.265
					c-0.228,0.555,0.446,1.356,1.02,1.327c0.866-0.045,8.282-2.324,8.19-2.682C35.865,40.555,37.434,41.299,37.164,40.247
					L37.164,40.247z"/>
			</g>
		</g>
		<g>
			<path style="fill:#003C14;" d="M31.983,40.074c0.009,1.187-0.014,2.369-0.04,3.551c-0.025,1.183-0.038,2.366-0.09,3.545
				c-0.035,1.181-0.089,2.358-0.16,3.534c-0.073,1.176-0.123,2.354-0.12,3.54l0.002,0.449l-0.658,0.683
				c-0.545,0.567-1.123,1.093-1.745,1.561c-0.626,0.463-1.3,0.864-1.994,1.239c-0.689,0.38-1.426,0.7-2.175,1.005
				c-0.769,0.278-1.549,0.542-2.423,0.685l-0.223-0.289c0.357-0.81,0.809-1.499,1.271-2.173c0.482-0.648,0.978-1.28,1.52-1.854
				c0.536-0.577,1.094-1.129,1.7-1.618c0.608-0.485,1.262-0.912,1.947-1.298l-0.655,1.132c0.327-1.141,0.602-2.288,0.854-3.438
				c0.253-1.15,0.523-2.298,0.812-3.443c0.272-1.147,0.584-2.289,0.884-3.434c0.298-1.144,0.6-2.287,0.933-3.427L31.983,40.074z"/>
		</g>
		<g>
			<path style="fill:#003C14;" d="M23.18,48.43l15.056-2.294l0.386-0.059l-0.191,0.066c0.344-0.119,0.68-0.203,1.016-0.286
				c0.334-0.072,0.656-0.086,1.004-0.225c0.172-0.065,0.345-0.131,0.499-0.104c0.155,0.021,0.292,0.137,0.424,0.273
				c0.259,0.296,0.493,0.715,0.648,1.521l-0.064,0.322c-0.458,0.682-0.837,0.976-1.19,1.147c-0.175,0.074-0.346,0.128-0.497,0.087
				c-0.152-0.035-0.285-0.163-0.419-0.291c-0.266-0.264-0.558-0.4-0.837-0.598c-0.276-0.207-0.554-0.416-0.823-0.659l0.193,0.008
				l-15.164,1.417L23.18,48.43z"/>
		</g>
		<path style="fill:#003C14;stroke:#003C14;stroke-width:0.3649;stroke-miterlimit:10;" d="M35.785,53.336
			c-0.894,1.404,1.916,2.007,2.463,3.558c0.548,1.551,0,2.554,1.187,3.283c1.186,0.73,5.563-0.364,5.655-3.056
			c0.091-2.69-3.982-4.15-6.051-4.333C36.972,52.606,36.424,52.332,35.785,53.336z"/>
	</g>
</g>
</svg>
